<svg width="63" height="63" viewBox="0 0 63 63" fill="none" xmlns="http://www.w3.org/2000/svg">
<g id="&#236;&#133;&#128;&#235;&#160;&#137;&#237;&#138;&#184;">
<path id="Vector" d="M31.5 5.25C45.9973 5.25 57.75 17.0025 57.75 31.5C57.75 45.9973 45.9973 57.75 31.5 57.75C17.0025 57.75 5.25 45.9973 5.25 31.5C5.25 17.0025 17.0025 5.25 31.5 5.25ZM39.9517 23.5454L28.2188 35.2782L23.0484 30.108C22.2795 29.3391 21.033 29.3391 20.2641 30.108C19.4953 30.8768 19.4953 32.1232 20.2641 32.892L26.8267 39.4545C27.5956 40.2234 28.8419 40.2234 29.6108 39.4545L42.7358 26.3295C43.5047 25.5608 43.5047 24.3142 42.7358 23.5454C41.9669 22.7765 40.7206 22.7765 39.9517 23.5454Z" fill="#5276FA"/>
</g>
</svg>
