<svg width="63" height="63" viewBox="0 0 63 63" fill="none" xmlns="http://www.w3.org/2000/svg">
<g id="&#236;&#157;&#188;&#235;&#176;&#152; &#236;&#149;&#132;&#236;&#157;&#180;&#236;&#189;&#152;">
<path id="Vector" d="M31.5 5.25C45.9979 5.25 57.75 17.0048 57.75 31.5C57.75 45.9953 45.9979 57.75 31.5 57.75C17.0021 57.75 5.25 45.9953 5.25 31.5C5.25 17.0048 17.0021 5.25 31.5 5.25ZM31.5047 39.3847C30.057 39.3847 28.8831 40.5584 28.8831 42.0063C28.8831 43.454 30.057 44.6276 31.5047 44.6276C32.9524 44.6276 34.1263 43.454 34.1263 42.0063C34.1263 40.5584 32.9524 39.3847 31.5047 39.3847ZM31.499 18.375C30.1529 18.3755 29.0438 19.3892 28.8926 20.6948L28.875 21.0009L28.8797 34.1282L28.8976 34.4345C29.0496 35.7399 30.1594 36.7529 31.5058 36.7524C32.8519 36.7518 33.9609 35.7381 34.1121 34.4324L34.1297 34.1263L34.125 20.9991L34.1072 20.6929C33.9552 19.3875 32.8453 18.3745 31.499 18.375Z" fill="#5276FA"/>
</g>
</svg>
