<svg width="186" height="186" viewBox="0 0 186 186" fill="none" xmlns="http://www.w3.org/2000/svg">
<path d="M122.082 140.39L120.652 138.995L121.301 138.123L121.652 136.098L120.99 134.696L120.002 133.838L118.906 133.422L116.958 133.595L116.443 133.009L114.84 132.002L112.962 131.807L110.842 132.575L108.886 133.422H108.2L107.042 132.338L105.637 131.807L104.433 131.902L103.302 132.336L95.5614 135.603L90.0536 137.786L84.568 139.709L79.3643 140.386L73.3521 140.048L67.5198 139.162C65.0496 137.636 62.2902 136.495 59.4992 136.495C54.5774 136.495 49.969 139.93 49.969 139.93L33.5254 151.919L47.3839 168.305C53.6502 160.698 60.0852 161.108 63.8424 162.319C65.9101 162.985 68.9774 163.708 71.136 163.469L95.6281 160.743L96.9337 160.598C97.4103 160.544 97.8702 160.444 98.3097 160.301L99.0941 160.171L102.132 159.112L109.357 154.254L116.265 149.443L119.545 147.158L121.177 145.94L122.195 144.421L122.511 142.224L122.08 140.391L122.082 140.39Z" fill="#E2E9FF"/>
<path d="M96.0585 148.835H94.0723C91.3479 148.835 89.1394 151.043 89.1394 153.767C89.1394 156.491 91.3479 158.699 94.0723 158.699H96.0585C98.7828 158.699 100.991 156.491 100.991 153.767C100.991 151.043 98.7828 148.835 96.0585 148.835Z" fill="white"/>
<path d="M47.5698 168.58C47.4975 168.58 47.4252 168.556 47.364 168.505C47.2267 168.392 47.2063 168.188 47.3195 168.051C50.1457 164.62 53.289 162.465 56.6623 161.644C59.1065 161.049 61.6175 161.156 64.1266 161.963C65.1725 162.3 68.7832 163.378 71.2867 163.098L97.0844 160.225C100.46 159.849 103.006 157.006 103.006 153.608C103.006 149.938 100.02 146.951 96.3481 146.951H80.7631C78.0352 146.951 75.4407 145.925 73.462 144.062C68.327 139.225 63.6926 136.774 59.6888 136.774C54.9358 136.774 50.396 140.11 50.3515 140.143L33.9023 152.132C33.7577 152.238 33.5555 152.206 33.4517 152.062C33.346 151.917 33.3775 151.715 33.5221 151.611L49.9677 139.628C50.1568 139.487 54.717 136.13 59.6888 136.13C63.9226 136.13 68.5718 138.57 73.9052 143.594C75.7634 145.345 78.1984 146.307 80.7631 146.307H96.3481C100.376 146.307 103.651 149.584 103.651 153.61C103.651 157.336 100.858 160.457 97.1548 160.869L71.3572 163.741C68.7275 164.034 65.0056 162.925 63.9282 162.579C59.8668 161.271 53.7767 161.232 47.8183 168.463C47.7553 168.541 47.6625 168.58 47.568 168.58H47.5698Z" fill="#4060DA"/>
<path d="M121.993 139.615C120.506 137.729 117.9 137.202 115.797 138.361L99.7952 147.173C100.016 147.292 100.229 147.42 100.433 147.559L116.109 138.927C117.934 137.921 120.194 138.379 121.485 140.015C122.216 140.942 122.524 142.096 122.351 143.264C122.179 144.432 121.548 145.447 120.58 146.122L103.827 157.792C102.898 158.439 101.917 158.949 100.902 159.32C100.181 159.895 99.3464 160.338 98.4321 160.609C98.905 160.535 99.3853 160.437 99.8638 160.318C101.384 159.938 102.84 159.266 104.196 158.323L120.949 146.652C122.066 145.875 122.791 144.705 122.991 143.359C123.191 142.012 122.837 140.683 121.993 139.615Z" fill="#4060DA"/>
<path d="M116.6 133.408L116.741 133.574L116.903 133.487C117.047 133.409 117.196 133.344 117.346 133.287L117.092 132.988C115.783 131.449 113.589 130.973 111.758 131.831L90.3187 141.881C90.1574 141.957 90.0869 142.15 90.163 142.311C90.2186 142.428 90.3336 142.496 90.456 142.496C90.5023 142.496 90.5487 142.487 90.5932 142.465L112.035 132.415C113.602 131.681 115.478 132.089 116.6 133.406V133.408Z" fill="#4060DA"/>
<path d="M120.92 134.847C121.393 135.466 121.595 136.234 121.489 137.005C121.411 137.578 121.168 138.103 120.796 138.528C120.975 138.645 121.15 138.773 121.315 138.914C121.751 138.402 122.036 137.777 122.129 137.094C122.259 136.15 122.012 135.214 121.433 134.455C120.362 133.048 118.457 132.642 116.903 133.487L96.1551 144.779C95.9975 144.865 95.94 145.061 96.0253 145.217C96.0846 145.324 96.1959 145.386 96.309 145.386C96.3609 145.386 96.4147 145.373 96.4629 145.347L117.211 134.055C118.483 133.363 120.041 133.697 120.918 134.849L120.92 134.847Z" fill="#4060DA"/>
<path d="M96.0583 159.1H94.0703C91.1717 159.1 88.8147 156.743 88.8147 153.844C88.8147 150.945 91.1717 148.588 94.0703 148.588H96.0583C98.9568 148.588 101.314 150.945 101.314 153.844C101.314 156.743 98.9568 159.1 96.0583 159.1ZM94.0703 149.236C91.5297 149.236 89.4619 151.303 89.4619 153.844C89.4619 156.385 91.5297 158.452 94.0703 158.452H96.0583C98.5989 158.452 100.667 156.385 100.667 153.844C100.667 151.303 98.5989 149.236 96.0583 149.236H94.0703Z" fill="#4060DA"/>
<path d="M107.671 133.076L108.103 133.545L108.717 133.257L108.146 132.638C107.074 131.475 105.383 131.117 103.934 131.748C99.9251 133.493 90.0222 137.727 84.6627 139.357C80.2194 140.709 72.6494 139.704 67.863 138.826C68.3118 139.105 68.7643 139.403 69.2242 139.726C69.9197 139.843 70.6522 139.956 71.4107 140.063C74.2981 140.469 76.8461 140.672 79.04 140.672C81.3859 140.672 83.3294 140.44 84.8519 139.976C90.2429 138.335 100.174 134.09 104.194 132.341C105.39 131.82 106.789 132.117 107.673 133.077L107.671 133.076Z" fill="#4060DA"/>
<path d="M142.859 95.5732C136.442 101.904 125.124 108.42 112.329 113.143C89.9435 121.407 69.2034 121.916 66.3812 114.271C63.559 106.626 79.6574 93.5364 102.041 85.2733C124.424 77.0103 145.166 76.5002 147.989 84.145" stroke="#4060DA" stroke-width="0.823649" stroke-linecap="round" stroke-linejoin="round"/>
<path d="M113.73 105.265C112.487 105.777 111.232 106.268 109.966 106.735C90.7836 113.816 73.0078 114.253 70.5901 107.704C68.1725 101.155 81.9681 89.9363 101.15 82.8551C120.332 75.7739 138.108 75.3375 140.525 81.8865" fill="white"/>
<path d="M113.73 105.265C112.487 105.777 111.232 106.268 109.966 106.735C90.7836 113.816 73.0078 114.253 70.5901 107.704C68.1725 101.155 81.9681 89.9363 101.15 82.8551C120.332 75.7739 138.108 75.3375 140.525 81.8865" stroke="#4060DA" stroke-width="0.823649" stroke-linecap="round" stroke-linejoin="round"/>
<path d="M107.991 94.0807C107.213 94.4004 106.426 94.7085 105.633 95.0011C93.6204 99.4359 82.4908 99.708 80.9771 95.6077C79.4634 91.5074 88.1025 84.4818 100.113 80.0479C112.124 75.6139 123.256 75.341 124.77 79.4413" fill="white"/>
<path d="M107.991 94.0807C107.213 94.4004 106.426 94.7085 105.633 95.0011C93.6204 99.4359 82.4908 99.708 80.9771 95.6077C79.4634 91.5074 88.1025 84.4818 100.113 80.0479C112.124 75.6139 123.256 75.341 124.77 79.4413" stroke="#4060DA" stroke-width="0.823649" stroke-linecap="round" stroke-linejoin="round"/>
<path d="M146.695 46.4394C150.309 56.2296 129.997 72.7469 101.325 83.3311C72.6544 93.9153 46.4819 94.5584 42.8678 84.7681L38.5442 73.0562L142.373 34.7266L146.697 46.4385L146.695 46.4394Z" fill="#4060DA"/>
<path d="M97.0019 71.6191C125.673 61.0349 145.985 44.5179 142.371 34.7273C138.757 24.9368 112.584 25.5802 83.9135 36.1644C55.2425 46.7486 34.93 63.2655 38.5442 73.0561C42.1585 82.8466 68.3309 82.2033 97.0019 71.6191Z" fill="#E2E9FF" stroke="#4060DA" stroke-width="0.663167" stroke-miterlimit="10"/>
<path d="M95.031 66.2788C117.774 57.8829 133.887 44.7804 131.02 37.0135C128.152 29.2466 107.391 29.7565 84.6479 38.1523C61.9047 46.5482 45.7921 59.6507 48.6594 67.4176C51.5266 75.1845 72.2879 74.6746 95.031 66.2788Z" fill="white" stroke="#4060DA" stroke-width="0.663167" stroke-miterlimit="10"/>
<path d="M104.358 40.3103L71.0659 52.6002C70.4062 52.8438 70.5652 53.8266 71.2668 53.8393C75.8334 53.9295 82.5789 55.2406 83.5514 62.0589C83.6263 62.5822 84.2749 62.7855 84.6407 62.4065L105.038 41.3548C105.511 40.8656 104.994 40.0727 104.357 40.308L104.358 40.3103Z" fill="#4060DA"/>
<path d="M84.6479 38.1523L85.4947 40.446" stroke="#4060DA" stroke-width="0.663167" stroke-linecap="round" stroke-linejoin="round"/>
<path d="M93.8613 63.1106L95.0301 66.2766" stroke="#4060DA" stroke-width="0.663167" stroke-linecap="round" stroke-linejoin="round"/>
<path d="M51.7751 64.8462L48.6069 66.0157" stroke="#4060DA" stroke-width="0.663167" stroke-linecap="round" stroke-linejoin="round"/>
<path d="M129.925 35.9964L126.759 37.1652" stroke="#4060DA" stroke-width="0.663167" stroke-linecap="round" stroke-linejoin="round"/>
</svg>
