<svg xmlns="http://www.w3.org/2000/svg" width="51" height="36" viewBox="0 0 51 36" fill="none">
  <path fill-rule="evenodd" clip-rule="evenodd" d="M3.62143 1.51465C2.13267 1.51465 0.925781 2.72154 0.925781 4.2103V25.8324C0.925781 27.3212 2.13266 28.528 3.62143 28.528H8.03318V34.215L13.507 28.528H47.4951C48.9839 28.528 50.1908 27.3212 50.1908 25.8324V4.2103C50.1908 2.72153 48.9839 1.51465 47.4951 1.51465H3.62143Z" fill="#F9F9F9"/>
  <path d="M8.03318 28.528H8.70709V27.8541H8.03318V28.528ZM8.03318 34.215H7.35927V35.887L8.51872 34.6824L8.03318 34.215ZM13.507 28.528V27.8541H13.2203L13.0215 28.0607L13.507 28.528ZM1.59969 4.2103C1.59969 3.09373 2.50486 2.18856 3.62143 2.18856V0.840735C1.76047 0.840735 0.251868 2.34934 0.251868 4.2103H1.59969ZM1.59969 25.8324V4.2103H0.251868V25.8324H1.59969ZM3.62143 27.8541C2.50486 27.8541 1.59969 26.949 1.59969 25.8324H0.251868C0.251868 27.6933 1.76047 29.202 3.62143 29.202V27.8541ZM8.03318 27.8541H3.62143V29.202H8.03318V27.8541ZM8.70709 34.215V28.528H7.35927V34.215H8.70709ZM13.0215 28.0607L7.54764 33.7477L8.51872 34.6824L13.9926 28.9954L13.0215 28.0607ZM47.4951 27.8541H13.507V29.202H47.4951V27.8541ZM49.5168 25.8324C49.5168 26.949 48.6117 27.8541 47.4951 27.8541V29.202C49.3561 29.202 50.8647 27.6933 50.8647 25.8324H49.5168ZM49.5168 4.2103V25.8324H50.8647V4.2103H49.5168ZM47.4951 2.18856C48.6117 2.18856 49.5168 3.09372 49.5168 4.2103H50.8647C50.8647 2.34934 49.3561 0.840735 47.4951 0.840735V2.18856ZM3.62143 2.18856H47.4951V0.840735H3.62143V2.18856Z" fill="#D4DDFF"/>
  <path d="M24.7633 22.5841C21.6116 22.5841 19.7332 20.0508 19.7422 15.6036C19.7332 11.1751 21.6297 8.62305 24.7633 8.62305C27.897 8.62305 29.7845 11.1751 29.7845 15.6036C29.7845 20.0602 27.9061 22.5841 24.7633 22.5841ZM22.1083 15.6036C22.1083 18.8687 23.1197 20.5294 24.7633 20.5387C26.3979 20.5294 27.4184 18.8687 27.4184 15.6036C27.4094 12.3666 26.3979 10.659 24.7633 10.6497C23.1288 10.659 22.1173 12.3666 22.1083 15.6036Z" fill="#5276FA"/>
  <path d="M36.4059 22.8595C33.2542 22.8595 31.3758 20.3262 31.3848 15.879C31.3758 11.4505 33.2722 8.89844 36.4059 8.89844C39.5396 8.89844 41.427 11.4505 41.427 15.879C41.427 20.3356 39.5486 22.8595 36.4059 22.8595ZM33.7509 15.879C33.7509 19.1441 34.7623 20.8047 36.4059 20.8141C38.0405 20.8047 39.061 19.1441 39.061 15.879C39.0519 12.642 38.0405 10.9344 36.4059 10.925C34.7713 10.9344 33.7599 12.642 33.7509 15.879Z" fill="#5276FA"/>
  <path d="M7.76758 19.8631V17.9115L13.4209 8.81055H16.3468V17.8552H18.0627V19.8631H16.3468V22.3963H14.1072V19.8631H7.76758ZM10.1698 17.8552H14.1433V11.5877H13.9988L10.1698 17.7614V17.8552Z" fill="#5276FA"/>
</svg>