<svg xmlns="http://www.w3.org/2000/svg" width="51" height="34" viewBox="0 0 51 34" fill="none">
  <path fill-rule="evenodd" clip-rule="evenodd" d="M4.19565 1C2.70688 1 1.5 2.20688 1.5 3.69565V23.913C1.5 25.4018 2.70689 26.6087 4.19565 26.6087H8.5V32L13.8913 26.6087H47.3261C48.8149 26.6087 50.0217 25.4018 50.0217 23.913V3.69565C50.0217 2.20688 48.8149 1 47.3261 1H4.19565Z" fill="#F9F9F9"/>
  <path d="M8.5 26.6087H9.17391V25.9348H8.5V26.6087ZM8.5 32H7.82609V33.627L8.97653 32.4765L8.5 32ZM13.8913 26.6087V25.9348H13.6122L13.4148 26.1322L13.8913 26.6087ZM2.17391 3.69565C2.17391 2.57908 3.07908 1.67391 4.19565 1.67391V0.326087C2.33469 0.326087 0.826087 1.83469 0.826087 3.69565H2.17391ZM2.17391 23.913V3.69565H0.826087V23.913H2.17391ZM4.19565 25.9348C3.07908 25.9348 2.17391 25.0296 2.17391 23.913H0.826087C0.826087 25.774 2.33469 27.2826 4.19565 27.2826V25.9348ZM8.5 25.9348H4.19565V27.2826H8.5V25.9348ZM9.17391 32V26.6087H7.82609V32H9.17391ZM13.4148 26.1322L8.02347 31.5235L8.97653 32.4765L14.3678 27.0852L13.4148 26.1322ZM47.3261 25.9348H13.8913V27.2826H47.3261V25.9348ZM49.3478 23.913C49.3478 25.0296 48.4427 25.9348 47.3261 25.9348V27.2826C49.187 27.2826 50.6957 25.774 50.6957 23.913H49.3478ZM49.3478 3.69565V23.913H50.6957V3.69565H49.3478ZM47.3261 1.67391C48.4427 1.67391 49.3478 2.57908 49.3478 3.69565H50.6957C50.6957 1.83469 49.187 0.326087 47.3261 0.326087V1.67391ZM4.19565 1.67391H47.3261V0.326087H4.19565V1.67391Z" fill="#D4DDFF"/>
  <path d="M37.4798 20.4212C34.3409 20.4212 32.4648 17.9859 32.4648 13.7106C32.4648 9.45334 34.3409 7 37.4798 7C40.6006 7 42.4947 9.45334 42.4947 13.7106C42.4947 17.9859 40.6186 20.4212 37.4798 20.4212ZM37.4798 18.4549C39.1213 18.4549 40.1315 16.8494 40.1315 13.7106C40.1315 10.5898 39.1033 8.94824 37.4798 8.94824C35.8562 8.94824 34.828 10.5898 34.828 13.7106C34.828 16.8494 35.8382 18.4549 37.4798 18.4549Z" fill="#5276FA"/>
  <path d="M25.6809 20.4212C22.5421 20.4212 20.666 17.9859 20.666 13.7106C20.666 9.45334 22.5421 7 25.6809 7C28.8017 7 30.6959 9.45334 30.6959 13.7106C30.6959 17.9859 28.8198 20.4212 25.6809 20.4212ZM25.6809 18.4549C27.3225 18.4549 28.3327 16.8494 28.3327 13.7106C28.3327 10.5898 27.3045 8.94824 25.6809 8.94824C24.0574 8.94824 23.0292 10.5898 23.0292 13.7106C23.0292 16.8494 24.0394 18.4549 25.6809 18.4549Z" fill="#5276FA"/>
  <path d="M14.1 20.4215C11.4843 20.4215 9.57216 18.8701 9.5 16.7054H11.791C11.8631 17.7697 12.8553 18.5274 14.1 18.5274C15.5612 18.5274 16.6075 17.4631 16.6075 16.0199C16.6075 14.5227 15.5251 13.4583 14.0279 13.4583C13.0177 13.4403 12.278 13.8011 11.8631 14.5768H9.68039L10.4741 7.18066H18.1949V9.14695H12.4043L12.0075 12.6105H12.1337C12.6388 12.0332 13.5949 11.6183 14.6592 11.6183C17.0945 11.6183 18.8804 13.4403 18.8804 15.9478C18.8804 18.5635 16.9141 20.4215 14.1 20.4215Z" fill="#5276FA"/>
</svg>