<svg width="40" height="40" viewBox="0 0 40 40" fill="none" xmlns="http://www.w3.org/2000/svg">
<path d="M20.0007 3.33331C29.2053 3.33331 36.6673 10.7952 36.6673 20C36.6673 29.2046 29.2053 36.6666 20.0007 36.6666C10.7959 36.6666 3.33398 29.2046 3.33398 20C3.33398 10.7952 10.7959 3.33331 20.0007 3.33331ZM20.0007 11.6666C19.3678 11.6666 18.8448 12.1369 18.762 12.747L18.7507 12.9166V18.75H12.9173C12.227 18.75 11.6673 19.3096 11.6673 20C11.6673 20.6328 12.1376 21.1558 12.7477 21.2386L12.9173 21.25H18.7507V27.0833C18.7507 27.7736 19.3103 28.3333 20.0007 28.3333C20.6335 28.3333 21.1565 27.863 21.2393 27.253L21.2507 27.0833V21.25H27.084C27.7743 21.25 28.334 20.6903 28.334 20C28.334 19.3671 27.8637 18.8441 27.2537 18.7613L27.084 18.75H21.2507V12.9166C21.2507 12.2263 20.691 11.6666 20.0007 11.6666Z" fill="#D4DDFF"/>
</svg>
