<svg xmlns="http://www.w3.org/2000/svg" width="40" height="40" viewBox="0 0 40 40" fill="none">
  <path d="M29.5808 26.5037C29.2218 27.3333 28.7967 28.0969 28.3043 28.7989C27.633 29.756 27.0834 30.4184 26.6598 30.7863C26.0032 31.3901 25.2997 31.6994 24.5464 31.717C24.0056 31.717 23.3534 31.5631 22.5942 31.2509C21.8325 30.9402 21.1325 30.7863 20.4925 30.7863C19.8212 30.7863 19.1013 30.9402 18.3312 31.2509C17.56 31.5631 16.9387 31.7258 16.4637 31.7419C15.7413 31.7727 15.0213 31.4546 14.3025 30.7863C13.8438 30.3862 13.27 29.7003 12.5826 28.7286C11.8451 27.6909 11.2388 26.4876 10.7637 25.1158C10.255 23.634 10 22.1992 10 20.81C10 19.2188 10.3438 17.8464 11.0325 16.6963C11.5738 15.7725 12.2939 15.0438 13.1951 14.5089C14.0963 13.9739 15.0701 13.7013 16.1187 13.6839C16.6925 13.6839 17.445 13.8614 18.38 14.2102C19.3125 14.5602 19.9112 14.7377 20.1737 14.7377C20.3699 14.7377 21.035 14.5301 22.1625 14.1164C23.2288 13.7327 24.1287 13.5738 24.8659 13.6364C26.8636 13.7976 28.3644 14.5851 29.3625 16.0038C27.5758 17.0863 26.6921 18.6025 26.7097 20.5476C26.7258 22.0626 27.2754 23.3233 28.3556 24.3243C28.8451 24.7889 29.3918 25.148 30 25.403C29.8681 25.7856 29.7289 26.152 29.5808 26.5037ZM24.9993 8.47501C24.9993 9.66248 24.5654 10.7712 23.7007 11.7974C22.6572 13.0174 21.395 13.7224 20.0262 13.6112C20.0088 13.4687 19.9987 13.3188 19.9987 13.1612C19.9987 12.0213 20.4949 10.8013 21.3762 9.80375C21.8162 9.2987 22.3758 8.87875 23.0544 8.54375C23.7315 8.21375 24.372 8.03125 24.9744 8C24.9919 8.15875 24.9993 8.3175 24.9993 8.475V8.47501Z" fill="white"/>
</svg>