<svg xmlns="http://www.w3.org/2000/svg" width="15" height="16" viewBox="0 0 15 16" fill="none">
  <path d="M13.7887 7.41441C13.7016 7.50181 13.5981 7.57116 13.4842 7.61848C13.3702 7.66579 13.2481 7.69015 13.1247 7.69015C13.0013 7.69015 12.8791 7.66579 12.7652 7.61848C12.6512 7.57116 12.5477 7.50181 12.4606 7.41441L8.43795 3.39175V14.8761C8.43795 15.1248 8.33918 15.3632 8.16337 15.539C7.98755 15.7149 7.74909 15.8136 7.50045 15.8136C7.25181 15.8136 7.01336 15.7149 6.83754 15.539C6.66173 15.3632 6.56295 15.1248 6.56295 14.8761V3.39175L2.53874 7.41441C2.36262 7.59053 2.12374 7.68948 1.87467 7.68948C1.6256 7.68947 1.38673 7.59053 1.21061 7.41441C1.03449 7.23829 0.935547 6.99942 0.935547 6.75035C0.935547 6.50128 1.03449 6.26241 1.21061 6.08629L6.83561 0.461286C6.92271 0.373886 7.0262 0.304539 7.14016 0.257222C7.25411 0.209904 7.37628 0.185547 7.49967 0.185547C7.62306 0.185547 7.74524 0.209904 7.85919 0.257222C7.97315 0.304539 8.07664 0.373886 8.16374 0.461286L13.7887 6.08629C13.8761 6.17338 13.9455 6.27688 13.9928 6.39083C14.0401 6.50479 14.0645 6.62696 14.0645 6.75035C14.0645 6.87374 14.0401 6.99591 13.9928 7.10987C13.9455 7.22382 13.8761 7.32731 13.7887 7.41441Z" fill="#A6A6A6"/>
</svg>