<svg width="24" height="24" viewBox="0 0 24 24" fill="none" xmlns="http://www.w3.org/2000/svg">
<path d="M21.7085 8.79162L17.7127 4.79162C17.3524 4.43092 16.7853 4.40292 16.3928 4.70762L16.2986 4.79082L12.2933 8.79082C11.9025 9.18102 11.9021 9.81422 12.2924 10.205C12.6526 10.5657 13.2198 10.5938 13.6123 10.289L13.7066 10.2059L16 7.91532L16 18.499C16 19.0119 16.386 19.4345 16.8833 19.4923L17 19.499C17.5128 19.499 17.9355 19.113 17.9932 18.6156L18 18.499L18 7.90832L20.2935 10.2051C20.6538 10.5657 21.221 10.5938 21.6135 10.2889L21.7077 10.2058C22.0684 9.84552 22.0964 9.27832 21.7916 8.88582L21.7085 8.79162ZM7.11662 4.50832L6.99992 4.50152C6.48712 4.50152 6.06442 4.88762 6.00672 5.38492L5.99992 5.50152L6.00002 16.0853L3.70742 13.7915C3.34712 13.4309 2.77982 13.4029 2.38742 13.7077L2.29322 13.7909C1.93252 14.1512 1.90452 14.7184 2.20942 15.1109L2.29252 15.2051L6.28872 19.2051C6.64912 19.5658 7.21632 19.5938 7.60872 19.2889L7.70302 19.2058L11.7067 15.2058C12.0974 14.8154 12.0977 14.1823 11.7074 13.7915C11.3471 13.4309 10.7798 13.4029 10.3874 13.7077L10.2932 13.7909L8.00002 16.0813L7.99992 5.50152C7.99992 4.98872 7.61392 4.56602 7.11662 4.50832Z" fill="white"/>
</svg>
