<svg xmlns="http://www.w3.org/2000/svg" width="25" height="24" viewBox="0 0 25 24" fill="none">
  <path d="M5.5 21C4.95 21 4.47933 20.8043 4.088 20.413C3.69667 20.0217 3.50067 19.5507 3.5 19V5C3.5 4.45 3.696 3.97933 4.088 3.588C4.48 3.19667 4.95067 3.00067 5.5 3H19.5C20.05 3 20.521 3.196 20.913 3.588C21.305 3.98 21.5007 4.45067 21.5 5V19C21.5 19.55 21.3043 20.021 20.913 20.413C20.5217 20.805 20.0507 21.0007 19.5 21H5.5ZM8.5 17H13.5C13.7833 17 14.021 16.904 14.213 16.712C14.405 16.52 14.5007 16.2827 14.5 16C14.4993 15.7173 14.4033 15.48 14.212 15.288C14.0207 15.096 13.7833 15 13.5 15H8.5C8.21667 15 7.97933 15.096 7.788 15.288C7.59667 15.48 7.50067 15.7173 7.5 16C7.49933 16.2827 7.59533 16.5203 7.788 16.713C7.98067 16.9057 8.218 17.0013 8.5 17ZM8.5 13H16.5C16.7833 13 17.021 12.904 17.213 12.712C17.405 12.52 17.5007 12.2827 17.5 12C17.4993 11.7173 17.4033 11.48 17.212 11.288C17.0207 11.096 16.7833 11 16.5 11H8.5C8.21667 11 7.97933 11.096 7.788 11.288C7.59667 11.48 7.50067 11.7173 7.5 12C7.49933 12.2827 7.59533 12.5203 7.788 12.713C7.98067 12.9057 8.218 13.0013 8.5 13ZM8.5 9H16.5C16.7833 9 17.021 8.904 17.213 8.712C17.405 8.52 17.5007 8.28267 17.5 8C17.4993 7.71733 17.4033 7.48 17.212 7.288C17.0207 7.096 16.7833 7 16.5 7H8.5C8.21667 7 7.97933 7.096 7.788 7.288C7.59667 7.48 7.50067 7.71733 7.5 8C7.49933 8.28267 7.59533 8.52033 7.788 8.713C7.98067 8.90567 8.218 9.00133 8.5 9Z" fill="#A6A6A6"/>
</svg>