<svg xmlns="http://www.w3.org/2000/svg" width="33" height="32" viewBox="0 0 33 32" fill="none">
  <path d="M26.6164 12.67C26.3352 13.5 25.8697 14.27 25.2394 14.91C24.1436 16.04 22.6794 16.67 21.1279 16.67H20.4685L29.3412 25.82C29.4479 25.45 29.5255 25.06 29.5255 24.67C29.5255 23.62 29.1085 22.59 28.3909 21.84C27.5764 21 26.4321 20.57 25.2976 20.68L24.6091 18.56C25.5109 18.14 26.3448 17.54 27.0721 16.8C28.4103 15.42 29.2442 13.66 29.4673 11.76C29.5061 11.63 29.5352 11.49 29.5352 11.34C29.5352 11.28 29.5352 11.21 29.5255 11.15C29.5255 10.99 29.5352 10.83 29.5352 10.67C29.5352 8.35 28.6624 6.18 27.0721 4.54C25.4818 2.9 23.3776 2 21.1279 2H20.4782C19.7606 2 19.1885 2.6 19.1885 3.33V10H14.0006L16.5897 12.67H26.6164ZM21.7776 4.71C23.0867 4.86 24.2988 5.46 25.2491 6.43C26.1897 7.4 26.7715 8.66 26.917 10.01H21.7776V4.71Z" fill="#A6A6A6"/>
  <path d="M23.5618 26.58C23.3194 26.33 23.1836 25.99 23.1836 25.64C23.1836 25.45 23.2321 25.26 23.3097 25.09L21.4479 23.17C20.9048 23.87 20.5945 24.73 20.5945 25.64C20.5945 26.71 21.0018 27.71 21.7291 28.47C22.4661 29.23 23.4358 29.64 24.4733 29.64C25.3558 29.64 26.1897 29.32 26.8685 28.76L25.0067 26.84C24.5315 27.05 23.94 26.97 23.5618 26.58Z" fill="#A6A6A6"/>
  <path d="M12.7206 16.38C11.7703 15.67 11.0333 14.74 10.5776 13.64H12.2164L4.44909 5.64H3.7897C3.07212 5.64 2.5 6.24 2.5 6.97C2.5 7.7 3.08182 8.3 3.7897 8.3H6.08788L7.90121 13.92C8.50242 15.79 9.64667 17.39 11.1982 18.54C11.6539 18.88 12.1291 19.17 12.6236 19.41L11.8964 21.65C10.7715 21.54 9.60788 21.97 8.79333 22.81C8.07576 23.55 7.65879 24.59 7.65879 25.64C7.65879 26.69 8.07576 27.72 8.79333 28.47C9.51091 29.22 10.5194 29.64 11.5376 29.64C12.5558 29.64 13.5448 29.22 14.2818 28.47C14.9994 27.73 15.4164 26.69 15.4164 25.64C15.4164 24.59 14.9994 23.56 14.2818 22.81L14.2527 22.78L15.0867 20.19C15.5424 20.26 16.0079 20.3 16.4733 20.3H18.6552L16.037 17.6C14.8345 17.52 13.6806 17.11 12.7012 16.38H12.7206ZM12.4685 26.58C11.9836 27.08 11.1206 27.08 10.6358 26.58C10.3933 26.33 10.2576 25.99 10.2576 25.64C10.2576 25.29 10.3933 24.94 10.6358 24.7C10.8782 24.46 11.2079 24.31 11.5473 24.31C11.8867 24.31 12.2164 24.45 12.4588 24.7C12.7012 24.95 12.837 25.29 12.837 25.64C12.837 25.99 12.7012 26.34 12.4588 26.58H12.4685Z" fill="#A6A6A6"/>
  <path d="M28.9242 27.57L28.1679 26.79C27.9836 27.42 27.6733 28 27.2176 28.46C27.1109 28.57 26.9848 28.66 26.8685 28.75L27.3145 29.21C27.7606 29.67 28.4782 29.67 28.9145 29.21C29.3606 28.75 29.3606 28.01 28.9145 27.56L28.9242 27.57Z" fill="#A6A6A6"/>
  <path d="M12.2067 13.64L16.0467 17.6C16.1921 17.61 16.3376 17.64 16.483 17.64H19.2855L15.4067 13.64H12.197H12.2067Z" fill="#A6A6A6"/>
  <path d="M21.7679 22.78L20.9436 20.24C20.6139 20.28 20.2842 20.3 19.9545 20.3H18.6745L21.4479 23.16C21.5448 23.04 21.6224 22.91 21.7291 22.8C21.7291 22.8 21.7485 22.78 21.7582 22.77L21.7679 22.78Z" fill="#A6A6A6"/>
  <path d="M8.2503 6.55L9.67576 10.97H12.8273L5.47697 3.38C5.03091 2.92 4.31333 2.92 3.87697 3.38C3.43091 3.84 3.43091 4.58 3.87697 5.03L4.45879 5.63H7.02848C7.58121 5.63 8.07576 6 8.26 6.54L8.2503 6.55Z" fill="#A6A6A6"/>
  <path d="M25.3945 26.58C25.637 26.33 25.7727 25.99 25.7727 25.64C25.7727 25.29 25.637 24.95 25.3945 24.7C25.1521 24.45 24.8224 24.31 24.483 24.31C24.1436 24.31 23.8139 24.45 23.5715 24.7C23.4648 24.81 23.3873 24.95 23.3194 25.09L25.0164 26.84C25.1521 26.78 25.2879 26.7 25.4042 26.58H25.3945Z" fill="#A6A6A6"/>
  <path d="M28.1776 26.79L19.3048 17.64H16.5024C16.357 17.64 16.2115 17.62 16.0661 17.6L18.6842 20.3H19.9642C20.2939 20.3 20.6236 20.28 20.9533 20.24L21.7776 22.78C21.7776 22.78 21.7582 22.8 21.7485 22.81C21.6418 22.92 21.5545 23.05 21.4673 23.17L23.3291 25.09C23.397 24.95 23.4745 24.81 23.5812 24.7C23.8236 24.45 24.1533 24.31 24.4927 24.31C24.8321 24.31 25.1618 24.45 25.4042 24.7C25.6467 24.95 25.7824 25.29 25.7824 25.64C25.7824 25.99 25.6467 26.33 25.4042 26.58C25.2976 26.69 25.1618 26.77 25.0164 26.84L26.8782 28.76C26.9945 28.66 27.1206 28.58 27.2273 28.47C27.683 28 27.9933 27.42 28.1776 26.8V26.79Z" fill="#A6A6A6"/>
  <path d="M15.4164 13.64L12.8273 10.97H9.67576L8.2503 6.55C8.07576 6.01 7.58121 5.64 7.01879 5.64H4.44909L12.2067 13.64H15.4164Z" fill="#A6A6A6"/>
</svg>