<svg xmlns="http://www.w3.org/2000/svg" width="33" height="32" viewBox="0 0 33 32" fill="none">
  <path d="M3.16602 6.66667H6.49935L8.67535 13.196C9.2063 14.7892 10.2251 16.1749 11.5875 17.1568C12.9499 18.1386 14.5867 18.6669 16.266 18.6667H19.8327C21.7776 18.6667 23.6429 17.8941 25.0181 16.5188C26.3934 15.1435 27.166 13.2783 27.166 11.3333C27.166 9.38841 26.3934 7.52315 25.0181 6.14788C23.6429 4.77262 21.7776 4 19.8327 4H19.166V12M8.49935 12H27.166M12.4993 22.6667L13.8327 18.6667M21.8327 18.6667L23.166 22.6667M8.49935 25.3333C8.49935 26.0406 8.7803 26.7189 9.2804 27.219C9.78049 27.719 10.4588 28 11.166 28C11.8733 28 12.5515 27.719 13.0516 27.219C13.5517 26.7189 13.8327 26.0406 13.8327 25.3333C13.8327 24.6261 13.5517 23.9478 13.0516 23.4477C12.5515 22.9476 11.8733 22.6667 11.166 22.6667C10.4588 22.6667 9.78049 22.9476 9.2804 23.4477C8.7803 23.9478 8.49935 24.6261 8.49935 25.3333ZM21.8327 25.3333C21.8327 26.0406 22.1136 26.7189 22.6137 27.219C23.1138 27.719 23.7921 28 24.4993 28C25.2066 28 25.8849 27.719 26.385 27.219C26.8851 26.7189 27.166 26.0406 27.166 25.3333C27.166 24.6261 26.8851 23.9478 26.385 23.4477C25.8849 22.9476 25.2066 22.6667 24.4993 22.6667C23.7921 22.6667 23.1138 22.9476 22.6137 23.4477C22.1136 23.9478 21.8327 24.6261 21.8327 25.3333Z" stroke="#A6A6A6" stroke-width="2.66667" stroke-linecap="round" stroke-linejoin="round"/>
</svg>