<svg xmlns="http://www.w3.org/2000/svg" width="24" height="25" viewBox="0 0 24 25" fill="none">
  <path d="M6.44784 8.28875C6.76219 5.45966 9.15349 3.31934 12 3.31934V3.31934C14.8465 3.31934 17.2378 5.45966 17.5522 8.28875L17.804 10.555C17.8072 10.5839 17.8088 10.5983 17.8104 10.6126C17.9394 11.7363 18.3051 12.8199 18.8836 13.7918C18.8909 13.8042 18.8984 13.8167 18.9133 13.8416L19.4914 14.805C20.0159 15.6792 20.2782 16.1164 20.2216 16.4752C20.1839 16.714 20.061 16.931 19.8757 17.0862C19.5971 17.3193 19.0873 17.3193 18.0678 17.3193H5.93223C4.91268 17.3193 4.40291 17.3193 4.12434 17.0862C3.93897 16.931 3.81609 16.714 3.77841 16.4752C3.72179 16.1164 3.98407 15.6792 4.50862 14.805L5.08665 13.8416C5.10161 13.8167 5.10909 13.8042 5.11644 13.7918C5.69488 12.8199 6.06064 11.7363 6.18959 10.6126C6.19123 10.5983 6.19283 10.5839 6.19604 10.555L6.44784 8.28875Z" stroke="#33363F" stroke-width="2"/>
  <path d="M8 17.3193C8 17.8446 8.10346 18.3648 8.30448 18.8501C8.5055 19.3354 8.80014 19.7763 9.17157 20.1478C9.54301 20.5192 9.98396 20.8138 10.4693 21.0149C10.9546 21.2159 11.4747 21.3193 12 21.3193C12.5253 21.3193 13.0454 21.2159 13.5307 21.0149C14.016 20.8138 14.457 20.5192 14.8284 20.1478C15.1999 19.7763 15.4945 19.3354 15.6955 18.8501C15.8965 18.3648 16 17.8446 16 17.3193" stroke="#33363F" stroke-width="2" stroke-linecap="round"/>
  <circle cx="21.5" cy="2.5" r="2.5" fill="#FA5252"/>
</svg>