<svg xmlns="http://www.w3.org/2000/svg" width="28" height="28" viewBox="0 0 28 28" fill="none">
  <path fill-rule="evenodd" clip-rule="evenodd" d="M16.0924 3.84409C15.4337 3.6207 14.7293 3.5 13.9991 3.5C10.6782 3.5 7.88835 5.99704 7.52162 9.29766L7.22785 11.9416L7.22032 12.0088C7.06988 13.3198 6.64316 14.5839 5.96832 15.7179L5.93357 15.7759L5.25919 16.8999C4.64721 17.9199 4.34122 18.4299 4.40728 18.8485C4.45123 19.1271 4.5946 19.3803 4.81086 19.5613C5.13586 19.8333 5.7306 19.8333 6.92007 19.8333H21.0782C22.2677 19.8333 22.8624 19.8333 23.1874 19.5613C23.4037 19.3803 23.547 19.1271 23.591 18.8485C23.657 18.4299 23.3511 17.9199 22.7391 16.8999L22.0647 15.7759L22.03 15.7179C21.4977 14.8235 21.1198 13.8481 20.91 12.8327C17.7295 12.785 15.1658 10.1919 15.1658 7C15.1658 5.83719 15.506 4.75385 16.0924 3.84409ZM18.9856 5.8203C19.7868 6.77112 20.323 7.95824 20.474 9.274C19.4382 9.03577 18.6658 8.10809 18.6658 7C18.6658 6.56961 18.7823 6.16643 18.9856 5.8203Z" fill="#A6A6A6"/>
  <path d="M10.5 19.8335C10.5 20.2931 10.5905 20.7482 10.7664 21.1729C10.9423 21.5975 11.2001 21.9834 11.5251 22.3084C11.8501 22.6334 12.236 22.8912 12.6606 23.0671C13.0852 23.243 13.5404 23.3335 14 23.3335C14.4596 23.3335 14.9148 23.243 15.3394 23.0671C15.764 22.8912 16.1499 22.6334 16.4749 22.3084C16.7999 21.9834 17.0577 21.5975 17.2336 21.1729C17.4095 20.7482 17.5 20.2931 17.5 19.8335L14 19.8335H10.5Z" fill="#A6A6A6"/>
  <circle cx="20.9993" cy="6.99984" r="2.91667" fill="#A6A6A6" stroke="#A6A6A6" stroke-width="1.16667"/>
</svg>