<svg xmlns="http://www.w3.org/2000/svg" width="36" height="36" viewBox="0 0 36 36" fill="none">
  <path d="M19.499 25.576C20.599 25.051 21.7055 24.657 22.8185 24.394C23.9315 24.131 25.075 24 26.249 24.001C27.149 24.001 28.0305 24.076 28.8935 24.226C29.7565 24.376 30.625 24.601 31.499 24.901V10.051C30.674 9.70098 29.8175 9.43848 28.9295 9.26348C28.0415 9.08848 27.148 9.00098 26.249 9.00098C25.074 9.00098 23.9115 9.15098 22.7615 9.45098C21.6115 9.75098 20.524 10.201 19.499 10.801V25.576ZM17.999 30.001C16.799 29.051 15.499 28.3135 14.099 27.7885C12.699 27.2635 11.249 27.001 9.74902 27.001C8.42402 27.001 7.03652 27.251 5.58652 27.751C4.13652 28.251 2.77402 29.026 1.49902 30.076V8.32598C2.59902 7.57598 3.89302 7.00098 5.38102 6.60098C6.86902 6.20098 8.32502 6.00098 9.74902 6.00098C11.199 6.00098 12.618 6.18848 14.006 6.56348C15.394 6.93848 16.725 7.50098 17.999 8.25098C19.274 7.50098 20.6055 6.93848 21.9935 6.56348C23.3815 6.18848 24.8 6.00098 26.249 6.00098C27.674 6.00098 29.1305 6.20098 30.6185 6.60098C32.1065 7.00098 33.4 7.57598 34.499 8.32598V30.076C33.249 29.026 31.8925 28.251 30.4295 27.751C28.9665 27.251 27.573 27.001 26.249 27.001C24.749 27.001 23.299 27.2635 21.899 27.7885C20.499 28.3135 19.199 29.051 17.999 30.001ZM20.999 14.851V12.301C21.824 11.951 22.668 11.6885 23.531 11.5135C24.394 11.3385 25.3 11.251 26.249 11.251C26.899 11.251 27.5365 11.301 28.1615 11.401C28.7865 11.501 29.399 11.626 29.999 11.776V14.176C29.399 13.951 28.7925 13.7825 28.1795 13.6705C27.5665 13.5585 26.923 13.502 26.249 13.501C25.299 13.501 24.3865 13.62 23.5115 13.858C22.6365 14.096 21.799 14.427 20.999 14.851ZM20.999 23.101V20.551C21.824 20.201 22.668 19.9385 23.531 19.7635C24.394 19.5885 25.3 19.501 26.249 19.501C26.899 19.501 27.5365 19.551 28.1615 19.651C28.7865 19.751 29.399 19.876 29.999 20.026V22.426C29.399 22.201 28.7925 22.032 28.1795 21.919C27.5665 21.806 26.923 21.75 26.249 21.751C25.299 21.751 24.3865 21.8635 23.5115 22.0885C22.6365 22.3135 21.799 22.651 20.999 23.101ZM20.999 18.976V16.426C21.824 16.076 22.668 15.8135 23.531 15.6385C24.394 15.4635 25.3 15.376 26.249 15.376C26.899 15.376 27.5365 15.426 28.1615 15.526C28.7865 15.626 29.399 15.751 29.999 15.901V18.301C29.399 18.076 28.7925 17.907 28.1795 17.794C27.5665 17.681 26.923 17.625 26.249 17.626C25.299 17.626 24.3865 17.745 23.5115 17.983C22.6365 18.221 21.799 18.552 20.999 18.976Z" fill="#5276FA"/>
</svg>