<svg xmlns="http://www.w3.org/2000/svg" width="24" height="25" viewBox="0 0 24 25" fill="none">
  <path d="M6.33059 21.8776C5.83445 22.2346 5.14258 21.88 5.14258 21.2688V6.27295C5.14258 4.47802 6.59765 3.02295 8.39258 3.02295H15.8909C17.6858 3.02295 19.1409 4.47802 19.1409 6.27295V21.2688C19.1409 21.88 18.449 22.2346 17.9529 21.8776L12.1417 17.6967L6.33059 21.8776ZM17.6409 6.27295C17.6409 5.30645 16.8574 4.52295 15.8909 4.52295H8.39258C7.42608 4.52295 6.64258 5.30645 6.64258 6.27295V19.8053L11.7037 16.1639C11.9654 15.9757 12.3181 15.9757 12.5797 16.1639L17.6409 19.8053V6.27295Z" fill="white"/>
</svg>