<svg xmlns="http://www.w3.org/2000/svg" width="13" height="13" viewBox="0 0 13 13" fill="none">
  <path d="M3.29728 11.1595C3.03888 11.3454 2.67853 11.1608 2.67853 10.8424V3.03206C2.67853 2.0972 3.43638 1.33936 4.37124 1.33936H8.27664C9.21148 1.33936 9.96935 2.0972 9.96935 3.03206V10.8424C9.96935 11.1608 9.60898 11.3454 9.35059 11.1595L6.32393 8.98196L3.29728 11.1595ZM9.1881 3.03206C9.1881 2.52868 8.78002 2.12061 8.27664 2.12061H4.37124C3.86785 2.12061 3.45978 2.52868 3.45978 3.03206V10.0802L6.0958 8.18363C6.23211 8.08561 6.4158 8.08561 6.55205 8.18363L9.1881 10.0802V3.03206Z" fill="#121212"/>
</svg>