<svg width="20" height="20" viewBox="0 0 20 20" fill="none" xmlns="http://www.w3.org/2000/svg">
<path d="M8.95878 4.16699C8.61361 4.16699 8.3338 4.44682 8.3338 4.79199C8.3338 5.13717 8.61361 5.41699 8.95878 5.41699H11.0421C11.3873 5.41699 11.6671 5.13717 11.6671 4.79199C11.6671 4.44682 11.3873 4.16699 11.0421 4.16699H8.95878ZM3.3338 4.79199C3.3338 3.0661 4.73291 1.66699 6.4588 1.66699H13.5421C15.268 1.66699 16.6671 3.0661 16.6671 4.79199V7.91699H17.6897C18.0349 7.91699 18.3147 8.19682 18.3147 8.54199C18.3147 8.88716 18.0349 9.16699 17.6897 9.16699H16.6671V16.4587C16.6671 17.2641 16.0142 17.917 15.2088 17.917H13.9588C13.1534 17.917 12.5004 17.2641 12.5004 16.4587V15.417H7.50047V16.4587C7.50047 17.2641 6.84755 17.917 6.04213 17.917H4.79213C3.98672 17.917 3.3338 17.2641 3.3338 16.4587V9.16699H2.29199C1.94681 9.16699 1.66699 8.88716 1.66699 8.54199C1.66699 8.19682 1.94681 7.91699 2.29199 7.91699H3.3338V4.79199ZM13.7504 15.417V16.4587C13.7504 16.5737 13.8438 16.667 13.9588 16.667H15.2088C15.3239 16.667 15.4171 16.5737 15.4171 16.4587V15.417H13.7504ZM4.5838 15.417V16.4587C4.5838 16.5737 4.67708 16.667 4.79213 16.667H6.04213C6.15719 16.667 6.25047 16.5737 6.25047 16.4587V15.417H4.5838ZM6.4588 2.91699C5.42327 2.91699 4.5838 3.75646 4.5838 4.79199V10.0003H15.4171V4.79199C15.4171 3.75646 14.5777 2.91699 13.5421 2.91699H6.4588ZM7.50053 12.5003C7.50053 12.0401 7.12743 11.667 6.66719 11.667C6.20696 11.667 5.83386 12.0401 5.83386 12.5003C5.83386 12.9606 6.20696 13.3337 6.66719 13.3337C7.12743 13.3337 7.50053 12.9606 7.50053 12.5003ZM13.3337 13.3337C13.7939 13.3337 14.167 12.9606 14.167 12.5003C14.167 12.0401 13.7939 11.667 13.3337 11.667C12.8734 11.667 12.5004 12.0401 12.5004 12.5003C12.5004 12.9606 12.8734 13.3337 13.3337 13.3337Z" fill="#849FFF"/>
</svg>
