<svg xmlns="http://www.w3.org/2000/svg" width="24" height="25" viewBox="0 0 24 25" fill="none">
  <path d="M17.5 12.6055C20.5376 12.6055 23 15.0679 23 18.1055C23 21.1431 20.5376 23.6055 17.5 23.6055C14.4624 23.6055 12 21.1431 12 18.1055C12 15.0679 14.4624 12.6055 17.5 12.6055ZM17.75 3.60547C19.5449 3.60547 21 5.06054 21 6.85547L21.0012 12.6281C20.5378 12.3313 20.0342 12.0916 19.5004 11.9191L19.5 9.10547H4.5V18.3555C4.5 19.322 5.2835 20.1055 6.25 20.1055L11.3136 20.1059C11.4861 20.6397 11.7258 21.1433 12.0226 21.6067L6.25 21.6055C4.45507 21.6055 3 20.1504 3 18.3555V6.85547C3 5.06054 4.45507 3.60547 6.25 3.60547H17.75ZM17.5 14.6055L17.4101 14.6136C17.206 14.6506 17.0451 14.8115 17.0081 15.0156L17 15.1055V17.6055H14.5L14.4101 17.6136C14.206 17.6506 14.0451 17.8115 14.0081 18.0156L14 18.1055L14.0081 18.1954C14.0451 18.3995 14.206 18.5604 14.4101 18.5974L14.5 18.6055H17V21.1055L17.0081 21.1954C17.0451 21.3995 17.206 21.5604 17.4101 21.5974L17.5 21.6055L17.5899 21.5974C17.794 21.5604 17.9549 21.3995 17.9919 21.1954L18 21.1055V18.6055H20.5L20.5899 18.5974C20.794 18.5604 20.9549 18.3995 20.9919 18.1954L21 18.1055L20.9919 18.0156C20.9549 17.8115 20.794 17.6506 20.5899 17.6136L20.5 17.6055H18V15.1055L17.9919 15.0156C17.9549 14.8115 17.794 14.6506 17.5899 14.6136L17.5 14.6055ZM17.75 5.10547H6.25C5.2835 5.10547 4.5 5.88897 4.5 6.85547V7.60547H19.5V6.85547C19.5 5.88897 18.7165 5.10547 17.75 5.10547Z" fill="#727272"/>
</svg>