<svg xmlns="http://www.w3.org/2000/svg" width="44" height="44" viewBox="0 0 44 44" fill="none">
  <path d="M29.9204 20.2399C35.2666 20.2399 39.6004 24.5737 39.6004 29.9199C39.6004 35.2661 35.2666 39.5999 29.9204 39.5999C24.5742 39.5999 20.2404 35.2661 20.2404 29.9199C20.2404 24.5737 24.5742 20.2399 29.9204 20.2399ZM36.0804 14.0799L36.0825 20.2797C34.304 19.1404 32.1894 18.4799 29.9204 18.4799C23.6022 18.4799 18.4804 23.6017 18.4804 29.9199C18.4804 32.1889 19.1409 34.3035 20.2802 36.082L10.1204 36.0799C6.96131 36.0799 4.40039 33.5189 4.40039 30.3599V14.0799H36.0804ZM29.9204 23.7599L29.7622 23.7742C29.403 23.8393 29.1198 24.1225 29.0546 24.4817L29.0404 24.6399V29.0399H24.6404L24.4822 29.0542C24.1229 29.1193 23.8398 29.4025 23.7746 29.7617L23.7604 29.9199L23.7746 30.0781C23.8398 30.4373 24.1229 30.7205 24.4822 30.7856L24.6404 30.7999H29.0404V35.1999L29.0546 35.3581C29.1198 35.7173 29.403 36.0005 29.7622 36.0656L29.9204 36.0799L30.0786 36.0656C30.4378 36.0005 30.721 35.7173 30.7861 35.3581L30.8004 35.1999V30.7999H35.2004L35.3586 30.7856C35.7178 30.7205 36.001 30.4373 36.0661 30.0781L36.0804 29.9199L36.0661 29.7617C36.001 29.4025 35.7178 29.1193 35.3586 29.0542L35.2004 29.0399H30.8004V24.6399L30.7861 24.4817C30.721 24.1225 30.4378 23.8393 30.0786 23.7742L29.9204 23.7599ZM30.3604 4.3999C33.5194 4.3999 36.0804 6.96083 36.0804 10.1199V11.4399H4.40039V10.1199C4.40039 6.96083 6.96131 4.3999 10.1204 4.3999H30.3604Z" fill="#D4DDFF"/>
</svg>