<svg xmlns="http://www.w3.org/2000/svg" width="24" height="24" viewBox="0 0 24 24" fill="none">
  <circle cx="12" cy="12" r="11.5" fill="white" stroke="#E3E3E3"/>
  <path d="M13.6628 5.48584C14.2098 5.48584 14.716 5.77553 14.9931 6.24724L15.5516 7.19803H16.9716C18.2023 7.19803 19.2001 8.1958 19.2001 9.42661V15.9409C19.2001 17.1717 18.2023 18.1695 16.9716 18.1695H7.71441C6.4836 18.1695 5.48584 17.1717 5.48584 15.9409V9.42661C5.48584 8.1958 6.4836 7.19803 7.71441 7.19803H9.14098L9.7407 6.22137C10.0213 5.76434 10.5192 5.48584 11.0555 5.48584H13.6628ZM12.343 9.25518C10.6388 9.25518 9.25727 10.6367 9.25727 12.3409C9.25727 14.0451 10.6388 15.4266 12.343 15.4266C14.0472 15.4266 15.4287 14.0451 15.4287 12.3409C15.4287 10.6367 14.0472 9.25518 12.343 9.25518ZM12.343 10.2837C13.4791 10.2837 14.4001 11.2048 14.4001 12.3409C14.4001 13.477 13.4791 14.3981 12.343 14.3981C11.2068 14.3981 10.2858 13.477 10.2858 12.3409C10.2858 11.2048 11.2068 10.2837 12.343 10.2837Z" fill="#BCBCBC"/>
</svg>