<svg xmlns="http://www.w3.org/2000/svg" width="20" height="21" viewBox="0 0 20 21" fill="none">
  <path d="M4.37484 4.37891C2.87906 4.37891 1.6665 5.59146 1.6665 7.08724V8.12891H18.3332V7.08724C18.3332 5.59146 17.1206 4.37891 15.6248 4.37891H4.37484ZM18.3332 9.37891H1.6665V13.3372C1.6665 14.833 2.87906 16.0456 4.37484 16.0456H15.6248C17.1206 16.0456 18.3332 14.833 18.3332 13.3372V9.37891ZM13.1248 12.2956H15.2082C15.5533 12.2956 15.8332 12.5754 15.8332 12.9206C15.8332 13.2657 15.5533 13.5456 15.2082 13.5456H13.1248C12.7797 13.5456 12.4998 13.2657 12.4998 12.9206C12.4998 12.5754 12.7797 12.2956 13.1248 12.2956Z" fill="#849FFF"/>
</svg>