<svg width="16" height="16" viewBox="0 0 16 16" fill="none" xmlns="http://www.w3.org/2000/svg">
<path d="M4.53259 11.3115C3.59879 11.3115 2.8418 10.5545 2.8418 9.6207V5.19861C2.8418 4.26481 3.59879 3.50781 4.53259 3.50781H11.5559C12.4897 3.50781 13.2467 4.26481 13.2467 5.19861V9.6207C13.2467 10.5545 12.4897 11.3115 11.5559 11.3115H8.571L5.96258 13.2628C5.67498 13.4779 5.26744 13.4191 5.05233 13.1315C4.96823 13.019 4.92278 12.8824 4.92278 12.7421L4.92237 11.3115H4.53259ZM8.3114 10.5311H11.5559C12.0587 10.5311 12.4663 10.1235 12.4663 9.6207V5.19861C12.4663 4.69579 12.0587 4.28818 11.5559 4.28818H4.53259C4.02978 4.28818 3.62217 4.69579 3.62217 5.19861V9.6207C3.62217 10.1235 4.02978 10.5311 4.53259 10.5311H5.70252L5.70263 10.9212L5.70307 12.4824L8.3114 10.5311Z" fill="#424242"/>
</svg>
