<svg xmlns="http://www.w3.org/2000/svg" width="23" height="22" viewBox="0 0 23 22" fill="none">
  <path d="M9.25375 1.99985C9.35945 2.03581 10.1536 1.95054 10.2538 1.99985L11.2538 2.99985C11.5808 3.16086 11.9268 3.16086 12.2538 2.99985L13.2538 1.99985C14.5337 1.36966 16.6236 1.71987 17.2538 2.99985V3.99985V4.99985C17.3712 5.34495 17.9087 5.88245 18.2538 5.99985H19.2538C20.6045 6.45932 21.7132 7.64915 21.2538 8.99985C21.2178 9.10555 21.3031 9.89971 21.2538 9.99985L20.2538 10.9998C20.0927 11.3268 20.0927 11.6728 20.2538 11.9998L21.2538 12.9998C21.884 14.2798 21.5338 16.3697 20.2538 16.9998C20.1536 17.0492 19.3595 16.964 19.2538 16.9998H18.2538C17.9087 17.1173 17.3712 17.6548 17.2538 17.9998V18.9998C16.7943 20.3506 15.6045 21.4593 14.2538 20.9998C14.1481 20.9639 13.3539 21.0492 13.2538 20.9998L12.2538 19.9998C11.9268 19.8388 11.5808 19.8388 11.2538 19.9998L10.2538 20.9998C8.97378 21.6301 6.88395 21.2798 6.25375 19.9998C6.20444 19.8997 6.2897 19.1056 6.25375 18.9998V17.9998C6.13636 17.6548 5.59885 17.1173 5.25375 16.9998H4.25375C2.90305 16.5404 1.79429 15.3506 2.25375 13.9998C2.28971 13.8942 2.20445 13.1 2.25375 12.9998L3.25375 11.9998C3.41476 11.6728 3.41476 11.3268 3.25375 10.9998L2.25375 9.99985C1.62356 8.71988 1.97378 6.63004 3.25375 5.99985C3.35392 5.95053 4.14806 6.0358 4.25375 5.99985H5.25375C5.59885 5.88245 6.13636 5.34495 6.25375 4.99985V3.99985C6.71322 2.64914 7.90306 1.54038 9.25375 1.99985ZM15.2538 8.99985L10.2538 13.9998L8.25375 11.9998C8.00466 11.7008 7.55267 10.7507 7.25375 10.9998C6.95483 11.249 7.00466 11.7009 7.25375 11.9998L9.25375 14.9998C9.51898 15.3181 9.96086 15.2928 10.2538 14.9998L16.2538 9.99985C16.5289 9.72472 16.5289 9.27498 16.2538 8.99985C15.9786 8.72471 15.5289 8.72471 15.2538 8.99985Z" fill="#849FFF"/>
</svg>