<svg xmlns="http://www.w3.org/2000/svg" width="14" height="14" viewBox="0 0 14 14" fill="none">
  <path d="M1.16699 6.99984C1.16699 3.77817 3.77866 1.1665 7.00033 1.1665C10.222 1.1665 12.8337 3.77817 12.8337 6.99984C12.8337 10.2215 10.222 12.8332 7.00033 12.8332C3.77866 12.8332 1.16699 10.2215 1.16699 6.99984ZM5.81597 9.64251C5.98684 9.81337 6.26381 9.81337 6.43467 9.64251L8.768 7.30918C8.93886 7.13832 8.93886 6.86135 8.768 6.6905L6.43467 4.35714C6.26381 4.18629 5.98684 4.18629 5.81597 4.35714C5.64511 4.528 5.64511 4.80501 5.81597 4.97586L7.83992 6.99984L5.81597 9.02383C5.64511 9.19469 5.64511 9.47165 5.81597 9.64251Z" fill="#ADADAD"/>
</svg>