<svg xmlns="http://www.w3.org/2000/svg" width="25" height="24" viewBox="0 0 25 24" fill="none">
<path d="M17.9908 6.65685C21.115 9.78102 21.115 14.8464 17.9908 17.9706C14.8667 21.0947 9.8013 21.0947 6.67713 17.9706C3.55293 14.8464 3.55296 9.78102 6.67713 6.65685C9.80133 3.53266 14.8666 3.53266 17.9908 6.65685ZM15.1624 9.48528C14.9476 9.27049 14.6105 9.25259 14.3753 9.43156L14.3139 9.48528L12.334 11.4652L10.3541 9.48528C10.1198 9.25097 9.73986 9.25097 9.50556 9.48528C9.29077 9.70007 9.27286 10.0372 9.45183 10.2724L9.50556 10.3338L11.4855 12.3137L9.50556 14.2936C9.27125 14.5279 9.27125 14.9078 9.50556 15.1421C9.72035 15.3569 10.0575 15.3748 10.2927 15.1959L10.3541 15.1421L12.334 13.1622L14.3139 15.1421C14.5482 15.3764 14.9281 15.3764 15.1624 15.1421C15.3772 14.9273 15.3951 14.5902 15.2162 14.355L15.1624 14.2936L13.1825 12.3137L15.1624 10.3338C15.3967 10.0995 15.3967 9.71959 15.1624 9.48528Z" fill="#B0B0B0"/>
</svg>