<svg xmlns="http://www.w3.org/2000/svg" width="25" height="24" viewBox="0 0 25 24" fill="none">
  <g clip-path="url(#clip0_23_580)">
    <path d="M23.8332 12C23.8332 18.326 18.705 23.4542 12.3789 23.4542C6.05293 23.4542 0.924688 18.326 0.924688 12C0.924688 5.67401 6.05293 0.545782 12.3789 0.545782C18.705 0.545782 23.8332 5.67401 23.8332 12Z" fill="white" stroke="#D6D6D6" stroke-width="1.09156"/>
    <path d="M16.9127 7.54008L16.9757 7.59619C17.2376 7.85808 17.2563 8.27109 17.0319 8.55459L16.9757 8.61757L13.4009 12.1924L16.9757 15.7672C17.2376 16.0291 17.2564 16.4421 17.0319 16.7256L16.9757 16.7886C16.7138 17.0505 16.3009 17.0692 16.0173 16.8447L15.9543 16.7886L12.3795 13.2138L8.80469 16.7886C8.5428 17.0505 8.12981 17.0692 7.84628 16.8447L7.78331 16.7886C7.52142 16.5267 7.50268 16.1137 7.72718 15.8302L7.78331 15.7672L11.3581 12.1924L7.78331 8.61757C7.5214 8.35567 7.50268 7.94269 7.7272 7.65918L7.78331 7.59619C8.04519 7.33431 8.4582 7.31559 8.74171 7.54006L8.80469 7.59619L12.3795 11.171L15.9543 7.59619C16.2162 7.33429 16.6292 7.31557 16.9127 7.54008Z" fill="#D6D6D6"/>
  </g>
  <defs>
    <clipPath id="clip0_23_580">
      <rect width="24.0001" height="24" fill="white" transform="translate(0.378906)"/>
    </clipPath>
  </defs>
</svg>