<svg width="26" height="26" viewBox="0 0 26 26" fill="none" xmlns="http://www.w3.org/2000/svg">
<path d="M10.1799 13.1997L9.07416 14.0794L9.38791 15.51L16.5243 22.1303L19.8 22.2727L23.7309 20.3718L24.8342 17.8997L23.248 13.1997L21.0414 8.54472L19.5931 8.7171L19.2829 10.3035L19.7655 11.4412L18.007 10.9585L16.5243 9.30343L13.49 6.88965L12.5294 7.66299L11.4557 7.92416L10.2143 8.26892L10.2833 9.55939L9.59377 10.8551L9.38791 11.7859L10.1799 13.1997Z" fill="white"/>
<path d="M19.8715 8.10396C18.9655 8.46731 18.5215 9.49761 18.8782 10.4051L19.1579 11.1864L14.728 6.75644C14.0345 6.06296 12.906 6.06296 12.2125 6.75644C12.0468 6.92212 11.9213 7.1126 11.8348 7.31598C11.1842 7.03398 10.3985 7.15799 9.86768 7.68876C9.31954 8.2369 9.20495 9.05637 9.52317 9.71835C9.32549 9.80516 9.14022 9.92892 8.97851 10.0906C8.27957 10.7896 8.27957 11.927 8.97851 12.6259L9.31557 12.963C9.15709 13.0449 9.00827 13.152 8.87558 13.2847C8.1821 13.9782 8.1821 15.1067 8.87558 15.8002L14.0008 20.9254C14.1543 21.0853 16.1797 23.138 18.8812 23.1737C20.4383 23.1943 21.8877 22.5472 23.1896 21.2508C23.2146 21.2282 23.2608 21.1855 23.3225 21.1238C23.5822 20.8641 24.1184 20.2656 24.5354 19.3896C25.0542 18.299 25.4878 16.5504 24.6071 14.4145C24.6043 14.4075 24.6014 14.4008 24.5981 14.3939L22.1789 9.07845C21.8086 8.17787 20.7771 7.7411 19.8718 8.1042L19.8715 8.10396ZM21.0338 9.55441C21.0372 9.56309 21.041 9.57177 21.0449 9.58045L23.4647 14.8971C24.0217 16.2546 24.012 17.5723 23.4359 18.8137C22.9929 19.7683 22.3639 20.3256 22.3595 20.3296C22.3478 20.3395 22.3366 20.3499 22.326 20.3609C21.2686 21.4182 20.1181 21.9475 18.906 21.9338C16.6824 21.9088 14.911 20.0828 14.8942 20.0652C14.8904 20.0612 14.8865 20.0573 14.8827 20.0535L9.75284 14.9236C9.54276 14.7136 9.54276 14.372 9.75284 14.162C9.96292 13.9519 10.3044 13.9519 10.5145 14.162L14.0811 17.7286C14.3232 17.9706 14.7158 17.9706 14.9581 17.7286C15.2005 17.4865 15.2002 17.0939 14.9581 16.8515L9.85577 11.7492C9.64024 11.5336 9.64024 11.1832 9.85577 10.9677C10.0549 10.7685 10.3699 10.7536 10.5865 10.9228L15.4408 15.7771C15.6829 16.0192 16.0755 16.0192 16.3178 15.7771C16.5599 15.535 16.5599 15.1424 16.3178 14.9001L11.5622 10.1445C11.5473 10.1259 11.5317 10.1077 11.5143 10.0906C11.4863 10.0626 11.4575 10.0363 11.428 10.0105L10.7449 9.32746C10.5349 9.11739 10.5349 8.77586 10.7449 8.56578C10.955 8.3557 11.2965 8.3557 11.5066 8.56578L12.2128 9.27191L17.0644 14.1235C17.3064 14.3656 17.6991 14.3656 17.9414 14.1235C18.1837 13.8814 18.1835 13.4888 17.9414 13.2465L13.0898 8.39489C12.8797 8.18481 12.8797 7.84328 13.0898 7.6332C13.2998 7.42313 13.6414 7.42313 13.8515 7.6332L20.2351 14.0169C20.4402 14.222 20.7602 14.2575 21.0055 14.1022C21.2505 13.9469 21.3552 13.6426 21.2575 13.3693L20.0427 9.97704C20.0399 9.9696 20.0372 9.96241 20.0345 9.95521C19.9239 9.67966 20.0583 9.36541 20.3338 9.25479C20.4673 9.20122 20.6139 9.20295 20.7461 9.2595C20.8783 9.31605 20.9807 9.42072 21.0343 9.55416L21.0338 9.55441Z" fill="#424242"/>
<path d="M7.90013 14.185L6.79443 15.0645L7.10794 16.4951L14.2446 23.1154L17.5203 23.258L21.451 21.3569L22.5544 18.8851L20.9683 14.185L18.7616 9.53007L17.3134 9.70245L17.0029 11.2888L17.4858 12.4265L15.7273 11.9436L14.2446 10.2885L11.2103 7.875L10.2494 8.64834L9.17572 8.90926L7.9346 9.25427L8.00356 10.5447L7.3138 11.8402L7.10794 12.7713L7.90013 14.185Z" fill="white"/>
<path d="M17.5948 9.08931C16.6888 9.45266 16.2448 10.483 16.6015 11.3905L16.8813 12.1718L12.4513 7.74179C11.7578 7.04831 10.6293 7.04831 9.93583 7.74179C9.77015 7.90747 9.64465 8.09795 9.55809 8.30133C8.90752 8.01933 8.12178 8.14334 7.591 8.67411C7.04287 9.22225 6.92828 10.0417 7.2465 10.7037C7.04882 10.7905 6.86355 10.9143 6.70184 11.076C6.0029 11.7749 6.0029 12.9124 6.70184 13.6113L7.0389 13.9484C6.88041 14.0302 6.7316 14.1374 6.5989 14.2701C5.90543 14.9635 5.90543 16.092 6.5989 16.7855L11.7241 21.9107C11.8776 22.0707 13.903 24.1233 16.6045 24.1591C18.1616 24.1796 19.611 23.5325 20.9129 22.2361C20.938 22.2135 20.9841 22.1709 21.0459 22.1091C21.3055 21.8494 21.8418 21.251 22.2587 20.3749C22.7776 19.2844 23.2111 17.5358 22.3304 15.3998C22.3277 15.3929 22.3247 15.3862 22.3215 15.3792L19.9022 10.0638C19.5319 9.16322 18.5004 8.72645 17.5951 9.08956L17.5948 9.08931ZM18.7571 10.5398C18.7606 10.5484 18.7643 10.5571 18.7683 10.5658L21.188 15.8825C21.745 17.2399 21.7354 18.5577 21.1592 19.799C20.7162 20.7537 20.0872 21.311 20.0828 21.315C20.0711 21.3249 20.06 21.3353 20.0493 21.3462C18.992 22.4035 17.8414 22.9328 16.6293 22.9192C14.4057 22.8941 12.6343 21.0682 12.6175 21.0506C12.6138 21.0466 12.6098 21.0426 12.6061 21.0389L7.47617 15.909C7.26609 15.6989 7.26609 15.3574 7.47617 15.1473C7.68625 14.9372 8.02778 14.9372 8.23785 15.1473L11.8045 18.7139C12.0465 18.956 12.4391 18.956 12.6815 18.7139C12.9238 18.4718 12.9235 18.0792 12.6815 17.8369L7.5791 12.7345C7.36357 12.519 7.36357 12.1685 7.5791 11.953C7.77826 11.7538 8.09326 11.739 8.30978 11.9081L13.1641 16.7625C13.4062 17.0045 13.7988 17.0045 14.0411 16.7625C14.2832 16.5204 14.2832 16.1278 14.0411 15.8854L9.28551 11.1298C9.27063 11.1112 9.255 11.0931 9.23764 11.076C9.20962 11.048 9.18085 11.0217 9.15133 10.9959L8.46827 10.3128C8.25819 10.1027 8.25819 9.76121 8.46827 9.55113C8.67835 9.34105 9.01988 9.34105 9.22995 9.55113L9.93608 10.2573L14.7877 15.1089C15.0298 15.3509 15.4224 15.3509 15.6647 15.1089C15.907 14.8668 15.9068 14.4742 15.6647 14.2319L10.8131 9.38024C10.603 9.17016 10.603 8.82863 10.8131 8.61856C11.0232 8.40848 11.3647 8.40848 11.5748 8.61856L17.9584 15.0022C18.1636 15.2073 18.4835 15.2428 18.7288 15.0875C18.9739 14.9323 19.0785 14.628 18.9808 14.3546L17.766 10.9624C17.7633 10.955 17.7605 10.9478 17.7578 10.9406C17.6472 10.665 17.7816 10.3508 18.0572 10.2401C18.1906 10.1866 18.3372 10.1883 18.4694 10.2449C18.6016 10.3014 18.704 10.4061 18.7576 10.5395L18.7571 10.5398Z" fill="#424242"/>
<path d="M4.13558 4.30582C3.87193 4.04217 3.44447 4.04217 3.18081 4.30582C2.91716 4.56947 2.91716 4.99694 3.18081 5.26059L5.31817 7.39794C5.58182 7.6616 6.00929 7.6616 6.27294 7.39794C6.53659 7.13429 6.53659 6.70683 6.27294 6.44318L4.13558 4.30582Z" fill="#424242"/>
<path d="M1.97027 8.46848C1.6076 8.38188 1.2434 8.60567 1.1568 8.96834C1.0702 9.331 1.294 9.6952 1.65666 9.7818L4.59669 10.4838C4.95935 10.5704 5.32355 10.3466 5.41015 9.98398C5.49675 9.62132 5.27295 9.25712 4.91029 9.17052L1.97027 8.46848Z" fill="#424242"/>
<path d="M8.68524 2.66359C8.6155 2.29731 8.26203 2.05692 7.89575 2.12666C7.52947 2.19639 7.28908 2.54986 7.35882 2.91614L7.92418 5.88548C7.99391 6.25176 8.34738 6.49215 8.71366 6.42241C9.07994 6.35267 9.32033 5.99921 9.2506 5.63293L8.68524 2.66359Z" fill="#424242"/>
</svg>
