<svg xmlns="http://www.w3.org/2000/svg" width="16" height="14" viewBox="0 0 16 14" fill="none">
  <g clip-path="url(#clip0_1002_5847)">
    <path d="M5.99148 6.60822L5.39648 7.07248L5.56532 7.82744L9.40557 11.3211L11.1683 11.3962L13.2836 10.3931L13.8773 9.08853L13.0237 6.60822L11.8363 4.15173L11.057 4.2427L10.89 5.07985L11.1497 5.68023L10.2034 5.42552L9.40557 4.55211L7.77273 3.27832L7.25581 3.68643L6.67804 3.82425L6.01003 4.00618L6.04714 4.68719L5.6761 5.37094L5.56532 5.86216L5.99148 6.60822Z" fill="white"/>
    <path d="M11.2068 3.91869C10.7192 4.11044 10.4803 4.65414 10.6722 5.13306L10.8228 5.54535L8.43894 3.20758C8.06576 2.84162 7.45849 2.84162 7.08531 3.20758C6.99616 3.29501 6.92862 3.39553 6.88204 3.50286C6.53196 3.35404 6.10913 3.41948 5.82351 3.69958C5.52855 3.98884 5.46689 4.42129 5.63813 4.77063C5.53176 4.81644 5.43206 4.88175 5.34503 4.96709C4.96892 5.33593 4.96892 5.93618 5.34503 6.30502L5.52642 6.4829C5.44113 6.52609 5.36105 6.58263 5.28965 6.65266C4.91647 7.01862 4.91647 7.61415 5.28965 7.98012L8.04761 10.6848C8.13023 10.7692 9.22012 11.8524 10.6738 11.8713C11.5118 11.8821 12.2917 11.5406 12.9923 10.8565C13.0058 10.8446 13.0306 10.8221 13.0638 10.7895C13.2036 10.6524 13.4921 10.3366 13.7165 9.87431C13.9957 9.2988 14.229 8.37605 13.7551 7.24885C13.7536 7.24518 13.752 7.24165 13.7503 7.23799L12.4484 4.43294C12.2492 3.95769 11.6941 3.7272 11.2069 3.91882L11.2068 3.91869ZM11.8322 4.68411C11.8341 4.6887 11.8361 4.69328 11.8382 4.69786L13.1403 7.50356C13.4401 8.2199 13.4349 8.9153 13.1248 9.57039C12.8865 10.0742 12.548 10.3683 12.5456 10.3704C12.5393 10.3756 12.5333 10.3811 12.5276 10.3869C11.9586 10.9448 11.3394 11.2242 10.6872 11.217C9.49066 11.2037 8.53744 10.2401 8.52836 10.2309C8.52636 10.2288 8.52422 10.2267 8.52222 10.2247L5.76172 7.51756C5.64867 7.4067 5.64867 7.22647 5.76172 7.11561C5.87477 7.00474 6.05855 7.00474 6.1716 7.11561L8.09085 8.99776C8.22112 9.12551 8.4324 9.12551 8.56279 8.99776C8.69319 8.87002 8.69306 8.66282 8.56279 8.53495L5.81711 5.84233C5.70113 5.72859 5.70113 5.54365 5.81711 5.42991C5.92428 5.32481 6.09379 5.31695 6.2103 5.40622L8.82252 7.96794C8.95278 8.09569 9.16406 8.09569 9.29446 7.96794C9.42472 7.8402 9.42472 7.633 9.29446 7.50513L6.73536 4.99549C6.72735 4.98568 6.71895 4.97612 6.7096 4.96709C6.69452 4.9523 6.67904 4.93843 6.66316 4.92482L6.29559 4.56435C6.18254 4.45349 6.18254 4.27326 6.29559 4.1624C6.40863 4.05154 6.59242 4.05154 6.70547 4.1624L7.08545 4.53503L9.6962 7.09532C9.82646 7.22306 10.0377 7.22306 10.1681 7.09532C10.2985 6.96757 10.2984 6.76038 10.1681 6.6325L7.55739 4.07222C7.44434 3.96136 7.44434 3.78112 7.55739 3.67026C7.67043 3.5594 7.85422 3.5594 7.96726 3.67026L11.4024 7.03904C11.5128 7.14728 11.685 7.166 11.817 7.08406C11.9489 7.00213 12.0052 6.84153 11.9526 6.69729L11.2989 4.90715C11.2974 4.90322 11.2959 4.89942 11.2945 4.89563C11.2349 4.75021 11.3073 4.58438 11.4556 4.526C11.5274 4.49773 11.6062 4.49865 11.6774 4.52849C11.7485 4.55833 11.8036 4.61357 11.8325 4.68398L11.8322 4.68411Z" fill="#A6A6A6"/>
    <path d="M4.76492 7.12873L4.16992 7.59285L4.33862 8.34781L8.17901 11.8415L9.94171 11.9167L12.0569 10.9135L12.6507 9.60904L11.7972 7.12873L10.6097 4.67224L9.8304 4.76321L9.6633 5.60036L9.92316 6.20074L8.97687 5.9459L8.17901 5.07249L6.54617 3.79883L6.02912 4.20693L5.45134 4.34463L4.78347 4.52669L4.82057 5.2077L4.4494 5.89132L4.33862 6.38267L4.76492 7.12873Z" fill="white"/>
    <path d="M9.98217 4.43968C9.49461 4.63143 9.25571 5.17514 9.44763 5.65405L9.59818 6.06635L7.21433 3.72857C6.84115 3.36261 6.23388 3.36261 5.8607 3.72857C5.77155 3.816 5.70401 3.91653 5.65743 4.02385C5.30735 3.87503 4.88453 3.94048 4.59891 4.22058C4.30394 4.50984 4.24228 4.94229 4.41352 5.29163C4.30715 5.33744 4.20745 5.40275 4.12043 5.48809C3.74432 5.85693 3.74432 6.45718 4.12043 6.82602L4.30181 7.00389C4.21652 7.04709 4.13644 7.10363 4.06504 7.17365C3.69186 7.53961 3.69186 8.13515 4.06504 8.50111L6.823 11.2058C6.90562 11.2902 7.99551 12.3734 9.44923 12.3923C10.2871 12.4031 11.0671 12.0616 11.7677 11.3775C11.7812 11.3656 11.806 11.3431 11.8392 11.3105C11.979 11.1734 12.2675 10.8576 12.4919 10.3953C12.7711 9.8198 13.0044 8.89705 12.5305 7.76985C12.529 7.76618 12.5274 7.76265 12.5257 7.75898L11.2238 4.95394C11.0245 4.47869 10.4695 4.24819 9.9823 4.43981L9.98217 4.43968ZM10.6076 5.20511C10.6095 5.20969 10.6115 5.21427 10.6136 5.21885L11.9157 8.02455C12.2155 8.7409 12.2103 9.4363 11.9002 10.0914C11.6619 10.5952 11.3234 10.8893 11.321 10.8914C11.3147 10.8966 11.3087 10.9021 11.303 10.9079C10.734 11.4658 10.1148 11.7452 9.46258 11.738C8.26605 11.7247 7.31283 10.7611 7.30375 10.7518C7.30175 10.7498 7.29961 10.7477 7.29761 10.7457L4.53711 8.03856C4.42406 7.9277 4.42406 7.74746 4.53711 7.6366C4.65016 7.52574 4.83394 7.52574 4.94699 7.6366L6.86625 9.51876C6.99651 9.64651 7.20779 9.64651 7.33818 9.51876C7.46858 9.39101 7.46845 9.18382 7.33818 9.05594L4.5925 6.36333C4.47652 6.24959 4.47652 6.06465 4.5925 5.95091C4.69967 5.8458 4.86918 5.83795 4.98569 5.92722L7.59791 8.48894C7.72818 8.61668 7.93945 8.61668 8.06985 8.48894C8.20012 8.36119 8.20012 8.154 8.06985 8.02612L5.51075 5.51649C5.50274 5.50667 5.49434 5.49712 5.48499 5.48809C5.46991 5.4733 5.45443 5.45942 5.43855 5.44581L5.07098 5.08535C4.95793 4.97449 4.95793 4.79426 5.07098 4.68339C5.18403 4.57253 5.36781 4.57253 5.48086 4.68339L5.86084 5.05603L8.47159 7.61631C8.60185 7.74406 8.81313 7.74406 8.94353 7.61631C9.07392 7.48857 9.07379 7.28137 8.94353 7.1535L6.33278 4.59321C6.21973 4.48235 6.21973 4.30212 6.33278 4.19126C6.44582 4.0804 6.62961 4.0804 6.74265 4.19126L10.1778 7.56003C10.2882 7.66828 10.4604 7.68699 10.5924 7.60506C10.7242 7.52312 10.7806 7.36252 10.728 7.21829L10.0743 5.42814C10.0728 5.42422 10.0713 5.42042 10.0699 5.41662C10.0103 5.27121 10.0827 5.10537 10.231 5.047C10.3028 5.01873 10.3816 5.01964 10.4528 5.04949C10.5239 5.07933 10.579 5.13456 10.6079 5.20498L10.6076 5.20511Z" fill="#A6A6A6"/>
    <path d="M2.73942 1.91409C2.59754 1.77496 2.36752 1.77496 2.22564 1.91409C2.08376 2.05323 2.08376 2.27881 2.22564 2.41794L3.37579 3.54586C3.51767 3.685 3.7477 3.685 3.88957 3.54586C4.03145 3.40673 4.03145 3.18115 3.88957 3.04201L2.73942 1.91409Z" fill="#A6A6A6"/>
    <path d="M1.57485 4.11039C1.3797 4.06469 1.18371 4.18279 1.13711 4.37417C1.09051 4.56556 1.21094 4.75775 1.4061 4.80345L2.98818 5.17393C3.18334 5.21963 3.37932 5.10153 3.42592 4.91014C3.47252 4.71876 3.3521 4.52656 3.15694 4.48086L1.57485 4.11039Z" fill="#A6A6A6"/>
    <path d="M5.18797 1.04679C5.15045 0.853499 4.96024 0.726638 4.76314 0.763441C4.56603 0.800244 4.43667 0.986773 4.4742 1.18007L4.77843 2.74704C4.81596 2.94033 5.00616 3.06719 5.20327 3.03039C5.40037 2.99359 5.52973 2.80706 5.4922 2.61376L5.18797 1.04679Z" fill="#A6A6A6"/>
  </g>
  <defs>
    <clipPath id="clip0_1002_5847">
      <rect width="14.6667" height="13.3333" fill="white" transform="translate(0.666016 0.333496)"/>
    </clipPath>
  </defs>
</svg>