<svg xmlns="http://www.w3.org/2000/svg" width="20" height="20" viewBox="0 0 20 20" fill="none">
  <path d="M12.7077 11.2493H9.37435C9.02935 11.2493 8.74935 10.9693 8.74935 10.6243V5.62435C8.74935 5.27935 9.02935 4.99935 9.37435 4.99935C9.71935 4.99935 9.99935 5.27935 9.99935 5.62435V9.99935H12.7077C13.0527 9.99935 13.3327 10.2793 13.3327 10.6243C13.3327 10.9693 13.0527 11.2493 12.7077 11.2493ZM9.99935 1.66602C5.39768 1.66602 1.66602 5.39768 1.66602 9.99935C1.66602 14.601 5.39768 18.3327 9.99935 18.3327C14.601 18.3327 18.3327 14.601 18.3327 9.99935C18.3327 5.39768 14.601 1.66602 9.99935 1.66602Z" fill="#424242"/>
</svg>