<svg xmlns="http://www.w3.org/2000/svg" width="12" height="12" viewBox="0 0 12 12" fill="none">
  <path d="M2.625 9C1.72754 9 1 8.27245 1 7.375V3.125C1 2.22754 1.72754 1.5 2.625 1.5H9.375C10.2725 1.5 11 2.22754 11 3.125V7.375C11 8.27245 10.2725 9 9.375 9H6.50625L3.99934 10.8753C3.72293 11.0821 3.33125 11.0256 3.12451 10.7492C3.04368 10.6411 3 10.5098 3 10.375L2.99961 9H2.625ZM6.25675 8.25H9.375C9.85825 8.25 10.25 7.85825 10.25 7.375V3.125C10.25 2.64175 9.85825 2.25 9.375 2.25H2.625C2.14175 2.25 1.75 2.64175 1.75 3.125V7.375C1.75 7.85825 2.14175 8.25 2.625 8.25H3.7494L3.7495 8.6249L3.74993 10.1253L6.25675 8.25Z" fill="#121212"/>
</svg>