<svg xmlns="http://www.w3.org/2000/svg" width="24" height="24" viewBox="0 0 24 24" fill="none">
  <path d="M20.2416 5.77772L20.8811 5.29702V5.29702L20.2416 5.77772ZM20.2416 16.2223L20.8811 16.703L20.2416 16.2223ZM19.0001 17.3259L18.5915 16.6381L18.5915 16.6381L19.0001 17.3259ZM14.25 17.9986L14.2469 17.1986C13.8063 17.2004 13.45 17.558 13.45 17.9986H14.25ZM14.25 18L14.9473 18.3922C15.0146 18.2725 15.05 18.1374 15.05 18H14.25ZM13.1621 19.934L12.4648 19.5418L13.1621 19.934ZM10.8379 19.934L10.1406 20.3263L10.8379 19.934ZM9.75 18H8.95C8.95 18.1374 8.98538 18.2725 9.05274 18.3922L9.75 18ZM9.75 17.9986H10.55C10.55 17.558 10.1937 17.2004 9.7531 17.1986L9.75 17.9986ZM4.99993 17.3259L5.40846 16.6381L5.40846 16.6381L4.99993 17.3259ZM3.75839 16.2223L4.39786 15.7416H4.39786L3.75839 16.2223ZM3.75839 5.77772L4.39786 6.25841L4.39786 6.25841L3.75839 5.77772ZM4.99993 4.67412L4.59141 3.98629L4.59141 3.98629L4.99993 4.67412ZM19.0001 4.67412L18.5915 5.36195V5.36195L19.0001 4.67412ZM21.8 11C21.8 9.61423 21.8012 8.50723 21.7 7.62289C21.5967 6.7198 21.3787 5.95901 20.8811 5.29702L19.6021 6.25841C19.8629 6.60533 20.0241 7.05121 20.1104 7.80481C20.1988 8.57716 20.2 9.57685 20.2 11L21.8 11ZM20.8811 16.703C21.3787 16.041 21.5967 15.2802 21.7 14.3771C21.8012 13.4928 21.8 12.3858 21.8 11L20.2 11C20.2 12.4232 20.1988 13.4228 20.1104 14.1952C20.0241 14.9488 19.8629 15.3947 19.6021 15.7416L20.8811 16.703ZM19.4086 18.0137C19.9855 17.6711 20.4872 17.227 20.8811 16.703L19.6021 15.7416C19.3394 16.0911 18.9973 16.397 18.5915 16.6381L19.4086 18.0137ZM14.2531 18.7986C15.4634 18.7939 16.4476 18.7735 17.2611 18.6736C18.084 18.5725 18.7839 18.3847 19.4086 18.0137L18.5915 16.6381C18.2247 16.8559 17.7633 16.9998 17.0659 17.0855C16.3591 17.1724 15.464 17.1939 14.2469 17.1986L14.2531 18.7986ZM15.05 18V17.9986H13.45V18H15.05ZM13.8594 20.3263L14.9473 18.3922L13.5527 17.6078L12.4648 19.5418L13.8594 20.3263ZM10.1406 20.3263C10.9562 21.7762 13.0438 21.7762 13.8594 20.3263L12.4648 19.5418C12.2609 19.9043 11.7391 19.9043 11.5352 19.5418L10.1406 20.3263ZM9.05274 18.3922L10.1406 20.3263L11.5352 19.5418L10.4473 17.6078L9.05274 18.3922ZM8.95 17.9986V18H10.55V17.9986H8.95ZM4.59141 18.0137C5.2161 18.3847 5.91602 18.5725 6.73894 18.6736C7.55239 18.7735 8.53663 18.7939 9.7469 18.7986L9.7531 17.1986C8.53596 17.1939 7.64092 17.1724 6.93407 17.0855C6.23669 16.9998 5.77529 16.8559 5.40846 16.6381L4.59141 18.0137ZM3.11891 16.703C3.51282 17.227 4.01448 17.671 4.59141 18.0137L5.40846 16.6381C5.00267 16.397 4.66058 16.0911 4.39786 15.7416L3.11891 16.703ZM2.2 11C2.2 12.3858 2.19878 13.4928 2.29999 14.3771C2.40334 15.2802 2.6213 16.041 3.11891 16.703L4.39786 15.7416C4.13709 15.3947 3.97585 14.9488 3.88961 14.1952C3.80122 13.4228 3.8 12.4232 3.8 11H2.2ZM3.11891 5.29702C2.6213 5.95901 2.40334 6.7198 2.29999 7.62289C2.19878 8.50723 2.2 9.61423 2.2 11H3.8C3.8 9.57685 3.80122 8.57716 3.88961 7.80481C3.97585 7.05121 4.13709 6.60533 4.39786 6.25841L3.11891 5.29702ZM4.59141 3.98629C4.01448 4.32895 3.51282 4.773 3.11891 5.29702L4.39786 6.25841C4.66058 5.90892 5.00267 5.60296 5.40846 5.36195L4.59141 3.98629ZM10.875 3.2C9.3098 3.2 8.08234 3.19923 7.10603 3.28752C6.12051 3.37663 5.30595 3.5619 4.59141 3.98629L5.40846 5.36195C5.82892 5.11222 6.37187 4.96043 7.25012 4.88101C8.13759 4.80077 9.28016 4.8 10.875 4.8V3.2ZM13.125 3.2L10.875 3.2V4.8H13.125V3.2ZM19.4086 3.98629C18.694 3.5619 17.8795 3.37663 16.894 3.28752C15.9177 3.19923 14.6902 3.2 13.125 3.2V4.8C14.7198 4.8 15.8624 4.80077 16.7499 4.88101C17.6281 4.96043 18.1711 5.11222 18.5915 5.36195L19.4086 3.98629ZM20.8811 5.29702C20.4872 4.773 19.9855 4.32895 19.4086 3.98629L18.5915 5.36195C18.9973 5.60296 19.3394 5.90892 19.6021 6.25842L20.8811 5.29702Z" fill="#5276FA"/>
  <circle cx="16" cy="11" r="1" fill="#5276FA" stroke="#5276FA" stroke-width="0.266667" stroke-linecap="round"/>
  <circle cx="12" cy="11" r="1" fill="#5276FA" stroke="#5276FA" stroke-width="0.266667" stroke-linecap="round"/>
  <circle cx="8" cy="11" r="1" fill="#5276FA" stroke="#5276FA" stroke-width="0.266667" stroke-linecap="round"/>
</svg>