<svg width="30" height="30" viewBox="0 0 30 30" fill="none" xmlns="http://www.w3.org/2000/svg">
<path d="M11.875 3.75C6.69733 3.75 2.5 7.94733 2.5 13.125C2.5 14.5419 2.81491 15.8875 3.3792 17.0936C3.00155 18.625 2.67442 20.2606 2.52717 21.0216C2.36055 21.8829 3.10918 22.6374 3.96868 22.4844C4.74781 22.3456 6.44144 22.0334 8.01429 21.6704C9.19265 22.2035 10.5003 22.5 11.875 22.5C17.0526 22.5 21.25 18.3026 21.25 13.125C21.25 7.94733 17.0526 3.75 11.875 3.75ZM8.86321 9.24555C9.19279 8.63765 9.62806 8.17889 10.18 7.88404C10.7226 7.59419 11.3064 7.50095 11.8748 7.50091C12.5329 7.50088 13.2971 7.71704 13.9144 8.22286C14.5606 8.7524 14.9999 9.56482 14.9999 10.625C14.9999 11.8432 14.139 12.5046 13.6536 12.8775C13.616 12.9064 13.5804 12.9338 13.5479 12.9594C13.0171 13.3765 12.8124 13.5994 12.8124 14.0625C12.8124 14.5803 12.3926 15 11.8749 15C11.3571 15 10.9374 14.5803 10.9374 14.0625C10.9374 12.645 11.8264 11.9274 12.3894 11.4851C13.031 10.9809 13.1249 10.8685 13.1249 10.625C13.1249 10.1287 12.9391 9.84781 12.726 9.67316C12.4839 9.47481 12.1544 9.3759 11.8749 9.37591C11.5059 9.37594 11.2522 9.43703 11.0635 9.53784C10.8842 9.63363 10.6945 9.80183 10.5115 10.1392C10.2648 10.5944 9.69571 10.7633 9.24055 10.5166C8.78537 10.2698 8.61644 9.70073 8.86321 9.24555ZM11.8751 16.25C12.5655 16.25 13.1251 16.8096 13.1251 17.5001C13.1251 18.1905 12.5655 18.7501 11.8751 18.7501C11.1847 18.7501 10.625 18.1905 10.625 17.5001C10.625 16.8096 11.1847 16.25 11.8751 16.25ZM11.7505 23.7489C13.4232 25.3007 15.6634 26.2496 18.1251 26.2496C19.4995 26.2496 20.8069 25.9532 21.985 25.4204C23.2897 25.7257 24.7179 26.0305 25.6267 26.2205C26.7424 26.4536 27.7166 25.4524 27.4611 24.3462C27.258 23.467 26.9376 22.1021 26.6214 20.8421C27.1854 19.6363 27.5001 18.291 27.5001 16.8746C27.5001 12.771 24.8635 9.28309 21.1919 8.0127C21.6298 8.80899 21.9684 9.66749 22.1914 10.5716C24.2576 11.9073 25.6251 14.2312 25.6251 16.8746C25.6251 18.1139 25.3253 19.2804 24.795 20.3081L24.6319 20.6244L24.7195 20.9693C25.0044 22.0885 25.3028 23.3442 25.5214 24.2824C24.5539 24.0777 23.2494 23.7946 22.0975 23.5204L21.7669 23.4418L21.4625 23.5932C20.4585 24.093 19.326 24.3746 18.1251 24.3746C16.8006 24.3746 15.5564 24.0314 14.4765 23.4289C13.644 23.6384 12.7726 23.7496 11.8751 23.7496C11.8335 23.7496 11.792 23.7494 11.7505 23.7489Z" fill="#727272"/>
</svg>
