<svg width="32" height="32" viewBox="0 0 32 32" fill="none" xmlns="http://www.w3.org/2000/svg">
<path d="M6.6665 12.0001C6.6665 6.84543 10.8452 2.66675 15.9998 2.66675C21.1545 2.66675 25.3332 6.84543 25.3332 12.0001V18.6667C25.3332 20.1395 24.1393 21.3334 22.6665 21.3334H19.9998C19.2634 21.3334 18.6665 20.7365 18.6665 20.0001V14.6667C18.6665 13.9303 19.2634 13.3334 19.9998 13.3334H23.3332V12.0001C23.3332 7.94999 20.05 4.66675 15.9998 4.66675C11.9497 4.66675 8.6665 7.94999 8.6665 12.0001V13.3334H11.9998C12.7362 13.3334 13.3332 13.9303 13.3332 14.6667V20.0001C13.3332 20.7365 12.7362 21.3334 11.9998 21.3334H9.33317C9.10296 21.3334 8.87957 21.3042 8.66648 21.2494L8.6665 21.6667C8.6665 23.2546 9.90005 24.5542 11.4611 24.6598L11.6665 24.6667L13.1702 24.6678C13.5817 23.5021 14.6932 22.6667 15.9998 22.6667C17.6566 22.6667 18.9998 24.0099 18.9998 25.6667C18.9998 27.3235 17.6566 28.6667 15.9998 28.6667C14.6937 28.6667 13.5826 27.8321 13.1707 26.6671L11.6665 26.6667C8.99416 26.6667 6.81148 24.5702 6.67344 21.9323L6.6665 21.6667V12.0001Z" fill="#727272"/>
</svg>
