<svg width="30" height="30" viewBox="0 0 30 30" fill="none" xmlns="http://www.w3.org/2000/svg">
<path d="M17.7434 3.1288C16.8478 2.92908 15.9339 2.82308 15.0165 2.8125C14.0761 2.82331 13.1614 2.92927 12.2647 3.12867C11.8736 3.21567 11.5809 3.54169 11.5365 3.93995L11.3239 5.84705C11.2628 6.39277 10.9463 6.87761 10.4709 7.15336C9.99348 7.43231 9.41443 7.4657 8.91075 7.24465L7.16028 6.4757C6.79614 6.31574 6.37072 6.40295 6.09888 6.69327C4.83365 8.04455 3.89138 9.66519 3.34293 11.4332C3.22459 11.8147 3.36097 12.2293 3.68268 12.4661L5.23587 13.6091C5.67912 13.9347 5.94057 14.4512 5.94057 15.0006C5.94057 15.5499 5.67912 16.0664 5.23644 16.3916L3.68228 17.5366C3.36105 17.7732 3.2248 18.1874 3.34273 18.5685C3.89022 20.3381 4.832 21.9606 6.0972 23.3136C6.36877 23.6041 6.794 23.6916 7.15819 23.532L8.91648 22.7618C9.41773 22.5429 9.99437 22.575 10.4693 22.8487C10.9442 23.1225 11.2609 23.6054 11.3229 24.15L11.534 26.0555C11.5775 26.449 11.8636 26.7728 12.2488 26.8644C12.8158 26.9993 13.3901 27.0919 13.9673 27.1424L14.5193 25.3296C14.0261 24.2805 13.7509 23.1092 13.7509 21.8765C13.7509 20.7499 13.9801 19.6766 14.3946 18.7013C12.6118 18.4114 11.2508 16.8646 11.2508 15C11.2508 12.9289 12.9298 11.2499 15.0009 11.2499C16.8655 11.2499 18.4124 12.6109 18.7021 14.3938C19.6775 13.9793 20.7506 13.75 21.8773 13.75C22.7235 13.75 23.5396 13.8794 24.3068 14.1194C24.4236 13.9222 24.5801 13.7476 24.7699 13.6082L26.3216 12.4644C26.643 12.2275 26.7791 11.8132 26.6609 11.432C26.1124 9.66394 25.1701 8.0433 23.9049 6.69203C23.633 6.4017 23.2076 6.31449 22.8435 6.47445L21.0928 7.24354C20.8736 7.34047 20.6391 7.38985 20.402 7.38948C19.5199 7.38855 18.78 6.72483 18.6838 5.84851L18.471 3.93995C18.4266 3.54189 18.1343 3.21599 17.7434 3.1288ZM24.1051 15.3691C23.5004 15.1621 22.8576 15.037 22.1901 15.007C22.0861 15.0024 21.9815 15 21.8764 15C18.0786 15 15 18.0787 15 21.8765C15 23.0865 15.3125 24.2234 15.8611 25.211L15.0289 27.9441C14.8833 28.4226 15.3305 28.8699 15.8089 28.7244L18.5429 27.8924C19.5303 28.4407 20.6669 28.753 21.8764 28.753C25.6741 28.753 28.7529 25.6744 28.7529 21.8765C28.7529 18.8587 26.809 16.295 24.1051 15.3691ZM19.3761 22.5016H21.8764C22.2216 22.5016 22.5015 22.7815 22.5015 23.1267C22.5015 23.472 22.2216 23.7519 21.8764 23.7519H19.3759C19.1751 23.7519 18.9966 23.6571 18.8823 23.5101C18.8 23.4042 18.751 23.2712 18.751 23.1267C18.751 22.7815 19.0309 22.5016 19.3761 22.5016ZM24.3769 21.2514H19.3759C19.1958 21.2513 19.0335 21.175 18.9195 21.0531C18.8149 20.9414 18.7508 20.7914 18.7508 20.6262C18.7508 20.281 19.0306 20.0011 19.3759 20.0011H24.3769C24.7221 20.0011 25.002 20.281 25.002 20.6262C25.002 20.9715 24.7221 21.2514 24.3769 21.2514Z" fill="#727272"/>
</svg>
