<svg xmlns="http://www.w3.org/2000/svg" width="33" height="32" viewBox="0 0 33 32" fill="none">
  <path d="M18.1666 2.66699H22.4132C23.0919 2.66699 23.7559 2.85499 24.3332 3.21099L28.0239 5.48166C28.1694 5.57118 28.2896 5.6965 28.3729 5.84565C28.4562 5.9948 28.4999 6.16281 28.4999 6.33366V8.33366C28.4999 9.12931 28.1838 9.89237 27.6212 10.455C27.0586 11.0176 26.2955 11.3337 25.4999 11.3337H25.1666V23.3963C26.4959 23.575 27.4266 24.1363 27.9599 25.0963C28.2572 25.6337 28.3839 26.2163 28.4426 26.7537C28.4999 27.275 28.4999 27.8203 28.4999 28.3003V28.3337C28.4999 28.5989 28.3945 28.8532 28.207 29.0408C28.0195 29.2283 27.7651 29.3337 27.4999 29.3337H8.27722C7.15845 29.3346 6.07026 28.9685 5.17966 28.2914C4.28906 27.6142 3.64525 26.6636 3.34703 25.5853C3.0488 24.507 3.11265 23.3606 3.52876 22.3221C3.94488 21.2836 4.69027 20.4104 5.65055 19.8363C5.87811 19.6998 6.15057 19.6593 6.40799 19.7237C6.66542 19.7881 6.88672 19.9521 7.02322 20.1797C7.15972 20.4072 7.20023 20.6797 7.13584 20.9371C7.07146 21.1945 6.90744 21.4158 6.67989 21.5523C6.09518 21.9015 5.64122 22.4329 5.3877 23.065C5.13419 23.6971 5.09511 24.395 5.27648 25.0514C5.45785 25.7079 5.84964 26.2866 6.39171 26.6989C6.93379 27.1112 7.59618 27.3342 8.27722 27.3337C8.70255 27.3337 8.96655 27.223 9.14255 27.099C9.32789 26.9683 9.47322 26.7817 9.58389 26.5563C9.72446 26.2682 9.80907 25.956 9.83322 25.6363V25.5897L9.83855 25.399C9.87736 24.4194 9.99327 23.4444 10.1852 22.483C10.5319 20.7617 11.2479 18.5257 12.7879 16.9643C13.9186 15.8177 14.5332 14.139 14.8506 12.479C15.1666 10.8403 15.1666 9.34433 15.1666 8.66699V5.66699C15.1666 4.87134 15.4826 4.10828 16.0452 3.54567C16.6078 2.98306 17.3709 2.66699 18.1666 2.66699ZM11.8332 25.7017V25.7097L11.8319 25.723L11.8292 25.7603L11.8199 25.8803C11.7691 26.3827 11.6372 26.8735 11.4292 27.3337H21.0959C20.9759 26.675 20.6426 25.9923 19.7452 25.5737L19.7012 25.5523C19.5092 25.4735 19.3074 25.4215 19.1012 25.3977C18.7918 25.3513 18.4794 25.3268 18.1666 25.3243L17.7892 25.3297L17.6012 25.3323H17.5212C17.3874 25.339 17.2536 25.3188 17.1278 25.2728C17.002 25.2268 16.8867 25.156 16.7888 25.0646C16.6909 24.9732 16.6123 24.863 16.5578 24.7406C16.5032 24.6183 16.4739 24.4862 16.4714 24.3523C16.4689 24.2183 16.4933 24.0852 16.5432 23.9609C16.5931 23.8366 16.6675 23.7236 16.762 23.6286C16.8564 23.5336 16.969 23.4585 17.093 23.4079C17.217 23.3572 17.3499 23.332 17.4839 23.3337L17.5666 23.3323L17.7572 23.3297L18.1666 23.3243C18.4799 23.3243 18.8266 23.3457 19.1666 23.387V20.3377C19.1666 20.0724 19.2719 19.8181 19.4594 19.6306C19.647 19.443 19.9013 19.3377 20.1666 19.3377C20.4318 19.3377 20.6861 19.443 20.8737 19.6306C21.0612 19.8181 21.1666 20.0724 21.1666 20.3377V24.0763C22.5866 24.9857 22.9986 26.347 23.1172 27.3337H26.4826C26.4765 27.2134 26.4671 27.0934 26.4546 26.9737C26.4106 26.5723 26.3292 26.2803 26.2106 26.067C26.0372 25.755 25.6332 25.3337 24.1666 25.3337C23.9013 25.3337 23.647 25.2283 23.4594 25.0408C23.2719 24.8532 23.1666 24.5989 23.1666 24.3337V10.3337C23.1666 10.0684 23.2719 9.81409 23.4594 9.62655C23.647 9.43902 23.9013 9.33366 24.1666 9.33366H25.4999C25.7651 9.33366 26.0195 9.2283 26.207 9.04077C26.3945 8.85323 26.4999 8.59888 26.4999 8.33366V6.89366L23.2852 4.91366C23.0229 4.75248 22.7211 4.6671 22.4132 4.66699H18.1652C17.9002 4.66735 17.6462 4.77286 17.459 4.96036C17.2717 5.14785 17.1666 5.40201 17.1666 5.66699V8.64299C17.174 8.91257 17.2701 9.17218 17.4399 9.38166C17.5746 9.53366 17.7866 9.66699 18.1666 9.66699C18.5492 9.66699 18.7706 9.53233 18.9079 9.37499C19.0841 9.15608 19.1759 8.88119 19.1666 8.60033C19.1666 8.33511 19.2719 8.08076 19.4594 7.89322C19.647 7.70568 19.9013 7.60033 20.1666 7.60033C20.4318 7.60033 20.6861 7.70568 20.8737 7.89322C21.0612 8.08076 21.1666 8.33511 21.1666 8.60033C21.1666 9.33899 20.9306 10.1003 20.4119 10.6923C19.8786 11.3017 19.0999 11.667 18.1666 11.667C17.7488 11.6652 17.3688 11.5968 17.0266 11.4617C16.9739 11.9286 16.9036 12.3934 16.8159 12.855C16.4666 14.6763 15.7479 16.8123 14.2119 18.3697C13.0852 19.511 12.4679 21.2763 12.1466 22.8763C11.9691 23.7821 11.8644 24.7006 11.8332 25.623V25.7017Z" fill="#A6A6A6"/>
</svg>