<svg xmlns="http://www.w3.org/2000/svg" width="26" height="26" viewBox="0 0 26 26" fill="none">
  <g clip-path="url(#clip0_123_6417)">
    <circle cx="13" cy="13" r="13" fill="#5276FA"/>
    <path d="M12.7513 6.93359C11.4529 6.93359 10.4004 7.98613 10.4004 9.2845C10.4004 11.0551 11.1329 13.2589 11.5001 14.258C11.6959 14.7908 12.2033 15.1216 12.7526 15.1216C13.3005 15.1216 13.8072 14.7925 14.0035 14.261C14.3711 13.2664 15.1022 11.0739 15.1022 9.2845C15.1022 7.98613 14.0497 6.93359 12.7513 6.93359ZM12.7517 16.0324C11.9138 16.0324 11.2345 16.7118 11.2345 17.5497C11.2345 18.3876 11.9138 19.0669 12.7517 19.0669C13.5897 19.0669 14.269 18.3876 14.269 17.5497C14.269 16.7118 13.5897 16.0324 12.7517 16.0324Z" fill="white"/>
  </g>
  <defs>
    <clipPath id="clip0_123_6417">
      <rect width="26" height="26" fill="white"/>
    </clipPath>
  </defs>
</svg>