<svg xmlns="http://www.w3.org/2000/svg" width="20" height="20" viewBox="0 0 20 20" fill="none">
  <path fill-rule="evenodd" clip-rule="evenodd" d="M19.5999 10.2271C19.5999 9.51798 19.5362 8.83618 19.418 8.18164H10V12.0498H15.3817C15.1499 13.2997 14.4454 14.3588 13.3863 15.0679V17.577H16.6181C18.509 15.8361 19.5999 13.2725 19.5999 10.2271Z" fill="#4285F4"/>
  <path fill-rule="evenodd" clip-rule="evenodd" d="M9.99983 19.9995C12.6998 19.9995 14.9634 19.1041 16.6179 17.5768L13.3861 15.0678C12.4907 15.6678 11.3453 16.0223 9.99983 16.0223C7.39532 16.0223 5.19081 14.2633 4.40446 11.8997H1.0636V14.4905C2.70903 17.7587 6.09079 19.9995 9.99983 19.9995Z" fill="#34A853"/>
  <path fill-rule="evenodd" clip-rule="evenodd" d="M4.40448 11.9C4.20448 11.3 4.09085 10.6591 4.09085 10C4.09085 9.34091 4.20448 8.70002 4.40448 8.10002V5.50916H1.06362C0.386358 6.85913 0 8.38638 0 10C0 11.6136 0.386358 13.1409 1.06362 14.4908L4.40448 11.9Z" fill="#FBBC05"/>
  <path fill-rule="evenodd" clip-rule="evenodd" d="M9.99983 3.97721C11.468 3.97721 12.7861 4.48175 13.8225 5.47264L16.6906 2.60451C14.9588 0.990894 12.6952 0 9.99983 0C6.0908 0 2.70903 2.24088 1.0636 5.50901L4.40446 8.09988C5.19081 5.73628 7.39532 3.97721 9.99983 3.97721Z" fill="#EA4335"/>
</svg>