<svg xmlns="http://www.w3.org/2000/svg" width="24" height="25" viewBox="0 0 24 25" fill="none">
  <path d="M4.2097 4.77968L4.29289 4.68547C4.65338 4.32499 5.22061 4.29726 5.6129 4.60228L5.70711 4.68547L12 10.9776L18.2929 4.68547C18.6834 4.29495 19.3166 4.29495 19.7071 4.68547C20.0976 5.076 20.0976 5.70916 19.7071 6.09969L13.415 12.3926L19.7071 18.6855C20.0676 19.046 20.0953 19.6132 19.7903 20.0055L19.7071 20.0997C19.3466 20.4602 18.7794 20.4879 18.3871 20.1829L18.2929 20.0997L12 13.8076L5.70711 20.0997C5.31658 20.4902 4.68342 20.4902 4.29289 20.0997C3.90237 19.7092 3.90237 19.076 4.29289 18.6855L10.585 12.3926L4.29289 6.09969C3.93241 5.7392 3.90468 5.17197 4.2097 4.77968Z" fill="#727272"/>
</svg>