<svg width="30" height="30" viewBox="0 0 30 30" fill="none" xmlns="http://www.w3.org/2000/svg">
<path d="M16.6512 4.64189C15.6367 3.78604 14.1531 3.78604 13.1387 4.64189L4.96742 11.5354C4.35398 12.0529 4 12.8146 4 13.6172V24.8815C4 26.0515 4.94846 27 6.11846 27H9.7501C10.9201 27 11.8686 26.0515 11.8686 24.8815V20.0362C11.8686 19.2139 12.5244 18.5448 13.3417 18.5235H16.4482C17.2654 18.5448 17.9213 19.2139 17.9213 20.0362V24.8815C17.9213 26.0515 18.8698 27 20.0398 27H23.6714C24.8414 27 25.7899 26.0515 25.7899 24.8815V13.6172C25.7899 12.8146 25.4359 12.0529 24.8224 11.5354L16.6512 4.64189Z" fill="#ADADAD"/>
</svg>
