<svg width="30" height="30" viewBox="0 0 30 30" fill="none" xmlns="http://www.w3.org/2000/svg">
<path d="M15.1221 17.6139L15.0224 17.6986L6.76559 25.804C7.35584 26.1679 8.05112 26.3778 8.79542 26.3778H22.5018C23.2461 26.3778 23.9413 26.1679 24.5317 25.804L16.2748 17.6986L16.1635 17.6056C15.8518 17.3855 15.431 17.3883 15.1221 17.6139ZM26.3754 8.79786C26.3754 6.65856 24.6411 4.92432 22.5018 4.92432H8.79542C6.65612 4.92432 4.92188 6.65856 4.92188 8.79786V22.5043C4.92188 23.2517 5.13353 23.9495 5.50017 24.5414L13.77 16.4228L13.9314 16.2765C14.9265 15.4452 16.3816 15.4476 17.3741 16.2835L17.5272 16.4228L25.7971 24.5414C26.1637 23.9495 26.3754 23.2517 26.3754 22.5043V8.79786ZM19.5222 14.1612C18.2056 14.1612 17.1384 13.094 17.1384 11.7775C17.1384 10.461 18.2056 9.39379 19.5222 9.39379C20.8387 9.39379 21.9059 10.461 21.9059 11.7775C21.9059 13.094 20.8387 14.1612 19.5222 14.1612Z" fill="#D2D2D2"/>
</svg>
