<svg width="38" height="38" viewBox="0 0 38 38" fill="none" xmlns="http://www.w3.org/2000/svg">
<rect width="38.0001" height="38" rx="19" fill="#849FFF"/>
<path d="M18.3325 14.6698C18.3175 13.9906 17.7634 13.4443 17.0806 13.4443C16.3978 13.4443 15.8437 13.9906 15.8287 14.6698H15.8284V14.6775C15.8284 14.6843 15.8274 14.6909 15.8274 14.6976C15.8274 14.7043 15.8282 14.711 15.8284 14.7178V14.7994C15.2561 14.172 14.55 13.8582 13.7104 13.8582C13.1935 13.8582 12.7158 13.9574 12.2776 14.1558C11.8392 14.3543 11.4609 14.6263 11.1426 14.9725C10.8241 15.3186 10.5726 15.7249 10.3881 16.1907C10.2034 16.6568 10.1113 17.1621 10.1113 17.7065C10.1113 18.2509 10.1966 18.7287 10.3674 19.1669C10.538 19.6054 10.7779 19.9815 11.0873 20.2952C11.3963 20.609 11.7632 20.8536 12.1878 21.0288C12.6121 21.204 13.0783 21.2918 13.5859 21.2918C13.8165 21.2918 14.0289 21.2756 14.2227 21.2434C14.4165 21.2109 14.601 21.1579 14.7764 21.0842C14.9516 21.0105 15.1247 20.9159 15.2956 20.8003C15.4662 20.6851 15.6439 20.5396 15.8285 20.3643V21.0427C15.8285 21.5688 15.6876 21.9792 15.4062 22.2746C15.1246 22.5699 14.7211 22.7176 14.195 22.7176C13.5766 22.7176 13.1797 22.4823 13.0045 22.0116H10.1806C10.2543 22.3991 10.4021 22.7567 10.6235 23.0844C10.8451 23.4119 11.1288 23.6981 11.4749 23.9427C11.8209 24.1872 12.2245 24.3788 12.6861 24.5172C13.1474 24.6556 13.655 24.7249 14.2089 24.7249C14.6979 24.7249 15.1524 24.6695 15.5724 24.5587C15.9923 24.448 16.3684 24.2957 16.7006 24.1019C17.0329 23.9081 17.3167 23.6797 17.5519 23.4167C17.7872 23.1537 17.9603 22.87 18.0711 22.5654C18.1541 22.3253 18.2187 22.0485 18.2649 21.7348C18.3108 21.4209 18.3341 21.0658 18.3341 20.6689V14.6698H18.3328H18.3325ZM15.6672 18.2118C15.5793 18.4103 15.4641 18.5834 15.3211 18.7309C15.178 18.8786 15.0073 18.994 14.8089 19.077C14.6104 19.16 14.4005 19.2016 14.1791 19.2016C13.9577 19.2016 13.7337 19.1601 13.5353 19.077C13.3367 18.994 13.1661 18.8786 13.0231 18.7309C12.8799 18.5834 12.767 18.4104 12.684 18.2118C12.601 18.0134 12.5594 17.7988 12.5594 17.5681C12.5594 17.3374 12.6031 17.1389 12.6908 16.9452C12.7784 16.7514 12.8961 16.5831 13.0438 16.4399C13.1914 16.2969 13.3622 16.1817 13.556 16.0938C13.7498 16.0062 13.9575 15.9622 14.179 15.9622C14.4005 15.9622 14.5964 16.0038 14.7949 16.0869C14.9933 16.1699 15.1664 16.2854 15.314 16.4329C15.4615 16.5806 15.5792 16.7514 15.667 16.9452C15.7546 17.1389 15.7985 17.3514 15.7985 17.5819C15.7985 17.8123 15.7546 18.0134 15.667 18.2118H15.6672Z" fill="white"/>
<path d="M27.3515 16.0661C27.139 15.6002 26.8414 15.1988 26.4587 14.8618C26.0756 14.525 25.6233 14.262 25.1021 14.0728C24.5806 13.8837 24.0153 13.7891 23.4062 13.7891C22.7972 13.7891 22.2179 13.886 21.6967 14.0797C21.1752 14.2735 20.7253 14.5389 20.3469 14.8757C19.9684 15.2127 19.6732 15.6094 19.461 16.0661C19.2486 16.5229 19.1426 17.0143 19.1426 17.5404C19.1426 18.1219 19.2486 18.6502 19.461 19.1255C19.6732 19.6009 19.9663 20.0093 20.34 20.3506C20.7138 20.6921 21.1588 20.9551 21.6759 21.1396C22.1925 21.3241 22.7556 21.4165 23.3647 21.4165C23.9738 21.4165 24.5574 21.3242 25.0882 21.1396C25.6187 20.9551 26.0732 20.6946 26.4517 20.3575C26.83 20.0208 27.1276 19.6193 27.3446 19.1532C27.5613 18.6874 27.6699 18.1728 27.6699 17.6098C27.6699 17.0468 27.5636 16.5324 27.3515 16.0662V16.0661Z" fill="white"/>
<path d="M24.6048 15.8882L21.4863 16.9731C21.1276 17.0979 21.1466 17.6116 21.5135 17.7096L22.903 18.0808L23.2742 19.4703C23.3722 19.8373 23.8858 19.8563 24.0107 19.4975L25.0956 16.379C25.2015 16.0746 24.9092 15.7824 24.6049 15.8884L24.6048 15.8882Z" fill="#849FFF"/>
</svg>
