<svg xmlns="http://www.w3.org/2000/svg" width="30" height="31" viewBox="0 0 30 31" fill="none">
  <path d="M15 3.33984C19.0078 3.33984 19.4824 3.35742 21.0586 3.42773C22.5234 3.49219 23.3145 3.73828 23.8418 3.94336C24.5391 4.21289 25.043 4.54102 25.5645 5.0625C26.0918 5.58984 26.4141 6.08789 26.6836 6.78516C26.8887 7.3125 27.1348 8.10937 27.1992 9.56836C27.2695 11.1504 27.2871 11.625 27.2871 15.627C27.2871 19.6348 27.2695 20.1094 27.1992 21.6855C27.1348 23.1504 26.8887 23.9414 26.6836 24.4688C26.4141 25.166 26.0859 25.6699 25.5645 26.1914C25.0371 26.7188 24.5391 27.041 23.8418 27.3105C23.3145 27.5156 22.5176 27.7617 21.0586 27.8262C19.4766 27.8965 19.002 27.9141 15 27.9141C10.9922 27.9141 10.5176 27.8965 8.94141 27.8262C7.47656 27.7617 6.68555 27.5156 6.1582 27.3105C5.46094 27.041 4.95703 26.7129 4.43555 26.1914C3.9082 25.6641 3.58594 25.166 3.31641 24.4688C3.11133 23.9414 2.86523 23.1445 2.80078 21.6855C2.73047 20.1035 2.71289 19.6289 2.71289 15.627C2.71289 11.6191 2.73047 11.1445 2.80078 9.56836C2.86523 8.10352 3.11133 7.3125 3.31641 6.78516C3.58594 6.08789 3.91406 5.58398 4.43555 5.0625C4.96289 4.53516 5.46094 4.21289 6.1582 3.94336C6.68555 3.73828 7.48242 3.49219 8.94141 3.42773C10.5176 3.35742 10.9922 3.33984 15 3.33984ZM15 0.638672C10.9277 0.638672 10.418 0.65625 8.81836 0.726562C7.22461 0.796875 6.12891 1.05469 5.17969 1.42383C4.18945 1.81055 3.35156 2.32031 2.51953 3.1582C1.68164 3.99023 1.17187 4.82813 0.785156 5.8125C0.416016 6.76758 0.158203 7.85742 0.0878906 9.45117C0.0175781 11.0566 0 11.5664 0 15.6387C0 19.7109 0.0175781 20.2207 0.0878906 21.8203C0.158203 23.4141 0.416016 24.5098 0.785156 25.459C1.17187 26.4492 1.68164 27.2871 2.51953 28.1191C3.35156 28.9512 4.18945 29.4668 5.17383 29.8477C6.12891 30.2168 7.21875 30.4746 8.8125 30.5449C10.4121 30.6152 10.9219 30.6328 14.9941 30.6328C19.0664 30.6328 19.5762 30.6152 21.1758 30.5449C22.7695 30.4746 23.8652 30.2168 24.8145 29.8477C25.7988 29.4668 26.6367 28.9512 27.4687 28.1191C28.3008 27.2871 28.8164 26.4492 29.1973 25.4648C29.5664 24.5098 29.8242 23.4199 29.8945 21.8262C29.9648 20.2266 29.9824 19.7168 29.9824 15.6445C29.9824 11.5723 29.9648 11.0625 29.8945 9.46289C29.8242 7.86914 29.5664 6.77344 29.1973 5.82422C28.8281 4.82812 28.3184 3.99023 27.4805 3.1582C26.6484 2.32617 25.8105 1.81055 24.8262 1.42969C23.8711 1.06055 22.7812 0.802734 21.1875 0.732422C19.582 0.65625 19.0723 0.638672 15 0.638672Z" fill="#A6A6A6"/>
  <path d="M15 7.93359C10.7461 7.93359 7.29492 11.3848 7.29492 15.6387C7.29492 19.8926 10.7461 23.3437 15 23.3437C19.2539 23.3437 22.7051 19.8926 22.7051 15.6387C22.7051 11.3848 19.2539 7.93359 15 7.93359ZM15 20.6367C12.2402 20.6367 10.002 18.3984 10.002 15.6387C10.002 12.8789 12.2402 10.6406 15 10.6406C17.7598 10.6406 19.998 12.8789 19.998 15.6387C19.998 18.3984 17.7598 20.6367 15 20.6367Z" fill="#A6A6A6"/>
  <path d="M24.8086 7.62891C24.8086 8.625 24 9.42774 23.0098 9.42774C22.0137 9.42774 21.2109 8.61914 21.2109 7.62891C21.2109 6.63281 22.0195 5.83008 23.0098 5.83008C24 5.83008 24.8086 6.63867 24.8086 7.62891Z" fill="#A6A6A6"/>
</svg>