<svg xmlns="http://www.w3.org/2000/svg" width="24" height="24" viewBox="0 0 24 24" fill="none">
  <path d="M2 15.9444C2 14.3148 2.35185 12.7593 3.05556 11.2778C3.75926 9.79629 4.68519 8.44444 5.83333 7.22222C7.01852 5.96296 8.2963 4.88889 9.66667 4L10.7222 5.5C9.38889 6.57407 8.2963 7.59259 7.44444 8.55555C6.62963 9.48148 5.90741 10.6852 5.27778 12.1667L6.88889 13.6111C7.74074 14.3148 8.31482 15 8.61111 15.6667C8.90741 16.3333 9.05556 17.0185 9.05556 17.7222C9.05556 18.8333 8.75926 19.6667 8.16667 20.2222C7.57407 20.7407 6.77778 21 5.77778 21C5.22222 21 4.68518 20.9259 4.16667 20.7778C3.68518 20.5926 3.22222 20.2963 2.77778 19.8889C2.25926 18.6296 2 17.3148 2 15.9444ZM13.2778 15.9444C13.2778 14.3148 13.6296 12.7593 14.3333 11.2778C15.037 9.79629 15.963 8.44444 17.1111 7.22222C18.2963 5.96296 19.5741 4.88889 20.9444 4L22 5.5C20.6667 6.57407 19.5741 7.59259 18.7222 8.55555C17.9074 9.48148 17.1852 10.6852 16.5556 12.1667L18.1667 13.6111C19.0185 14.3148 19.5926 15 19.8889 15.6667C20.1852 16.3333 20.3333 17.0185 20.3333 17.7222C20.3333 18.8333 20.037 19.6667 19.4444 20.2222C18.8519 20.7407 18.0556 21 17.0556 21C16.5 21 15.963 20.9259 15.4444 20.7778C14.963 20.5926 14.5 20.2963 14.0556 19.8889C13.537 18.6296 13.2778 17.3148 13.2778 15.9444Z" fill="#5276FA"/>
</svg>