<svg xmlns="http://www.w3.org/2000/svg" width="14" height="14" viewBox="0 0 14 14" fill="none">
  <path d="M10.5918 9.84761L9.89934 10.5324C9.38898 11.0332 8.72683 11.6772 7.91256 12.4644C7.40378 12.9564 6.59656 12.9564 6.08783 12.4643L4.05134 10.4834C3.79539 10.2321 3.58115 10.0202 3.40858 9.84761C1.42501 7.86404 1.42501 4.64801 3.40858 2.66444C5.39215 0.680865 8.60818 0.680865 10.5918 2.66444C12.5753 4.64801 12.5753 7.86404 10.5918 9.84761ZM8.45862 6.41627C8.45862 5.61077 7.80563 4.9578 7.00017 4.9578C6.1947 4.9578 5.54171 5.61077 5.54171 6.41627C5.54171 7.22174 6.1947 7.87472 7.00017 7.87472C7.80563 7.87472 8.45862 7.22174 8.45862 6.41627Z" fill="#5276FA"/>
</svg>