<svg xmlns="http://www.w3.org/2000/svg" width="153" height="30" viewBox="0 0 153 30" fill="none">
  <path d="M58.8906 14.1185C58.8906 12.9712 59.1217 11.8995 59.5851 10.9033C60.0477 9.90706 60.6916 9.04187 61.5174 8.30719C62.3423 7.57277 63.3235 6.994 64.4608 6.5714C65.5976 6.1488 66.8406 5.9375 68.1892 5.9375C69.5378 5.9375 70.7503 6.14421 71.8873 6.55627C73.0241 6.96887 74.0104 7.54251 74.8459 8.27692C75.6809 9.01188 76.3299 9.88734 76.7931 10.9033C77.2557 11.9198 77.4875 13.042 77.4875 14.2695C77.4875 15.497 77.2508 16.6195 76.7782 17.6354C76.3051 18.6519 75.656 19.5274 74.8311 20.2618C74.0056 20.9968 73.0144 21.565 71.8574 21.9673C70.6998 22.3697 69.4468 22.5712 68.0987 22.5712C66.7506 22.5712 65.5425 22.3699 64.4157 21.9673C63.2883 21.565 62.3175 20.9914 61.5022 20.2467C60.687 19.5023 60.0479 18.6119 59.5851 17.5749C59.1219 16.5384 58.8906 15.3863 58.8906 14.1182V14.1185ZM64.657 14.179C64.657 14.7026 64.7524 15.1804 64.9437 15.613C65.1347 16.0461 65.386 16.4233 65.6984 16.7451C66.0102 17.0672 66.3823 17.3187 66.8154 17.4998C67.2481 17.6808 67.7061 17.7713 68.1889 17.7713C68.6718 17.7713 69.1296 17.6808 69.5624 17.4998C69.995 17.3187 70.3671 17.0672 70.6795 16.7451C70.9913 16.4233 71.2426 16.0461 71.4342 15.613C71.6252 15.1804 71.7209 14.7126 71.7209 14.2092C71.7209 13.7059 71.6252 13.2687 71.4342 12.8358C71.2426 12.4032 70.9913 12.026 70.6795 11.7036C70.3671 11.3818 69.995 11.13 69.5624 10.949C69.1296 10.7679 68.6718 10.6771 68.1889 10.6771C67.7061 10.6771 67.2478 10.7677 66.8154 10.949C66.3823 11.13 66.0102 11.3818 65.6984 11.7036C65.386 12.0257 65.1347 12.3981 64.9437 12.8207C64.7521 13.2433 64.657 13.6961 64.657 14.1793V14.179Z" fill="#4061DB"/>
  <path d="M17.9295 7.85813C17.8968 6.37687 16.6884 5.18555 15.1992 5.18555C13.7101 5.18555 12.5017 6.37687 12.469 7.85813H12.4682V7.87326C12.4682 7.88866 12.4658 7.90353 12.4658 7.91866C12.4658 7.93379 12.4679 7.94892 12.4682 7.96432V8.14293C11.2201 6.77461 9.68039 6.09019 7.84916 6.09019C6.72183 6.09019 5.68015 6.30662 4.72441 6.73922C3.76839 7.17208 2.94316 7.76545 2.24899 8.5204C1.55454 9.27508 1.006 10.1611 0.603657 11.177C0.201039 12.1935 0 13.2954 0 14.4827C0 15.67 0.185907 16.7119 0.558531 17.6676C0.930615 18.6239 1.45375 19.4439 2.12847 20.1281C2.80238 20.8125 3.60248 21.3459 4.52851 21.728C5.45399 22.11 6.47053 22.3016 7.57759 22.3016C8.08046 22.3016 8.54361 22.2662 8.96622 22.1959C9.38883 22.1252 9.79118 22.0095 10.1738 21.8487C10.5559 21.688 10.9334 21.4818 11.306 21.2297C11.6781 20.9784 12.0656 20.6612 12.4682 20.2789V21.7582C12.4682 22.9055 12.161 23.8007 11.5473 24.4449C10.9331 25.0887 10.053 25.4108 8.90569 25.4108C7.55706 25.4108 6.69156 24.8977 6.30921 23.8712H0.151049C0.311826 24.7164 0.634191 25.4962 1.11706 26.2109C1.6002 26.9251 2.21899 27.5492 2.9737 28.0826C3.7284 28.6157 4.60849 29.0337 5.6153 29.3355C6.62131 29.6374 7.72864 29.7884 8.93622 29.7884C10.0028 29.7884 10.9939 29.6676 11.9099 29.4261C12.8257 29.1845 13.6458 28.8524 14.3705 28.4298C15.0949 28.0072 15.714 27.509 16.2271 26.9356C16.7403 26.3619 17.1177 25.7432 17.3593 25.079C17.5404 24.5554 17.6811 23.9517 17.7819 23.2676C17.8824 22.5831 17.933 21.8087 17.933 20.943V7.85813H17.93H17.9295ZM12.4531 15.5843C12.2615 16.0172 12.0102 16.3947 11.6983 16.7165C11.386 17.0386 11.0139 17.2901 10.5813 17.4712C10.1484 17.6522 9.69066 17.743 9.20779 17.743C8.72492 17.743 8.23664 17.6525 7.80403 17.4712C7.37115 17.2901 6.9988 17.0386 6.68697 16.7165C6.3746 16.3947 6.12844 16.0175 5.9474 15.5843C5.76635 15.1517 5.67556 14.6837 5.67556 14.1806C5.67556 13.6775 5.77095 13.2446 5.96226 12.822C6.1533 12.3994 6.41 12.0325 6.7321 11.7202C7.05392 11.4083 7.42654 11.157 7.84916 10.9655C8.27177 10.7744 8.72465 10.6785 9.20752 10.6785C9.69039 10.6785 10.1179 10.769 10.551 10.9503C10.9836 11.1314 11.3608 11.3832 11.6832 11.705C12.005 12.0271 12.2615 12.3994 12.4531 12.822C12.6441 13.2446 12.7397 13.708 12.7397 14.2106C12.7397 14.7132 12.6441 15.1517 12.4531 15.5843Z" fill="#4061DB"/>
  <path d="M131.907 8.07102C131.874 6.58977 130.666 5.39844 129.177 5.39844C127.688 5.39844 126.479 6.58977 126.447 8.07102H126.446V8.08777C126.446 8.10264 126.444 8.11696 126.444 8.13155C126.444 8.14614 126.445 8.16073 126.446 8.17559V8.35366C125.198 6.98534 123.658 6.30092 121.827 6.30092C120.699 6.30092 119.658 6.51735 118.702 6.94995C117.746 7.38281 116.921 7.97618 116.227 8.73113C115.532 9.48581 114.984 10.3718 114.581 11.3878C114.178 12.4043 113.978 13.5062 113.978 14.6934C113.978 15.8807 114.163 16.9226 114.536 17.8783C114.908 18.8346 115.431 19.6547 116.106 20.3388C116.78 21.0232 117.58 21.5566 118.506 21.9387C119.432 22.3208 120.448 22.5123 121.555 22.5123C122.058 22.5123 122.521 22.4769 122.944 22.4067C123.367 22.3359 123.769 22.2202 124.152 22.0595C124.534 21.8987 124.911 21.6925 125.284 21.4404C125.656 21.1891 126.043 20.8719 126.446 20.4896V21.9689C126.446 23.1162 126.139 24.0114 125.525 24.6556C124.911 25.2995 124.031 25.6216 122.883 25.6216C121.535 25.6216 120.669 25.1084 120.287 24.0819H114.129C114.289 24.9271 114.612 25.7069 115.095 26.4216C115.578 27.1358 116.197 27.76 116.951 28.2933C117.706 28.8264 118.586 29.2444 119.593 29.5463C120.599 29.8481 121.706 29.9991 122.914 29.9991C123.98 29.9991 124.971 29.8783 125.887 29.6368C126.803 29.3952 127.624 29.0631 128.348 28.6405C129.073 28.2179 129.692 27.7197 130.205 27.1463C130.718 26.5727 131.095 25.9539 131.337 25.2898C131.518 24.7661 131.659 24.1625 131.759 23.4783C131.86 22.7939 131.911 22.0195 131.911 21.1537V8.07102H131.908H131.907ZM126.094 15.7953C125.903 16.2282 125.651 16.6057 125.339 16.9275C125.027 17.2496 124.655 17.5011 124.222 17.6822C123.79 17.8632 123.332 17.954 122.849 17.954C122.366 17.954 121.877 17.8635 121.445 17.6822C121.012 17.5011 120.64 17.2496 120.328 16.9275C120.015 16.6057 119.769 16.2285 119.588 15.7953C119.407 15.3627 119.316 14.8947 119.316 14.3916C119.316 13.8885 119.412 13.4556 119.603 13.033C119.794 12.6104 120.051 12.2435 120.373 11.9312C120.695 11.6193 121.067 11.368 121.49 11.1765C121.913 10.9854 122.365 10.8895 122.849 10.8895C123.332 10.8895 123.759 10.98 124.192 11.1613C124.624 11.3424 125.002 11.5942 125.324 11.916C125.646 12.2381 125.902 12.6104 126.094 13.033C126.285 13.4556 126.381 13.919 126.381 14.4216C126.381 14.9242 126.285 15.3627 126.094 15.7953H126.094Z" fill="#4061DB"/>
  <path d="M57.0101 11.0257C56.6275 10.0294 56.0992 9.16423 55.425 8.42927C54.7503 7.69486 53.9354 7.11149 52.9796 6.67835C52.0236 6.24576 50.9719 6.02932 49.8249 6.02932C47.8926 6.02932 46.2824 6.70375 44.9945 8.0518V2.77688C44.9945 2.76202 44.9967 2.7477 44.9967 2.73311C44.9967 1.22348 43.7729 0 42.2635 0C40.7541 0 39.5303 1.22375 39.5303 2.73311V22.5039H44.9945V20.2788C46.1616 21.7481 47.7518 22.4826 49.7646 22.4826C50.8711 22.4826 51.9028 22.2661 52.8591 21.8335C53.8148 21.4009 54.6449 20.8124 55.3496 20.0675C56.0538 19.3231 56.6024 18.4476 56.995 17.4411C57.3873 16.4351 57.5838 15.3581 57.5838 14.2108C57.5838 13.0635 57.3922 12.0222 57.0101 11.0259V11.0257ZM52.0955 15.6294C51.9039 16.052 51.6526 16.4246 51.3408 16.7464C51.0287 17.0685 50.6614 17.3201 50.2388 17.5011C49.8162 17.6821 49.3633 17.7726 48.8802 17.7726C48.3971 17.7726 47.939 17.6773 47.5067 17.486C47.0738 17.2949 46.6963 17.0436 46.3745 16.7313C46.0524 16.4195 45.8008 16.052 45.6198 15.6294C45.4388 15.2068 45.348 14.7539 45.348 14.2711C45.348 13.7882 45.4434 13.3305 45.6347 12.8974C45.8257 12.4648 46.0773 12.0876 46.3894 11.7652C46.7012 11.4434 47.0687 11.1916 47.4913 11.0105C47.9139 10.8295 48.3668 10.7387 48.8497 10.7387C49.3325 10.7387 49.8157 10.8346 50.2386 11.0257C50.6612 11.2172 51.0333 11.4737 51.3556 11.7955C51.6774 12.1176 51.9293 12.495 52.1103 12.9276C52.2914 13.3605 52.3822 13.8182 52.3822 14.3011C52.3822 14.7839 52.2865 15.2068 52.0952 15.6294H52.0955Z" fill="#4061DB"/>
  <path d="M37.4453 7.88494C37.4186 6.39099 36.201 5.1875 34.7005 5.1875C33.2 5.1875 31.9824 6.39099 31.9557 7.88494H31.9532V8.0522C30.6854 6.70415 29.0852 6.02972 27.1532 6.02972C26.0058 6.02972 24.9593 6.24616 24.0136 6.67875C23.0673 7.11162 22.2523 7.70039 21.5681 8.44481C20.8837 9.18949 20.3503 10.0598 19.9682 11.0561C19.5856 12.0523 19.3945 13.1042 19.3945 14.2107C19.3945 15.3985 19.5907 16.4953 19.9833 17.5012C20.3757 18.5077 20.9239 19.3832 21.6287 20.1276C22.3328 20.8723 23.1581 21.4511 24.1041 21.8634C25.0498 22.2757 26.0861 22.4822 27.2137 22.4822C29.2062 22.4822 30.7859 21.7477 31.9535 20.2784V22.5035H37.448V7.88494H37.4456H37.4453ZM31.5112 15.6295C31.3196 16.0521 31.0683 16.4247 30.7565 16.7465C30.4441 17.0686 30.072 17.3202 29.6394 17.5012C29.2065 17.6823 28.7488 17.7728 28.2659 17.7728C27.783 17.7728 27.2948 17.6823 26.8621 17.5012C26.4293 17.3202 26.0569 17.0686 25.7451 16.7465C25.4327 16.4247 25.1866 16.0475 25.0055 15.6144C24.8245 15.1818 24.7337 14.7141 24.7337 14.2107C24.7337 13.7073 24.8242 13.2801 25.0055 12.8672C25.1866 12.4549 25.433 12.0874 25.7451 11.7653C26.0569 11.4435 26.429 11.1917 26.8621 11.0107C27.2948 10.8296 27.7628 10.7388 28.2659 10.7388C28.769 10.7388 29.2065 10.8294 29.6394 11.0107C30.072 11.1917 30.4441 11.4435 30.7565 11.7653C31.0683 12.0874 31.3196 12.4649 31.5112 12.8975C31.7022 13.3306 31.7979 13.7881 31.7979 14.2712C31.7979 14.7543 31.7022 15.2069 31.5112 15.6295Z" fill="#4061DB"/>
  <path d="M112.345 8.09021C112.316 6.59868 111.099 5.39844 109.601 5.39844C108.102 5.39844 106.886 6.59868 106.856 8.09021H106.854V8.26314C105.586 6.91509 103.986 6.24066 102.054 6.24066C100.906 6.24066 99.8597 6.4571 98.914 6.88969C97.9677 7.32256 97.1527 7.91133 96.4685 8.65574C95.7841 9.40042 95.2507 10.2708 94.8686 11.267C94.486 12.2632 94.2949 13.3151 94.2949 14.4216C94.2949 15.6094 94.4911 16.7062 94.8837 17.7122C95.2761 18.7187 95.8243 19.5941 96.5291 20.3385C97.2332 21.0832 98.0585 21.662 99.0045 22.0743C99.9502 22.4867 100.986 22.6931 102.114 22.6931C104.107 22.6931 105.686 21.9587 106.854 20.4893V22.7144H112.348V8.09021H112.346H112.345ZM106.412 15.8405C106.22 16.2631 105.969 16.6357 105.657 16.9575C105.345 17.2796 104.973 17.5311 104.54 17.7122C104.107 17.8932 103.649 17.9837 103.167 17.9837C102.684 17.9837 102.195 17.8932 101.763 17.7122C101.33 17.5311 100.958 17.2796 100.646 16.9575C100.333 16.6357 100.087 16.2585 99.9062 15.8253C99.7251 15.3927 99.6343 14.925 99.6343 14.4216C99.6343 13.9182 99.7249 13.491 99.9062 13.0782C100.087 12.6658 100.334 12.2984 100.646 11.9763C100.958 11.6545 101.33 11.4026 101.763 11.2216C102.195 11.0406 102.663 10.9498 103.167 10.9498C103.67 10.9498 104.107 11.0403 104.54 11.2216C104.973 11.4026 105.345 11.6545 105.657 11.9763C105.969 12.2984 106.22 12.6758 106.412 13.1084C106.603 13.5416 106.699 13.999 106.699 14.4821C106.699 14.9653 106.603 15.4179 106.412 15.8405Z" fill="#4061DB"/>
  <path d="M151.577 11.1142C151.113 10.0983 150.464 9.22281 149.629 8.48786C148.794 7.75345 147.808 7.1798 146.671 6.7672C145.533 6.35487 144.301 6.14844 142.972 6.14844C141.644 6.14844 140.381 6.35974 139.244 6.78234C138.107 7.20493 137.126 7.78371 136.3 8.51812C135.475 9.25308 134.831 10.1183 134.368 11.1142C133.905 12.1105 133.674 13.1821 133.674 14.3294C133.674 15.5975 133.905 16.7496 134.368 17.7861C134.831 18.8229 135.47 19.7135 136.285 20.4579C137.1 21.2026 138.071 21.7762 139.199 22.1785C140.325 22.5809 141.554 22.7824 142.882 22.7824C144.21 22.7824 145.483 22.5811 146.641 22.1785C147.798 21.7762 148.789 21.208 149.614 20.473C150.439 19.7386 151.088 18.8631 151.561 17.8466C152.034 16.8307 152.271 15.7085 152.271 14.4807C152.271 13.2529 152.039 12.131 151.577 11.1145V11.1142Z" fill="#4061DB"/>
  <path d="M83.6533 22.2094L88.0937 15.5861H88.0939L89.1637 13.9876L89.1645 13.9882L93.9816 6.72266H78.5549V11.281H84.8643L77.5586 22.2094H83.6533Z" fill="#4061DB"/>
  <path d="M83.5879 22.2144C83.5879 22.2144 87.4752 17.992 90.9509 17.6542C94.2959 17.3291 94.5148 22.2144 91.1495 22.2144H83.5879Z" fill="#4061DB"/>
  <path d="M145.586 10.7258L138.785 13.0917C138.003 13.3638 138.044 14.484 138.844 14.6978L141.875 15.5073L142.684 18.5376C142.898 19.338 144.018 19.3793 144.29 18.5968L146.656 11.7961C146.887 11.1322 146.25 10.495 145.586 10.726L145.586 10.7258Z" fill="white"/>
</svg>