<svg xmlns="http://www.w3.org/2000/svg" width="76" height="75" viewBox="0 0 76 75" fill="none">
  <g clip-path="url(#clip0_257_5440)">
    <path d="M29.3558 65.9402C45.1096 70.7166 61.7526 61.8177 66.529 46.0639C71.3054 30.3101 62.4065 13.6671 46.6527 8.89065C30.8989 4.11423 14.2559 13.0132 9.47947 28.767C4.70306 44.5207 13.602 61.1638 29.3558 65.9402Z" fill="#E2E9FF" stroke="#4060DA" stroke-width="0.527942" stroke-miterlimit="10"/>
    <path d="M30.552 61.9965C44.1284 66.1128 58.4711 58.4438 62.5874 44.8674C66.7036 31.291 59.0346 16.9483 45.4582 12.832C31.8818 8.71578 17.5391 16.3848 13.4229 29.9612C9.30661 43.5376 16.9756 57.8803 30.552 61.9965Z" fill="white" stroke="#4060DA" stroke-width="0.527942" stroke-miterlimit="10"/>
    <path d="M45.459 12.832L44.2339 16.8725" stroke="#4060DA" stroke-width="0.527942" stroke-miterlimit="10"/>
    <path d="M31.7773 57.957L30.5523 61.9975" stroke="#4060DA" stroke-width="0.527942" stroke-miterlimit="10"/>
    <path d="M62.3276 45.0082L58.2871 43.7832" stroke="#4060DA" stroke-width="0.527942" stroke-miterlimit="10"/>
    <path d="M17.2036 31.3266L13.1631 30.1016" stroke="#4060DA" stroke-width="0.527942" stroke-miterlimit="10"/>
    <path d="M40.2256 52.0981C39.9272 52.9871 38.64 52.8891 38.4801 51.964L37.2966 45.1436C36.7698 42.103 34.1692 39.8617 31.087 39.7791L24.1658 39.5986C23.2307 39.5743 22.9458 38.315 23.7788 37.8885L47.1075 25.9927C47.9591 25.5595 48.9085 26.3783 48.6006 27.285L40.2256 52.0981Z" fill="#4061DA"/>
    <path d="M34.5991 39.0554L35.6469 39.6448C35.9113 39.7908 36.2412 39.7344 36.438 39.506L46.1332 28.2837C46.2226 28.1791 46.1038 28.0278 45.981 28.0935L26.6976 37.9274C26.5415 38.0076 26.5978 38.2428 26.7698 38.2456C26.7698 38.2456 32.8043 37.8487 34.6017 39.0604L34.5991 39.0554Z" fill="white"/>
  </g>
  <defs>
    <clipPath id="clip0_257_5440">
      <rect width="60" height="60" fill="white" transform="translate(18) rotate(16.8668)"/>
    </clipPath>
  </defs>
</svg>