<svg xmlns="http://www.w3.org/2000/svg" width="24" height="24" viewBox="0 0 24 24" fill="none">
  <path d="M11.5791 7.21187C11.5642 6.53858 11.015 5.99707 10.3381 5.99707C9.66126 5.99707 9.11202 6.53858 9.09715 7.21187H9.09679V7.21949C9.09679 7.22624 9.09581 7.23275 9.09581 7.23938C9.09581 7.24601 9.09667 7.25265 9.09679 7.2594V7.34034C8.52949 6.71838 7.82955 6.40729 6.99733 6.40729C6.48493 6.40729 6.01146 6.50566 5.57705 6.7023C5.14252 6.89905 4.76743 7.16876 4.45191 7.51192C4.13626 7.85495 3.88694 8.25767 3.70406 8.71947C3.52094 9.18151 3.42969 9.68237 3.42969 10.222C3.42969 10.7617 3.51419 11.2353 3.68355 11.6697C3.85267 12.1044 4.09045 12.4771 4.39713 12.7881C4.70344 13.0992 5.06711 13.3416 5.488 13.5153C5.90866 13.689 6.37071 13.776 6.8739 13.776C7.10246 13.776 7.31309 13.76 7.50518 13.728C7.69727 13.6958 7.88015 13.6433 8.05406 13.5702C8.22772 13.4971 8.3993 13.4034 8.56867 13.2888C8.73779 13.1746 8.91392 13.0304 9.09691 12.8566V13.5291C9.09691 14.0505 8.95727 14.4574 8.67835 14.7502C8.39918 15.0429 7.99916 15.1893 7.47767 15.1893C6.86468 15.1893 6.47129 14.9561 6.29763 14.4895H3.49834C3.57142 14.8737 3.71794 15.2281 3.93742 15.553C4.15702 15.8776 4.43827 16.1613 4.78131 16.4037C5.12434 16.6461 5.52436 16.8361 5.98198 16.9733C6.43924 17.1104 6.94243 17.1791 7.49143 17.1791C7.97619 17.1791 8.42669 17.1242 8.84304 17.0144C9.25928 16.9046 9.63215 16.7537 9.96143 16.5616C10.2908 16.3695 10.5721 16.143 10.8053 15.8824C11.0386 15.6216 11.2101 15.3404 11.3199 15.0385C11.4022 14.8005 11.4662 14.5261 11.512 14.2151C11.5576 13.904 11.5807 13.552 11.5807 13.1585V7.21187H11.5793H11.5791ZM8.937 10.7229C8.84993 10.9196 8.7357 11.0912 8.59397 11.2375C8.45211 11.3839 8.28287 11.4982 8.08624 11.5805C7.88948 11.6628 7.68143 11.7041 7.46195 11.7041C7.24247 11.7041 7.02042 11.6629 6.82378 11.5805C6.62691 11.4982 6.45778 11.3839 6.31605 11.2375C6.17407 11.0912 6.06219 10.9198 5.9799 10.7229C5.89761 10.5263 5.85634 10.3135 5.85634 10.0848C5.85634 9.85616 5.89969 9.6594 5.98665 9.46731C6.07348 9.27523 6.19016 9.10844 6.33656 8.96646C6.48284 8.82473 6.65221 8.71051 6.84429 8.62343C7.03638 8.53659 7.24222 8.49299 7.46182 8.49299C7.68142 8.49299 7.8756 8.53414 8.07236 8.61655C8.26899 8.69884 8.44057 8.8133 8.58697 8.95958C8.73313 9.10598 8.8498 9.27523 8.93688 9.46731C9.02371 9.6594 9.06719 9.87004 9.06719 10.0985C9.06719 10.3269 9.02371 10.5263 8.93688 10.7229H8.937Z" fill="white"/>
  <path d="M20.52 8.59701C20.3094 8.13521 20.0144 7.73728 19.635 7.40321C19.2553 7.06939 18.807 6.80864 18.2903 6.6211C17.7733 6.43368 17.213 6.33984 16.6092 6.33984C16.0055 6.33984 15.4313 6.43589 14.9146 6.62798C14.3977 6.82007 13.9517 7.08314 13.5766 7.41696C13.2014 7.75103 12.9088 8.1443 12.6985 8.59701C12.4879 9.04984 12.3828 9.53694 12.3828 10.0584C12.3828 10.6348 12.4879 11.1585 12.6985 11.6296C12.9088 12.1009 13.1993 12.5057 13.5697 12.8441C13.9403 13.1826 14.3814 13.4433 14.894 13.6262C15.4061 13.8091 15.9643 13.9007 16.5681 13.9007C17.1719 13.9007 17.7504 13.8092 18.2765 13.6262C18.8024 13.4433 19.2529 13.185 19.6281 12.851C20.0031 12.5171 20.2981 12.1192 20.5132 11.6572C20.728 11.1954 20.8357 10.6853 20.8357 10.1272C20.8357 9.56912 20.7303 9.05917 20.52 8.59713V8.59701Z" fill="white"/>
  <path d="M17.796 8.41832L14.7048 9.49372C14.3492 9.6174 14.368 10.1266 14.7317 10.2238L16.1091 10.5917L16.4771 11.9691C16.5742 12.3329 17.0833 12.3517 17.2071 11.996L18.2825 8.90481C18.3875 8.60304 18.0978 8.31343 17.7961 8.41844L17.796 8.41832Z" fill="#5276FA"/>
</svg>