<svg xmlns="http://www.w3.org/2000/svg" width="24" height="24" viewBox="0 0 24 24" fill="none">
  <path d="M11.5791 7.21627C11.5642 6.54297 11.015 6.00146 10.3381 6.00146C9.66126 6.00146 9.11202 6.54297 9.09715 7.21627H9.09679V7.22388C9.09679 7.23063 9.09581 7.23714 9.09581 7.24378C9.09581 7.25041 9.09667 7.25704 9.09679 7.2638V7.34473C8.52949 6.72278 7.82955 6.41168 6.99733 6.41168C6.48493 6.41168 6.01146 6.51006 5.57705 6.70669C5.14252 6.90345 4.76743 7.17316 4.45191 7.51631C4.13626 7.85934 3.88694 8.26207 3.70406 8.72387C3.52094 9.18591 3.42969 9.68676 3.42969 10.2264C3.42969 10.7661 3.51419 11.2397 3.68355 11.6741C3.85267 12.1087 4.09045 12.4815 4.39713 12.7925C4.70344 13.1036 5.06711 13.346 5.488 13.5197C5.90866 13.6934 6.37071 13.7804 6.8739 13.7804C7.10246 13.7804 7.31309 13.7643 7.50518 13.7324C7.69727 13.7002 7.88015 13.6477 8.05406 13.5746C8.22772 13.5015 8.3993 13.4078 8.56867 13.2932C8.73779 13.179 8.91392 13.0348 9.09691 12.861V13.5334C9.09691 14.0549 8.95727 14.4618 8.67835 14.7546C8.39918 15.0473 7.99916 15.1937 7.47767 15.1937C6.86468 15.1937 6.47129 14.9605 6.29763 14.4939H3.49834C3.57142 14.8781 3.71794 15.2325 3.93742 15.5574C4.15702 15.882 4.43827 16.1657 4.78131 16.4081C5.12434 16.6505 5.52436 16.8405 5.98198 16.9777C6.43924 17.1148 6.94243 17.1835 7.49143 17.1835C7.97619 17.1835 8.42669 17.1286 8.84304 17.0188C9.25928 16.909 9.63215 16.7581 9.96143 16.566C10.2908 16.3739 10.5721 16.1474 10.8053 15.8868C11.0386 15.626 11.2101 15.3448 11.3199 15.0429C11.4022 14.8049 11.4662 14.5305 11.512 14.2195C11.5576 13.9084 11.5807 13.5564 11.5807 13.1629V7.21627H11.5793H11.5791ZM8.937 10.7273C8.84993 10.924 8.7357 11.0956 8.59397 11.2419C8.45211 11.3883 8.28287 11.5026 8.08624 11.5849C7.88948 11.6672 7.68143 11.7085 7.46195 11.7085C7.24247 11.7085 7.02042 11.6673 6.82378 11.5849C6.62691 11.5026 6.45778 11.3883 6.31605 11.2419C6.17407 11.0956 6.06219 10.9242 5.9799 10.7273C5.89761 10.5307 5.85634 10.3179 5.85634 10.0892C5.85634 9.86055 5.89969 9.6638 5.98665 9.47171C6.07348 9.27962 6.19016 9.11283 6.33656 8.97085C6.48284 8.82912 6.65221 8.7149 6.84429 8.62782C7.03638 8.54099 7.24222 8.49739 7.46182 8.49739C7.68142 8.49739 7.8756 8.53853 8.07236 8.62094C8.26899 8.70323 8.44057 8.8177 8.58697 8.96398C8.73313 9.11038 8.8498 9.27962 8.93688 9.47171C9.02371 9.6638 9.06719 9.87443 9.06719 10.1029C9.06719 10.3313 9.02371 10.5307 8.93688 10.7273H8.937Z" fill="white"/>
  <path d="M20.52 8.59994C20.3094 8.13814 20.0144 7.74021 19.635 7.40614C19.2553 7.07232 18.807 6.81157 18.2903 6.62403C17.7733 6.43661 17.213 6.34277 16.6092 6.34277C16.0055 6.34277 15.4313 6.43882 14.9146 6.63091C14.3977 6.82299 13.9517 7.08607 13.5766 7.41989C13.2014 7.75396 12.9088 8.14723 12.6985 8.59994C12.4879 9.05277 12.3828 9.53987 12.3828 10.0614C12.3828 10.6377 12.4879 11.1614 12.6985 11.6326C12.9088 12.1038 13.1993 12.5086 13.5697 12.847C13.9403 13.1855 14.3814 13.4462 14.894 13.6291C15.4061 13.812 15.9643 13.9036 16.5681 13.9036C17.1719 13.9036 17.7504 13.8121 18.2765 13.6291C18.8024 13.4462 19.2529 13.188 19.6281 12.8539C20.0031 12.5201 20.2981 12.1221 20.5132 11.6601C20.728 11.1983 20.8357 10.6882 20.8357 10.1301C20.8357 9.57205 20.7303 9.0621 20.52 8.60006V8.59994Z" fill="white"/>
  <path d="M17.796 8.42418L14.7048 9.49958C14.3492 9.62326 14.368 10.1325 14.7317 10.2296L16.1091 10.5976L16.4771 11.975C16.5742 12.3388 17.0833 12.3576 17.2071 12.0019L18.2825 8.91066C18.3875 8.6089 18.0978 8.31929 17.7961 8.4243L17.796 8.42418Z" fill="#D4DDFF"/>
</svg>