<svg xmlns="http://www.w3.org/2000/svg" width="51" height="15" viewBox="0 0 51 15" fill="none">
  <path d="M27.4122 3.7387C28.3139 3.7387 29.1456 3.95247 29.9152 4.37611L29.2506 6.36605C28.6287 5.94241 27.9486 5.72864 27.214 5.72864C26.3317 5.72864 25.601 6.05123 25.0297 6.7003C24.4584 7.34547 24.1708 8.2083 24.1708 9.28877V11.0805C24.1708 12.1299 23.9104 12.95 23.3857 13.5485C22.861 14.147 22.0759 14.4463 21.0265 14.4463H0V12.6196H2.35528L2.61568 6.8713H1.25148L1.37974 4.7259H2.6973C2.72062 3.49773 3.10928 2.38228 4.12368 1.67103C4.96708 1.07249 6.08642 0.827637 7.13192 0.827637C7.9209 0.827637 8.60882 0.959782 9.04412 1.08804L8.97416 2.80203C8.6438 2.68932 8.18518 2.59604 7.54778 2.59604C5.63557 2.59604 5.17307 3.35393 5.17307 4.74145L7.90146 4.72201L7.72268 6.89851H4.88546L4.58619 12.6157H9.78258V12.6274H14.3999C15.3482 12.6274 16.1333 12.297 16.7551 11.6324C17.377 10.9678 17.6879 10.1322 17.6879 9.11388C17.6879 8.09559 17.377 7.25997 16.7551 6.59924C16.1333 5.93463 15.3482 5.60427 14.3999 5.60427C13.4515 5.60427 12.6664 5.93075 12.0446 6.58758C11.4227 7.24053 11.1118 8.07615 11.1118 9.09055C11.1118 10.105 11.3916 10.8823 11.9474 11.5197H9.80978C9.56493 11.2088 9.37448 10.8434 9.24622 10.4275C9.11408 10.0117 9.04801 9.56472 9.04801 9.09055C9.04801 8.07615 9.27732 7.15891 9.73594 6.33884C10.1946 5.51877 10.832 4.88136 11.652 4.42275C12.4682 3.96413 13.3855 3.73482 14.3999 3.73482C15.4143 3.73482 16.3315 3.96413 17.1477 4.42275C17.9678 4.88136 18.6052 5.51877 19.0638 6.33884C19.5224 7.15891 19.7517 8.08004 19.7517 9.11388C19.7517 10.4897 19.3164 11.6596 18.4497 12.6235H20.7583L20.9527 12.6002C21.3608 12.5496 21.6561 12.4019 21.8349 12.1571C22.0137 11.9122 22.107 11.5508 22.107 11.0766V4.00688H24.1708V5.21173C24.4973 4.76865 24.9481 4.41497 25.5194 4.14291C26.0908 3.87473 26.7204 3.7387 27.4083 3.7387H27.4122ZM44.1168 12.6157C42.9936 12.6157 42.0997 12.2892 41.4234 11.6168C40.751 10.9445 40.4129 10.0778 40.4129 9.01282C40.4129 7.94789 40.716 7.10062 41.3262 6.42046C41.9364 5.7403 42.7099 5.40217 43.6582 5.40217C44.4588 5.40217 45.139 5.65091 45.7026 6.15228C46.2622 6.65365 46.577 7.29494 46.6392 8.08392H42.5583L42.0142 9.85233H48.6097C48.6914 9.60747 48.7302 9.32764 48.7302 9.01671C48.7302 7.95178 48.5203 7.01122 48.1045 6.19115C47.6886 5.37108 47.0978 4.73367 46.34 4.27505C45.5782 3.81643 44.6998 3.58713 43.7087 3.58713C42.7176 3.58713 41.7887 3.82032 40.9803 4.28672C40.1719 4.75311 39.5384 5.40217 39.0798 6.23002C38.6251 7.05786 38.3957 7.98676 38.3957 9.02059C38.3957 9.79014 38.5201 10.482 38.7689 11.096C39.0176 11.7101 39.3752 12.2154 39.8377 12.6235H37.1715V14.4502H51V12.6235H44.1168V12.6157ZM34.8589 4.10793H32.8418C32.8029 4.10793 32.7718 4.13902 32.7718 4.17789V6.10564C32.7718 6.14451 32.8029 6.1756 32.8418 6.1756H34.8589C34.8978 6.1756 34.9289 6.14451 34.9289 6.10564V4.17789C34.9289 4.13902 34.8978 4.10793 34.8589 4.10793ZM34.8589 10.4936H32.8418C32.8029 10.4936 32.7718 10.5247 32.7718 10.5636V12.4913C32.7718 12.5302 32.8029 12.5613 32.8418 12.5613H34.8589C34.8978 12.5613 34.9289 12.5302 34.9289 12.4913V10.5636C34.9289 10.5247 34.8978 10.4936 34.8589 10.4936Z" fill="#A6A6A6"/>
</svg>