<svg width="24" height="25" viewBox="0 0 24 25" fill="none" xmlns="http://www.w3.org/2000/svg">
<path d="M16.9703 18.6378L18.1573 17.4639C21.5577 14.0635 21.5577 8.55033 18.1573 5.14992C14.7568 1.74951 9.24369 1.74951 5.84328 5.14992C2.44287 8.55033 2.44287 14.0635 5.84328 17.4639C6.13912 17.7597 6.50638 18.123 6.94515 18.5538L10.4362 21.9497C11.3084 22.7932 12.6922 22.7933 13.5644 21.9499C14.9603 20.6004 16.0954 19.4964 16.9703 18.6378ZM12 7.5816C12.4142 7.5816 12.75 7.91739 12.75 8.3316V10.5816H15.25C15.6642 10.5816 16 10.9174 16 11.3316C16 11.7458 15.6642 12.0816 15.25 12.0816H12.75V14.3316C12.75 14.7458 12.4142 15.0816 12 15.0816C11.5858 15.0816 11.25 14.7458 11.25 14.3316V12.0816H8.75C8.33579 12.0816 8 11.7458 8 11.3316C8 10.9174 8.33579 10.5816 8.75 10.5816H11.25V8.3316C11.25 7.91739 11.5858 7.5816 12 7.5816Z" fill="#ADADAD"/>
</svg>
