<svg xmlns="http://www.w3.org/2000/svg" width="28" height="28" viewBox="0 0 28 28" fill="none">
  <path d="M12.2372 16.9594V24H9.89364V16.9594H12.2372ZM19.2678 14.6125H15.7525C15.34 14.6125 14.5807 15.3728 14.5807 15.786V19.3063C14.5807 19.7194 15.34 20.4797 15.7525 20.4797H19.2678C19.6804 20.4797 20.4396 19.7194 20.4396 19.3063V15.786C20.4396 15.3728 19.6804 14.6125 19.2678 14.6125ZM18.0961 16.9594V18.1328H16.9243V16.9594H18.0961ZM9.89364 8.74536H5.20655V9.91879C5.20655 11.0966 6.41615 12.1117 7.55009 12.2657C8.77968 12.2657 9.8119 11.1294 9.89364 9.91879V8.74536ZM15.7525 8.74536H12.2372V9.91879C12.2372 11.0966 12.2751 12.1117 13.409 12.2657C14.6386 12.2657 15.6707 11.1294 15.7525 9.91879V8.74536ZM22.7832 8.74536H18.0961V9.91879C18.0961 11.0966 18.1339 12.1117 19.2678 12.2657H20.4396C21.6692 12.2657 22.7014 11.1294 22.7832 9.91879V8.74536ZM11.0654 5.22505H8.72187L6.37832 7.57192H9.89364L11.0654 5.22505ZM15.7525 5.22505H12.2372V7.57192H15.7525V5.22505ZM19.2678 5.22505H16.9243L18.0961 7.57192H21.6114L19.2678 5.22505ZM4.03477 7.57192L7.55009 4.05162C7.38062 4.07522 7.66789 3.92447 7.55009 4.05162H20.4396C20.3071 3.94325 20.6128 4.05162 20.4396 4.05162L23.9549 7.57192C24.0563 7.70724 23.9549 8.59465 23.9549 8.74536V9.91879C23.9549 10.9104 23.4015 11.5863 22.7832 12.2657V22.8266C22.7832 23.2053 23.1478 23.9504 22.7832 24H13.409V15.786C13.409 15.3728 13.8215 14.6125 13.409 14.6125H8.72187C8.30933 14.6125 7.55009 15.3728 7.55009 15.786V24H5.20655C4.82839 24 5.25601 23.1916 5.20655 22.8266V12.2657C4.62937 11.6315 4.08104 10.8329 4.03477 9.91879V8.74536C4.02673 8.6084 3.96072 7.70084 4.03477 7.57192Z" fill="#5276FA"/>
</svg>