<svg width="20" height="20" viewBox="0 0 20 20" fill="none" xmlns="http://www.w3.org/2000/svg">
<path d="M9.97422 10.7746C10.4023 10.7746 10.7492 10.4276 10.7492 9.99961C10.7492 9.57158 10.4023 9.22461 9.97422 9.22461C9.54619 9.22461 9.19922 9.57158 9.19922 9.99961C9.19922 10.4276 9.54619 10.7746 9.97422 10.7746Z" fill="#ADADAD" stroke="#ADADAD" stroke-width="1.66667" stroke-linecap="round" stroke-linejoin="round"/>
<path d="M9.97422 5.34981C10.4023 5.34981 10.7492 5.00282 10.7492 4.57481C10.7492 4.14679 10.4023 3.7998 9.97422 3.7998C9.54619 3.7998 9.19922 4.14679 9.19922 4.57481C9.19922 5.00282 9.54619 5.34981 9.97422 5.34981Z" fill="#ADADAD" stroke="#ADADAD" stroke-width="1.66667" stroke-linecap="round" stroke-linejoin="round"/>
<path d="M9.97422 16.1994C10.4023 16.1994 10.7492 15.8524 10.7492 15.4244C10.7492 14.9964 10.4023 14.6494 9.97422 14.6494C9.54619 14.6494 9.19922 14.9964 9.19922 15.4244C9.19922 15.8524 9.54619 16.1994 9.97422 16.1994Z" fill="#ADADAD" stroke="#ADADAD" stroke-width="1.66667" stroke-linecap="round" stroke-linejoin="round"/>
</svg>
