<svg width="30" height="30" viewBox="0 0 30 30" fill="none" xmlns="http://www.w3.org/2000/svg">
<path d="M15 27C8.37258 27 3 21.6274 3 15C3 8.37258 8.37258 3 15 3C21.6274 3 27 8.37258 27 15C27 21.6274 21.6274 27 15 27ZM21 16.8C21 15.8059 20.1941 15 19.2 15H10.8C9.80588 15 9 15.8059 9 16.8V17.4C9 19.7657 11.2314 22.2 15 22.2C18.7686 22.2 21 19.7657 21 17.4V16.8ZM18.3 10.5C18.3 8.67746 16.8226 7.2 15 7.2C13.1774 7.2 11.7 8.67746 11.7 10.5C11.7 12.3225 13.1774 13.8 15 13.8C16.8226 13.8 18.3 12.3225 18.3 10.5Z" fill="#ADADAD"/>
</svg>
