<svg width="18" height="18" viewBox="0 0 18 18" fill="none" xmlns="http://www.w3.org/2000/svg">
<path d="M6.5625 10.125C7.71465 10.125 8.68012 10.9243 8.93445 11.9987L15.9375 12C16.2482 12 16.5 12.2518 16.5 12.5625C16.5 12.8473 16.2884 13.0826 16.0139 13.1199L15.9375 13.125L8.93467 13.1255C8.68057 14.2003 7.71495 15 6.5625 15C5.41009 15 4.44446 14.2003 4.19034 13.1255L2.0625 13.125C1.75184 13.125 1.5 12.8732 1.5 12.5625C1.5 12.2777 1.71161 12.0424 1.98617 12.0051L2.0625 12L4.19034 11.9995C4.44446 10.9247 5.41009 10.125 6.5625 10.125ZM6.5625 11.25C5.98939 11.25 5.50208 11.6174 5.32315 12.1294L5.30772 12.1764L5.27885 12.2875C5.25994 12.3762 5.25 12.4682 5.25 12.5625C5.25 12.6786 5.26508 12.7913 5.29339 12.8984L5.32325 12.9959L5.34251 13.0475C5.53541 13.5323 6.00893 13.875 6.5625 13.875C7.13532 13.875 7.6224 13.508 7.80157 12.9964L7.83165 12.8983L7.81883 12.9436C7.85535 12.823 7.875 12.695 7.875 12.5625C7.875 12.4839 7.8681 12.4069 7.85482 12.3321L7.83232 12.2293L7.81733 12.1765L7.78222 12.0768C7.5891 11.5924 7.11578 11.25 6.5625 11.25ZM11.4375 3C12.5899 3 13.5556 3.79974 13.8097 4.87451L15.9375 4.875C16.2482 4.875 16.5 5.12684 16.5 5.4375C16.5 5.72228 16.2884 5.95762 16.0139 5.99486L15.9375 6L13.8097 6.00049C13.5556 7.07526 12.5899 7.875 11.4375 7.875C10.2851 7.875 9.31943 7.07526 9.06533 6.00049L2.0625 6C1.75184 6 1.5 5.74816 1.5 5.4375C1.5 5.15272 1.71161 4.91738 1.98617 4.88014L2.0625 4.875L9.06555 4.87375C9.31988 3.79937 10.2853 3 11.4375 3ZM11.4375 4.125C10.8644 4.125 10.3771 4.49232 10.1981 5.00438L10.1827 5.05136L10.1539 5.16253C10.135 5.2512 10.125 5.34319 10.125 5.4375C10.125 5.55362 10.1401 5.66623 10.1684 5.77345L10.1983 5.8709L10.2175 5.92248C10.4104 6.4073 10.8839 6.75 11.4375 6.75C12.0104 6.75 12.4974 6.38305 12.6766 5.87139L12.7066 5.77336L12.6938 5.81856C12.7304 5.69797 12.75 5.57002 12.75 5.4375C12.75 5.35889 12.7431 5.28187 12.7298 5.20706L12.7073 5.10424L12.6923 5.05147L12.6572 4.95177C12.4641 4.46735 11.9908 4.125 11.4375 4.125Z" fill="#212121"/>
</svg>
