<svg xmlns="http://www.w3.org/2000/svg" width="32" height="32" viewBox="0 0 32 32" fill="none">
  <path d="M8 4.66667C8 4.29848 8.29848 4 8.66667 4H17.3333C19.4551 4 21.4899 4.84285 22.9902 6.34315C24.4905 7.84344 25.3333 9.87827 25.3333 12C25.3333 14.1217 24.4905 16.1566 22.9902 17.6569C21.4899 19.1571 19.4551 20 17.3333 20H11.3333C10.9651 20 10.6667 20.2985 10.6667 20.6667V27.3333C10.6667 27.7015 10.3682 28 10 28H8.66667C8.29848 28 8 27.7015 8 27.3333V4.66667ZM11.3333 6.66667C10.9651 6.66667 10.6667 6.96514 10.6667 7.33333V16.6667C10.6667 17.0349 10.9651 17.3333 11.3333 17.3333H17.3333C18.7478 17.3333 20.1044 16.7714 21.1046 15.7712C22.1048 14.771 22.6667 13.4145 22.6667 12C22.6667 10.5855 22.1048 9.22896 21.1046 8.22876C20.1044 7.22857 18.7478 6.66667 17.3333 6.66667H11.3333Z" fill="#A6A6A6"/>
</svg>