<svg xmlns="http://www.w3.org/2000/svg" width="32" height="32" viewBox="0 0 32 32" fill="none">
  <path d="M11.0145 6.365C11.0145 5.995 11.3055 5.695 11.6642 5.695H17.4824C18.8497 5.695 20.1685 6.255 21.1382 7.255C22.1079 8.255 22.6509 9.615 22.6509 11.025C22.6509 12.435 22.1079 13.795 21.1382 14.795C20.6339 15.315 20.023 15.715 19.3636 15.985L21.303 17.985C21.9042 17.635 22.4667 17.205 22.9709 16.685C24.4255 15.185 25.24 13.145 25.24 11.025C25.24 8.905 24.4255 6.865 22.9709 5.365C21.5164 3.865 19.5382 3.025 17.4824 3.025H9.07515C8.71636 3.025 8.42545 3.325 8.42545 3.695V4.705L11.0145 7.375V6.365Z" fill="#A6A6A6"/>
  <path d="M10.6945 17.595C10.3358 17.595 10.0448 17.295 10.0448 16.925V11.915L7.45576 9.245V27.595C7.45576 27.965 7.74667 28.265 8.10545 28.265H9.39515C9.75394 28.265 10.0448 27.965 10.0448 27.595V20.925C10.0448 20.555 10.3358 20.255 10.6945 20.255H16.5127C17.017 20.255 17.5115 20.205 17.9964 20.105L15.5527 17.585H10.6945V17.595Z" fill="#A6A6A6"/>
  <path d="M4.93455 3.345C4.48848 2.885 3.77091 2.885 3.33455 3.345C2.88848 3.805 2.88848 4.545 3.33455 4.995L7.45576 9.245L7.45576 5.935L4.93455 3.335V3.345Z" fill="#A6A6A6"/>
  <path d="M28.3915 27.535L20.3333 19.225C19.6061 19.645 18.8206 19.955 17.9964 20.125L26.7915 29.195C27.2376 29.655 27.9552 29.655 28.3915 29.195C28.8376 28.735 28.8376 27.995 28.3915 27.545V27.535Z" fill="#A6A6A6"/>
  <path d="M10.0448 11.915L15.5527 17.595H16.5127C17.1624 17.595 17.8024 17.455 18.3939 17.215L10.0448 8.605V11.915Z" fill="#A6A6A6"/>
  <path d="M10.0448 8.615L7.45576 5.945V9.255L10.0448 11.915V8.615Z" fill="#A6A6A6"/>
  <path d="M18.3939 17.225C17.8024 17.465 17.1624 17.605 16.5127 17.605H15.5527L17.9964 20.125C18.8206 19.955 19.6061 19.655 20.3333 19.225L18.3939 17.225Z" fill="#A6A6A6"/>
</svg>