<svg xmlns="http://www.w3.org/2000/svg" width="20" height="21" viewBox="0 0 20 21" fill="none">
  <path d="M6.6665 10.6042C8.50742 10.6042 9.99984 9.11175 9.99984 7.27083C9.99984 5.42988 8.50742 3.9375 6.6665 3.9375C4.82555 3.9375 3.33317 5.42988 3.33317 7.27083C3.33317 9.11175 4.82555 10.6042 6.6665 10.6042ZM14.1665 10.6042C15.5473 10.6042 16.6665 9.48492 16.6665 8.10417C16.6665 6.72346 15.5473 5.60417 14.1665 5.60417C12.7858 5.60417 11.6665 6.72346 11.6665 8.10417C11.6665 9.48492 12.7858 10.6042 14.1665 10.6042ZM3.5415 12.2708C2.50597 12.2708 1.6665 13.1103 1.6665 14.1458V14.3542C1.6665 14.3542 1.6665 18.1042 6.6665 18.1042C11.6665 18.1042 11.6665 14.3542 11.6665 14.3542V14.1458C11.6665 13.1103 10.827 12.2708 9.7915 12.2708H3.5415ZM14.1667 16.8542C13.1907 16.8542 12.4433 16.7032 11.8709 16.4722C12.1559 15.9931 12.3098 15.5327 12.3935 15.1738C12.4438 14.9581 12.4703 14.7731 12.4843 14.6336C12.4913 14.5635 12.4952 14.5042 12.4973 14.4572C12.4984 14.4338 12.4991 14.4133 12.4995 14.3961L12.4999 14.3727L12.5 14.3628V14.3583V14.3562C12.5 14.3535 12.5 14.3542 12.5 14.3542V14.1458C12.5 13.4191 12.2138 12.7593 11.7479 12.2728C11.7762 12.2715 11.8047 12.2708 11.8333 12.2708H16.5C17.5125 12.2708 18.3333 13.0917 18.3333 14.1042C18.3333 14.1042 18.3333 16.8542 14.1667 16.8542Z" fill="#849FFF"/>
</svg>