<svg xmlns="http://www.w3.org/2000/svg" width="33" height="32" viewBox="0 0 33 32" fill="none">
  <path d="M17.403 12.18C17.4903 11.72 17.5582 11.25 17.6067 10.79C17.9364 10.93 18.3048 10.99 18.7121 11C19.6139 11 20.3703 10.63 20.8939 10.03C21.3982 9.44 21.6212 8.68 21.6212 7.94C21.6212 7.67 21.5145 7.42 21.34 7.23C21.1558 7.04 20.9133 6.94 20.6515 6.94C20.3897 6.94 20.1473 7.05 19.963 7.23C19.7788 7.42 19.6818 7.67 19.6818 7.94C19.6818 8.22 19.6042 8.5 19.4297 8.71C19.2939 8.87 19.0806 9 18.7121 9C18.3436 9 18.14 8.87 18.0042 8.71C17.8394 8.5 17.7424 8.24 17.7424 7.97V4.99C17.7424 4.72 17.8491 4.47 18.0236 4.28C18.2079 4.09 18.4503 3.99 18.7121 3.99H22.8333C23.1339 3.99 23.4248 4.08 23.677 4.24L26.7897 6.22V7.66C26.7897 7.93 26.683 8.18 26.5085 8.37C26.3242 8.56 26.0818 8.66 25.82 8.66H24.5303C24.2685 8.66 24.0261 8.77 23.8418 8.95C23.6576 9.14 23.5606 9.39 23.5606 9.66V21.01L28.6903 26.3C28.6903 26.23 28.6806 26.08 28.6806 26.08C28.6224 25.54 28.4964 24.96 28.2152 24.42C27.7012 23.46 26.7994 23.2 25.5097 23.02V10.66H25.8297C26.6055 10.66 27.3424 10.34 27.8855 9.78C28.4285 9.22 28.7388 8.45 28.7388 7.66V5.66C28.7388 5.49 28.7 5.32 28.6127 5.17C28.5352 5.02 28.4188 4.9 28.2733 4.81L24.6952 2.54C24.1327 2.18 23.4927 2 22.8333 2H18.7121C17.9364 2 17.1994 2.32 16.6564 2.88C16.1133 3.44 15.803 4.21 15.803 5V8C15.803 8.68 15.803 10.17 15.4927 11.81C15.4442 12.05 15.3861 12.29 15.3279 12.53L16.8988 14.15C17.1218 13.48 17.2867 12.82 17.403 12.19V12.18Z" fill="#A6A6A6"/>
  <path d="M22.8721 28.12C22.7558 27.13 22.3582 25.77 20.9812 24.86V23.77L19.0418 21.77V24.17C18.7121 24.13 18.3727 24.11 18.0721 24.11H17.4127C17.2867 24.11 17.1509 24.13 17.0345 24.19C16.9182 24.25 16.8018 24.32 16.7145 24.41C16.6273 24.51 16.5497 24.62 16.5012 24.74C16.4527 24.86 16.4333 25 16.4333 25.13C16.4333 25.26 16.4624 25.4 16.5206 25.52C16.5691 25.64 16.6467 25.75 16.7436 25.84C16.8406 25.93 16.9473 26 17.0733 26.05C17.1994 26.1 17.3255 26.12 17.4515 26.11H18.0818C18.3824 26.11 18.6927 26.14 18.9836 26.18C19.1873 26.2 19.3812 26.26 19.5655 26.33L19.6042 26.35C20.477 26.77 20.797 27.45 20.9133 28.11H11.5364C11.74 27.65 11.8661 27.16 11.9145 26.66V26.54L11.9242 26.5V26.4C11.9533 25.48 12.06 24.56 12.2248 23.65C12.5352 22.05 13.1364 20.28 14.2321 19.14C14.62 18.74 14.9497 18.3 15.2309 17.84L13.7958 16.36C13.5242 16.86 13.2236 17.34 12.8455 17.73C11.3521 19.29 10.6539 21.53 10.3242 23.25C10.14 24.21 10.0236 25.19 9.98485 26.17V26.41C9.96545 26.73 9.87818 27.04 9.74242 27.33C9.63576 27.56 9.4903 27.74 9.31576 27.87C9.14121 27.99 8.88909 28.1 8.47212 28.1C7.81273 28.1 7.17273 27.88 6.63939 27.47C6.11576 27.06 5.73758 26.48 5.55333 25.82C5.37879 25.16 5.41758 24.47 5.66 23.83C5.90242 23.2 6.34848 22.67 6.91091 22.32C7.13394 22.18 7.28909 21.96 7.35697 21.7C7.41515 21.44 7.37636 21.17 7.2503 20.94C7.11455 20.71 6.90121 20.55 6.64909 20.48C6.39697 20.42 6.13515 20.46 5.91212 20.59C4.98121 21.16 4.25394 22.04 3.85636 23.08C3.44909 24.12 3.39091 25.26 3.68182 26.34C3.97273 27.42 4.59333 28.37 5.45636 29.05C6.31939 29.73 7.37636 30.09 8.46242 30.09H27.1L25.1606 28.09H22.843L22.8721 28.12Z" fill="#A6A6A6"/>
  <path d="M6.24182 5.27C5.79576 4.81 5.07818 4.81 4.64182 5.27C4.19576 5.73 4.19576 6.47 4.64182 6.92L13.8055 16.37C14.203 15.63 14.4842 14.82 14.6879 13.97L6.24182 5.27Z" fill="#A6A6A6"/>
  <path d="M29.0879 28.83L28.0503 27.76C28.0891 28.21 28.0891 28.67 28.0891 29.09V29.12C28.0891 29.39 27.9824 29.64 27.8079 29.83C27.6236 30.02 27.3812 30.12 27.1291 30.12L27.4782 30.48C27.9242 30.94 28.6418 30.94 29.0782 30.48C29.5145 30.02 29.5242 29.28 29.0782 28.83H29.0879Z" fill="#A6A6A6"/>
  <path d="M19.0418 21.78V21.13C19.0418 20.86 19.1485 20.61 19.323 20.42C19.5073 20.23 19.7497 20.13 20.0115 20.13C20.2733 20.13 20.5158 20.24 20.7 20.42C20.8842 20.61 20.9812 20.86 20.9812 21.13V23.78L25.1897 28.12H26.1303C26.1303 28 26.1109 27.88 26.1012 27.76C26.0624 27.36 25.9752 27.07 25.8685 26.85C25.7036 26.54 25.3061 26.12 23.8903 26.12C23.6285 26.12 23.3861 26.01 23.2018 25.83C23.0176 25.65 22.9206 25.39 22.9206 25.12V22.47L16.2588 15.6C16.0067 16.37 15.677 17.14 15.2309 17.85L19.0418 21.78Z" fill="#A6A6A6"/>
  <path d="M16.2685 15.61L14.6976 13.99C14.4939 14.83 14.203 15.65 13.8152 16.39L15.2503 17.87C15.6867 17.16 16.0261 16.39 16.2782 15.62L16.2685 15.61Z" fill="#A6A6A6"/>
  <path d="M20.7 20.42C20.5158 20.23 20.2733 20.13 20.0115 20.13C19.7497 20.13 19.5073 20.24 19.323 20.42C19.1388 20.61 19.0418 20.86 19.0418 21.13V21.78L20.9812 23.78V21.13C20.9812 20.86 20.8745 20.61 20.7 20.42Z" fill="#A6A6A6"/>
  <path d="M28.0988 29.12V29.09C28.0988 28.68 28.0988 28.22 28.06 27.76L22.9303 22.47V25.12C22.9303 25.39 23.037 25.64 23.2115 25.83C23.3861 26.02 23.6382 26.12 23.9 26.12C25.3255 26.12 25.7133 26.54 25.8782 26.85C25.9945 27.06 26.0721 27.36 26.1109 27.76C26.1206 27.88 26.1303 28 26.14 28.12H25.1994L27.1388 30.12C27.3909 30.12 27.6333 30.01 27.8176 29.83C28.0018 29.64 28.0988 29.39 28.0988 29.12Z" fill="#A6A6A6"/>
</svg>