<svg xmlns="http://www.w3.org/2000/svg" width="20" height="20" viewBox="0 0 20 20" fill="none">
  <path d="M6.4769 2.03184L7.37406 1.74517C8.21475 1.47654 9.11291 1.91067 9.473 2.75962L10.1894 4.44907C10.5017 5.18528 10.3284 6.05104 9.76108 6.58947L8.18251 8.08781C8.27991 8.98401 8.58116 9.86651 9.08625 10.7353C9.59141 11.6041 10.2222 12.3248 10.9788 12.8973L12.8748 12.2651C13.5935 12.0254 14.3762 12.3008 14.817 12.9485L15.8439 14.4573C16.3564 15.2101 16.2642 16.2488 15.6283 16.8871L14.9469 17.5712C14.2687 18.2521 13.2999 18.4991 12.4037 18.2196C10.288 17.5596 8.34275 15.6003 6.56793 12.3416C4.79054 9.0781 4.16325 6.30926 4.68605 4.03509C4.90605 3.07816 5.58731 2.31609 6.4769 2.03184Z" fill="#424242"/>
</svg>