<svg width="36" height="36" viewBox="0 0 36 36" fill="none" xmlns="http://www.w3.org/2000/svg">
<g id="&#237;&#131;&#156;&#234;&#183;&#184;&#235;&#144;&#156; &#236;&#158;&#165;&#236;&#134;&#140; &#236;&#149;&#132;&#236;&#157;&#180;&#236;&#189;&#152;">
<path id="Vector" d="M18 18C19.7902 18 21.5071 17.2888 22.773 16.023C24.0388 14.7571 24.75 13.0402 24.75 11.25C24.75 9.45979 24.0388 7.7429 22.773 6.47703C21.5071 5.21116 19.7902 4.5 18 4.5C16.2098 4.5 14.4929 5.21116 13.227 6.47703C11.9612 7.7429 11.25 9.45979 11.25 11.25C11.25 13.0402 11.9612 14.7571 13.227 16.023C14.4929 17.2888 16.2098 18 18 18ZM18 20.25C15.6131 20.25 13.3239 19.3018 11.636 17.614C9.94821 15.9261 9 13.6369 9 11.25C9 8.86305 9.94821 6.57387 11.636 4.88604C13.3239 3.19821 15.6131 2.25 18 2.25C20.3869 2.25 22.6761 3.19821 24.364 4.88604C26.0518 6.57387 27 8.86305 27 11.25C27 13.6369 26.0518 15.9261 24.364 17.614C22.6761 19.3018 20.3869 20.25 18 20.25Z" fill="white"/>
<path id="Vector_2" d="M18 18C18.2984 18 18.5845 18.1185 18.7955 18.3295C19.0065 18.5405 19.125 18.8266 19.125 19.125V28.125C19.125 28.4234 19.0065 28.7095 18.7955 28.9205C18.5845 29.1315 18.2984 29.25 18 29.25C17.7016 29.25 17.4155 29.1315 17.2045 28.9205C16.9935 28.7095 16.875 28.4234 16.875 28.125V19.125C16.875 18.8266 16.9935 18.5405 17.2045 18.3295C17.4155 18.1185 17.7016 18 18 18Z" fill="white"/>
<path id="Vector_3" d="M13.5 22.8196V25.1033C9.48375 25.7468 6.75 27.1373 6.75 28.1251C6.75 29.4503 11.6685 31.5001 18 31.5001C24.3315 31.5001 29.25 29.4503 29.25 28.1251C29.25 27.1351 26.5163 25.7468 22.5 25.1033V22.8196C27.7425 23.5913 31.5 25.6771 31.5 28.1251C31.5 31.2301 25.4565 33.7501 18 33.7501C10.5435 33.7501 4.5 31.2301 4.5 28.1251C4.5 25.6748 8.2575 23.5913 13.5 22.8196Z" fill="white"/>
</g>
</svg>
