<svg xmlns="http://www.w3.org/2000/svg" width="12" height="13" viewBox="0 0 12 13" fill="none">
  <path d="M5.9417 1.87837L6 1.875C6.2564 1.875 6.46775 2.06802 6.49665 2.31669L6.5 2.375V5.875H10C10.2564 5.875 10.4677 6.068 10.4966 6.3167L10.5 6.375C10.5 6.6314 10.307 6.84275 10.0583 6.87165L10 6.875H6.5V10.375C6.5 10.6314 6.307 10.8427 6.0583 10.8716L6 10.875C5.7436 10.875 5.53225 10.682 5.50335 10.4333L5.5 10.375V6.875H2C1.74358 6.875 1.53225 6.682 1.50337 6.4333L1.5 6.375C1.5 6.1186 1.69302 5.90725 1.94169 5.87835L2 5.875H5.5V2.375C5.5 2.11858 5.693 1.90725 5.9417 1.87837Z" fill="white"/>
</svg>