<svg xmlns="http://www.w3.org/2000/svg" width="46" height="46" viewBox="0 0 46 46" fill="none">
  <circle cx="23" cy="23" r="23" fill="white"/>
  <path d="M23 0C35.7024 0 46 10.2974 46 23C46 35.7024 35.7024 46 23 46C10.2974 46 0 35.7024 0 23C0 10.2974 10.2974 0 23 0ZM23 11.5C22.1267 11.5 21.4049 12.1489 21.2906 12.9909L21.275 13.225V21.275H13.225C12.2723 21.275 11.5 22.0473 11.5 23C11.5 23.8733 12.1489 24.5951 12.9909 24.7094L13.225 24.725H21.275V32.775C21.275 33.7277 22.0473 34.5 23 34.5C23.8733 34.5 24.5951 33.8509 24.7094 33.0091L24.725 32.775V24.725H32.775C33.7277 24.725 34.5 23.9527 34.5 23C34.5 22.1267 33.8509 21.4049 33.0091 21.2906L32.775 21.275H24.725V13.225C24.725 12.2723 23.9527 11.5 23 11.5Z" fill="#5276FA"/>
</svg>