<svg width="30" height="30" viewBox="0 0 30 30" fill="none" xmlns="http://www.w3.org/2000/svg">
<path d="M7.72786 7.02046L7.72464 9.46135V21.5386C7.72464 23.6023 9.39762 25.2754 11.4614 25.2754L21.368 25.2757C21.0127 26.2803 20.0547 27 18.9283 27H11.4614C8.44513 27 6 24.5549 6 21.5386V9.46135C6 8.33377 6.72142 7.37468 7.72786 7.02046ZM21.8092 4C23.2379 4 24.3961 5.15822 24.3961 6.58696V21.5338C24.3961 22.9625 23.2379 24.1208 21.8092 24.1208H11.4614C10.0326 24.1208 8.8744 22.9625 8.8744 21.5338V6.58696C8.8744 5.15822 10.0326 4 11.4614 4H21.8092Z" fill="#ADADAD"/>
</svg>
