<svg xmlns="http://www.w3.org/2000/svg" width="25" height="24" viewBox="0 0 25 24" fill="none">
<path d="M10.5978 4C14.1802 4 17.0843 6.9041 17.0843 10.4865C17.0843 11.9655 16.5893 13.329 15.7559 14.4202L19.858 18.5236C20.1957 18.8613 20.1957 19.409 19.858 19.7467C19.5462 20.0585 19.0557 20.0824 18.7164 19.8186L18.6349 19.7467L14.5315 15.6445C13.4403 16.4779 12.0768 16.973 10.5978 16.973C7.01542 16.973 4.11133 14.0688 4.11133 10.4865C4.11133 6.9041 7.01542 4 10.5978 4ZM10.5978 5.72973C7.97073 5.72973 5.84106 7.8594 5.84106 10.4865C5.84106 13.1136 7.97073 15.2432 10.5978 15.2432C13.2249 15.2432 15.3546 13.1136 15.3546 10.4865C15.3546 7.8594 13.2249 5.72973 10.5978 5.72973Z" fill="#B0B0B0"/>
</svg>