<svg width="18" height="18" viewBox="0 0 18 18" fill="none" xmlns="http://www.w3.org/2000/svg">
<path d="M9 1.5C13.1421 1.5 16.5 4.85786 16.5 9C16.5 13.1421 13.1421 16.5 9 16.5C4.85786 16.5 1.5 13.1421 1.5 9C1.5 4.85786 4.85786 1.5 9 1.5ZM11.4148 6.72725L8.0625 10.0795L6.58525 8.60227C6.36558 8.3826 6.00942 8.3826 5.78975 8.60227C5.57009 8.82195 5.57009 9.17805 5.78975 9.39773L7.66477 11.2727C7.88445 11.4924 8.24055 11.4924 8.46023 11.2727L12.2102 7.52273C12.4299 7.30308 12.4299 6.94692 12.2102 6.72725C11.9906 6.50759 11.6344 6.50759 11.4148 6.72725Z" fill="#5276FA"/>
</svg>
