<svg xmlns="http://www.w3.org/2000/svg" width="30" height="30" viewBox="0 0 30 30" fill="none">
  <path d="M22.8293 13.5757H22.39C22.313 13.5757 22.2361 13.5847 22.1636 13.5983C21.9734 12.6701 21.6066 11.8098 21.1039 11.0446C21.1673 10.9993 21.2262 10.954 21.2805 10.8997L21.593 10.5873C22.1093 10.0711 22.1093 9.23799 21.593 8.72634L21.2805 8.41392C20.7643 7.89775 19.931 7.89775 19.4193 8.41392L19.1069 8.72634C19.0525 8.78068 19.0072 8.83954 18.9665 8.8984C18.2011 8.39581 17.3362 8.02453 16.4078 7.83436C16.4214 7.76644 16.4305 7.69399 16.4305 7.62155V7.18235C16.4305 6.45337 15.8418 5.86475 15.1127 5.86475H14.6734C13.9443 5.86475 13.3556 6.45337 13.3556 7.18235V7.62155C13.3556 7.69399 13.3647 7.76644 13.3783 7.83436C12.4499 8.02906 11.5895 8.39581 10.8197 8.8984C10.7789 8.83954 10.7336 8.78068 10.6793 8.72634L10.3668 8.41392C9.85055 7.89775 9.01731 7.89775 8.50558 8.41392L8.19312 8.72634C7.67687 9.24252 7.67687 10.0756 8.19312 10.5873L8.50558 10.8997C8.55993 10.954 8.62332 10.9993 8.6822 11.0446C8.17953 11.8098 7.81725 12.6701 7.62252 13.5983C7.55007 13.5847 7.47308 13.5757 7.3961 13.5757H6.95683C6.22774 13.5757 5.63904 14.1643 5.63904 14.8933V15.3325C5.63904 16.0614 6.22774 16.6501 6.95683 16.6501H7.3961C7.47308 16.6501 7.55007 16.641 7.62252 16.6274C7.81272 17.5556 8.17953 18.4159 8.6822 19.1811C8.6188 19.2264 8.55993 19.2717 8.50558 19.326L8.19312 19.6384C7.67687 20.1546 7.67687 20.9877 8.19312 21.4994L8.50558 21.8118C9.02183 22.328 9.85508 22.328 10.3668 21.8118L10.6793 21.4994C10.7336 21.4451 10.7789 21.3862 10.8197 21.3273C11.585 21.8299 12.4499 22.2012 13.3783 22.3914C13.3647 22.4593 13.3556 22.5317 13.3556 22.6042V23.0434C13.3556 23.7724 13.9443 24.361 14.6734 24.361H15.1127C15.8418 24.361 16.4305 23.7724 16.4305 23.0434V22.6042C16.4305 22.5317 16.4214 22.4593 16.4078 22.3914C17.3362 22.1967 18.1966 21.8299 18.9665 21.3273C19.0072 21.3862 19.0525 21.4451 19.1069 21.4994L19.4193 21.8118C19.9356 22.328 20.7688 22.328 21.2805 21.8118L21.593 21.4994C22.1093 20.9832 22.1093 20.1501 21.593 19.6384L21.2805 19.326C21.2262 19.2717 21.1673 19.2264 21.1039 19.1811C21.6066 18.4159 21.9689 17.5556 22.1636 16.6274C22.2361 16.641 22.313 16.6501 22.39 16.6501H22.8293C23.5584 16.6501 24.1471 16.0614 24.1471 15.3325V14.8933C24.1471 14.1643 23.5584 13.5757 22.8293 13.5757ZM14.8953 18.1941C13.1926 18.1941 11.8159 16.8131 11.8159 15.1151C11.8159 13.4172 13.1971 12.0362 14.8953 12.0362C16.5935 12.0362 17.9747 13.4172 17.9747 15.1151C17.9747 16.8131 16.5935 18.1941 14.8953 18.1941Z" fill="#ADADAD"/>
</svg>