<svg xmlns="http://www.w3.org/2000/svg" width="12" height="12" viewBox="0 0 12 12" fill="none">
  <path d="M8.5 1.24902C9.467 1.24902 10.2509 2.03292 10.2509 2.99991C10.2509 3.96689 9.467 4.75079 8.5 4.75079C7.985 4.75079 7.52195 4.52846 7.2016 4.17454L4.92228 5.47675C4.97393 5.64195 5.00175 5.8177 5.00175 5.9999C5.00175 6.18215 4.97393 6.35785 4.92228 6.52305L7.20115 7.8258C7.5215 7.47155 7.98475 7.249 8.5 7.249C9.467 7.249 10.2509 8.0329 10.2509 8.9999C10.2509 9.9669 9.467 10.7508 8.5 10.7508C7.533 10.7508 6.7491 9.9669 6.7491 8.9999C6.7491 8.8177 6.77695 8.64195 6.8286 8.47675L4.54976 7.17405C4.22937 7.52825 3.76611 7.7508 3.25089 7.7508C2.2839 7.7508 1.5 6.9669 1.5 5.9999C1.5 5.0329 2.2839 4.24902 3.25089 4.24902C3.76587 4.24902 4.22892 4.47135 4.54929 4.82527L6.8286 3.52306C6.77695 3.35785 6.7491 3.18213 6.7491 2.99991C6.7491 2.03292 7.533 1.24902 8.5 1.24902ZM8.5 7.999C7.94725 7.999 7.4991 8.44715 7.4991 8.9999C7.4991 9.5527 7.94725 10.0008 8.5 10.0008C9.05275 10.0008 9.5009 9.5527 9.5009 8.9999C9.5009 8.44715 9.05275 7.999 8.5 7.999ZM3.25089 4.99902C2.69811 4.99902 2.25 5.44715 2.25 5.9999C2.25 6.5527 2.69811 7.0008 3.25089 7.0008C3.80366 7.0008 4.25177 6.5527 4.25177 5.9999C4.25177 5.44715 3.80366 4.99902 3.25089 4.99902ZM8.5 1.99902C7.94725 1.99902 7.4991 2.44713 7.4991 2.99991C7.4991 3.55268 7.94725 4.00079 8.5 4.00079C9.05275 4.00079 9.5009 3.55268 9.5009 2.99991C9.5009 2.44713 9.05275 1.99902 8.5 1.99902Z" fill="#121212"/>
</svg>