<svg xmlns="http://www.w3.org/2000/svg" width="20" height="21" viewBox="0 0 20 21" fill="none">
  <path d="M9.67578 2.60547C10.1176 2.60547 10.4758 2.96364 10.4758 3.40547V5.44651L11.8411 4.08116C12.1535 3.76874 12.6601 3.76874 12.9725 4.08116C13.2849 4.39358 13.2849 4.90012 12.9725 5.21253L10.4758 7.70925V9.80547H12.572L15.0687 7.30875C15.3811 6.99633 15.8877 6.99633 16.2001 7.30875C16.5125 7.62116 16.5125 8.1277 16.2001 8.44012L14.8347 9.80547H16.8758C17.3176 9.80547 17.6758 10.1636 17.6758 10.6055C17.6758 11.0473 17.3176 11.4055 16.8758 11.4055H14.8347L16.2001 12.7708C16.5125 13.0832 16.5125 13.5898 16.2001 13.9022C15.8877 14.2146 15.3811 14.2146 15.0687 13.9022L12.572 11.4055H10.4758V13.5017L12.9725 15.9984C13.2849 16.3108 13.2849 16.8174 12.9725 17.1298C12.6601 17.4422 12.1535 17.4422 11.8411 17.1298L10.4758 15.7644V17.8055C10.4758 18.2473 10.1176 18.6055 9.67578 18.6055C9.23394 18.6055 8.87578 18.2473 8.87578 17.8055V15.7644L7.51043 17.1298C7.19801 17.4422 6.69148 17.4422 6.37906 17.1298C6.06665 16.8174 6.06665 16.3108 6.37906 15.9984L8.87578 13.5017V11.4055H6.77957L4.28285 13.9022C3.97043 14.2146 3.46389 14.2146 3.15148 13.9022C2.83905 13.5898 2.83905 13.0832 3.15148 12.7708L4.51682 11.4055H2.47578C2.03396 11.4055 1.67578 11.0473 1.67578 10.6055C1.67578 10.1636 2.03396 9.80547 2.47578 9.80547H4.51682L3.15148 8.44012C2.83905 8.1277 2.83905 7.62116 3.15148 7.30875C3.46389 6.99633 3.97043 6.99633 4.28285 7.30875L6.77957 9.80547H8.87578V7.70925L6.37906 5.21253C6.06665 4.90012 6.06665 4.39358 6.37906 4.08116C6.69148 3.76874 7.19801 3.76874 7.51043 4.08116L8.87578 5.44651V3.40547C8.87578 2.96364 9.23394 2.60547 9.67578 2.60547Z" fill="#849FFF"/>
</svg>