<svg xmlns="http://www.w3.org/2000/svg" width="14" height="13" viewBox="0 0 14 13" fill="none">
  <path d="M7.7059 1.30959C7.41703 0.724276 6.5824 0.724281 6.29353 1.30959L4.91808 4.09659L1.84244 4.5435C1.19651 4.63736 0.938598 5.43116 1.40599 5.88674L3.63155 8.0561L3.10617 11.1194C2.99583 11.7627 3.67106 12.2532 4.24879 11.9495L6.99972 10.5032L9.75066 11.9495C10.3284 12.2532 11.0036 11.7627 10.8933 11.1194L10.3679 8.0561L12.5935 5.88674C13.0608 5.43116 12.8029 4.63736 12.157 4.5435L9.0814 4.09659L7.7059 1.30959ZM5.68236 4.52508L6.99972 1.85581L8.31712 4.52508C8.4318 4.75751 8.65353 4.91861 8.91002 4.95588L11.8557 5.38391L9.72417 7.46168C9.53862 7.64257 9.45392 7.90321 9.49773 8.15871L10.0009 11.0925L7.36617 9.70734C7.13674 9.58671 6.86269 9.58671 6.63327 9.70734L3.99854 11.0925L4.50173 8.15871C4.54555 7.90321 4.46085 7.64257 4.27525 7.46168L2.14371 5.38391L5.08942 4.95588C5.34592 4.91861 5.56766 4.75751 5.68236 4.52508ZM0.679872 1.70559C0.528928 1.89427 0.559519 2.16958 0.748198 2.32053L2.20653 3.48719C2.3952 3.63814 2.67052 3.60755 2.82146 3.41887C2.97241 3.23019 2.94182 2.95488 2.75314 2.80393L1.2948 1.63727C1.10613 1.48632 0.83081 1.51691 0.679872 1.70559ZM13.3215 10.1272C13.4724 9.93851 13.4418 9.66318 13.2532 9.51227L11.7948 8.34561C11.6061 8.19464 11.3308 8.22527 11.1799 8.41392C11.0289 8.60262 11.0595 8.8779 11.2482 9.02886L12.7065 10.1955C12.8952 10.3464 13.1705 10.3159 13.3215 10.1272ZM0.748198 9.51227C0.559519 9.66318 0.528928 9.93851 0.679872 10.1272C0.83081 10.3159 1.10613 10.3464 1.2948 10.1955L2.75314 9.02886C2.94182 8.8779 2.97241 8.60262 2.82146 8.41392C2.67052 8.22527 2.3952 8.19464 2.20653 8.34561L0.748198 9.51227ZM13.3215 1.70559C13.4724 1.89427 13.4418 2.16958 13.2532 2.32053L11.7948 3.48719C11.6061 3.63814 11.3308 3.60755 11.1799 3.41887C11.0289 3.23019 11.0595 2.95488 11.2482 2.80393L12.7065 1.63727C12.8952 1.48632 13.1705 1.51691 13.3215 1.70559Z" fill="#121212"/>
</svg>