<svg width="19" height="19" viewBox="0 0 19 19" fill="none" xmlns="http://www.w3.org/2000/svg">
<path d="M12.7964 2.3623C14.4274 2.3623 15.7495 3.68446 15.7495 5.31543V12.4029C15.7495 13.801 14.7781 14.9721 13.4734 15.2781L15.4129 16.201C15.7074 16.3411 15.8324 16.6936 15.6922 16.9881C15.5636 17.2581 15.2568 17.3857 14.9797 17.297L14.905 17.2674L10.8906 15.3561H8.00754L3.9941 17.2674C3.6996 17.4076 3.34717 17.2826 3.20693 16.9881C3.06668 16.6936 3.19174 16.3411 3.48625 16.201L5.42532 15.278C4.12082 14.9718 3.14955 13.8008 3.14955 12.4029V5.31543C3.14955 3.68446 4.47171 2.3623 6.10268 2.3623H12.7964ZM6.29955 11.8123C5.86463 11.8123 5.51205 12.1649 5.51205 12.5998C5.51205 13.0347 5.86463 13.3873 6.29955 13.3873C6.73448 13.3873 7.08705 13.0347 7.08705 12.5998C7.08705 12.1649 6.73448 11.8123 6.29955 11.8123ZM12.5995 11.8123C12.1646 11.8123 11.812 12.1649 11.812 12.5998C11.812 13.0347 12.1646 13.3873 12.5995 13.3873C13.0345 13.3873 13.387 13.0347 13.387 12.5998C13.387 12.1649 13.0345 11.8123 12.5995 11.8123ZM12.7964 3.54355H6.10268C5.1241 3.54355 4.3308 4.33685 4.3308 5.31543L4.33067 9.84355H14.5682L14.5683 5.31543C14.5683 4.33685 13.775 3.54355 12.7964 3.54355ZM10.4339 4.7248C10.7601 4.7248 11.0245 4.98924 11.0245 5.31543C11.0245 5.64162 10.7601 5.90605 10.4339 5.90605H8.46515C8.13897 5.90605 7.87455 5.64162 7.87455 5.31543C7.87455 4.98924 8.13897 4.7248 8.46515 4.7248H10.4339Z" fill="#ADADAD"/>
</svg>
