<svg xmlns="http://www.w3.org/2000/svg" width="15" height="14" viewBox="0 0 15 14" fill="none">
  <path d="M3.41647 3.50016H11.5831C11.904 3.50016 12.1665 3.23766 12.1665 2.91683C12.1665 2.596 11.904 2.3335 11.5831 2.3335H3.41647C3.09563 2.3335 2.83313 2.596 2.83313 2.91683C2.83313 3.23766 3.09563 3.50016 3.41647 3.50016ZM12.2598 4.55016C12.2073 4.28183 11.9681 4.0835 11.6881 4.0835H3.31147C3.03147 4.0835 2.7923 4.28183 2.7398 4.55016L2.15647 7.46683C2.08647 7.8285 2.36063 8.16683 2.72813 8.16683H2.83313V11.0835C2.83313 11.4043 3.09563 11.6668 3.41647 11.6668H8.08313C8.40396 11.6668 8.66647 11.4043 8.66647 11.0835V8.16683H10.9998V11.0835C10.9998 11.4043 11.2623 11.6668 11.5831 11.6668C11.904 11.6668 12.1665 11.4043 12.1665 11.0835V8.16683H12.2715C12.639 8.16683 12.9131 7.8285 12.8431 7.46683L12.2598 4.55016ZM7.4998 10.5002H3.9998V8.16683H7.4998V10.5002Z" fill="white"/>
</svg>