<svg xmlns="http://www.w3.org/2000/svg" width="14" height="14" viewBox="0 0 14 14" fill="none">
  <path d="M3.49967 12.2503C3.17884 12.2503 2.90429 12.1362 2.67601 11.9079C2.44734 11.6792 2.33301 11.4045 2.33301 11.0837V5.83366C2.33301 5.64894 2.37442 5.47394 2.45726 5.30866C2.5397 5.14338 2.65384 5.00727 2.79967 4.90033L6.29967 2.27533C6.50384 2.11977 6.73717 2.04199 6.99967 2.04199C7.26217 2.04199 7.49551 2.11977 7.69967 2.27533L11.1997 4.90033C11.3455 5.00727 11.4598 5.14338 11.5427 5.30866C11.6251 5.47394 11.6663 5.64894 11.6663 5.83366V11.0837C11.6663 11.4045 11.5522 11.6792 11.3239 11.9079C11.0953 12.1362 10.8205 12.2503 10.4997 12.2503H3.49967ZM5.83301 8.16699V10.2087C5.83301 10.2864 5.86217 10.3545 5.92051 10.4128C5.97884 10.4712 6.0469 10.5003 6.12467 10.5003C6.20245 10.5003 6.27051 10.4712 6.32884 10.4128C6.38718 10.3545 6.41634 10.2864 6.41634 10.2087V8.16699C6.6594 8.16699 6.8659 8.08183 7.03584 7.91149C7.20617 7.74155 7.29134 7.53505 7.29134 7.29199V5.83366C7.29134 5.75588 7.26218 5.68783 7.20384 5.62949C7.14551 5.57116 7.07745 5.54199 6.99967 5.54199C6.9219 5.54199 6.85384 5.57116 6.79551 5.62949C6.73717 5.68783 6.70801 5.75588 6.70801 5.83366V7.29199H6.41634V5.83366C6.41634 5.75588 6.38718 5.68783 6.32884 5.62949C6.27051 5.57116 6.20245 5.54199 6.12467 5.54199C6.0469 5.54199 5.97884 5.57116 5.92051 5.62949C5.86217 5.68783 5.83301 5.75588 5.83301 5.83366V7.29199H5.54134V5.83366C5.54134 5.75588 5.51217 5.68783 5.45384 5.62949C5.39551 5.57116 5.32745 5.54199 5.24967 5.54199C5.1719 5.54199 5.10384 5.57116 5.04551 5.62949C4.98717 5.68783 4.95801 5.75588 4.95801 5.83366V7.29199C4.95801 7.53505 5.04317 7.74155 5.21351 7.91149C5.38345 8.08183 5.58995 8.16699 5.83301 8.16699ZM8.45801 10.5003C8.53579 10.5003 8.60384 10.4712 8.66218 10.4128C8.72051 10.3545 8.74967 10.2864 8.74967 10.2087V5.89199C8.74967 5.81421 8.72051 5.74616 8.66218 5.68783C8.60384 5.62949 8.53579 5.60033 8.45801 5.60033C8.18579 5.60033 7.9719 5.71213 7.81634 5.93574C7.66079 6.15935 7.58301 6.41699 7.58301 6.70866V8.16699C7.58301 8.24477 7.61217 8.31283 7.67051 8.37116C7.72884 8.42949 7.7969 8.45866 7.87467 8.45866H8.16634V10.2087C8.16634 10.2864 8.19551 10.3545 8.25384 10.4128C8.31217 10.4712 8.38023 10.5003 8.45801 10.5003Z" fill="white"/>
</svg>