<svg xmlns="http://www.w3.org/2000/svg" width="16" height="15" viewBox="0 0 16 15" fill="none">
  <path d="M10.9199 5.3483L4.6339 3.25297C4.45872 3.19457 4.37113 3.16538 4.31056 3.20903C4.25 3.25268 4.25 3.34501 4.25 3.52967V8.125L10.9199 5.9017C11.2631 5.78731 11.4347 5.73011 11.4347 5.625C11.4347 5.51989 11.2631 5.46269 10.9199 5.3483Z" fill="white"/>
  <path d="M4.25 8.125V3.52967C4.25 3.34501 4.25 3.25268 4.31056 3.20903C4.37113 3.16538 4.45872 3.19457 4.6339 3.25297L10.9199 5.3483C11.2631 5.46269 11.4347 5.51989 11.4347 5.625C11.4347 5.73011 11.2631 5.78731 10.9199 5.9017L4.25 8.125ZM4.25 8.125V11.25V11.875" stroke="white" stroke-width="1.16667" stroke-linecap="round"/>
</svg>