<svg xmlns="http://www.w3.org/2000/svg" width="20" height="21" viewBox="0 0 20 21" fill="none">
  <path d="M11.6667 3.9388C11.6667 4.39904 11.2936 4.77214 10.8333 4.77214H9.16667C8.70642 4.77214 8.33333 4.39904 8.33333 3.9388C8.33333 3.47857 8.70642 3.10547 9.16667 3.10547H10.8333C11.2936 3.10547 11.6667 3.47857 11.6667 3.9388ZM4.16667 9.77214C4.16667 9.31189 3.79357 8.9388 3.33333 8.9388C2.8731 8.9388 2.5 9.31189 2.5 9.77214V11.4388C2.5 11.8991 2.8731 12.2721 3.33333 12.2721C3.79357 12.2721 4.16667 11.8991 4.16667 11.4388V9.77214ZM15.8333 9.77214C15.8333 9.31189 16.2064 8.9388 16.6667 8.9388C17.1269 8.9388 17.5 9.31189 17.5 9.77214V11.4388C17.5 11.8991 17.1269 12.2721 16.6667 12.2721C16.2064 12.2721 15.8333 11.8991 15.8333 11.4388V9.77214ZM10.8333 18.1055C11.2936 18.1055 11.6667 17.7324 11.6667 17.2721C11.6667 16.8119 11.2936 16.4388 10.8333 16.4388H9.16667C8.70642 16.4388 8.33333 16.8119 8.33333 17.2721C8.33333 17.7324 8.70642 18.1055 9.16667 18.1055H10.8333ZM5.83333 3.9388C5.83333 3.47857 5.46023 3.10547 5 3.10547C3.61929 3.10547 2.5 4.22476 2.5 5.60547C2.5 6.0657 2.8731 6.4388 3.33333 6.4388C3.79357 6.4388 4.16667 6.0657 4.16667 5.60547C4.16667 5.14524 4.53977 4.77214 5 4.77214C5.46023 4.77214 5.83333 4.39904 5.83333 3.9388ZM15 3.10547C14.5398 3.10547 14.1667 3.47857 14.1667 3.9388C14.1667 4.39904 14.5398 4.77214 15 4.77214C15.4602 4.77214 15.8333 5.14524 15.8333 5.60547C15.8333 6.0657 16.2064 6.4388 16.6667 6.4388C17.1269 6.4388 17.5 6.0657 17.5 5.60547C17.5 4.22476 16.3807 3.10547 15 3.10547ZM5.83333 17.2721C5.83333 17.7324 5.46023 18.1055 5 18.1055C3.61929 18.1055 2.5 16.9862 2.5 15.6055C2.5 15.1452 2.8731 14.7721 3.33333 14.7721C3.79357 14.7721 4.16667 15.1452 4.16667 15.6055C4.16667 16.0657 4.53977 16.4388 5 16.4388C5.46023 16.4388 5.83333 16.8119 5.83333 17.2721ZM15 18.1055C14.5398 18.1055 14.1667 17.7324 14.1667 17.2721C14.1667 16.8119 14.5398 16.4388 15 16.4388C15.4602 16.4388 15.8333 16.0657 15.8333 15.6055C15.8333 15.1452 16.2064 14.7721 16.6667 14.7721C17.1269 14.7721 17.5 15.1452 17.5 15.6055C17.5 16.9862 16.3807 18.1055 15 18.1055Z" fill="#849FFF"/>
</svg>