<svg xmlns="http://www.w3.org/2000/svg" width="15" height="14" viewBox="0 0 15 14" fill="none">
  <path d="M7.5 7.5835C6.72645 7.5835 5.98459 7.27621 5.43761 6.72922C4.89062 6.18224 4.58333 5.44038 4.58333 4.66683H5.75C5.75 5.13096 5.93437 5.57608 6.26256 5.90427C6.59075 6.23245 7.03587 6.41683 7.5 6.41683C7.96413 6.41683 8.40925 6.23245 8.73744 5.90427C9.06563 5.57608 9.25 5.13096 9.25 4.66683H10.4167C10.4167 5.44038 10.1094 6.18224 9.56239 6.72922C9.01541 7.27621 8.27355 7.5835 7.5 7.5835ZM7.5 1.75016C7.96413 1.75016 8.40925 1.93454 8.73744 2.26273C9.06563 2.59091 9.25 3.03603 9.25 3.50016H5.75C5.75 3.03603 5.93437 2.59091 6.26256 2.26273C6.59075 1.93454 7.03587 1.75016 7.5 1.75016ZM11.5833 3.50016H10.4167C10.4167 3.11714 10.3412 2.73787 10.1946 2.384C10.0481 2.03014 9.83323 1.70861 9.56239 1.43777C9.29156 1.16693 8.97003 0.95209 8.61616 0.805514C8.26229 0.658938 7.88302 0.583496 7.5 0.583496C6.72645 0.583496 5.98459 0.890787 5.43761 1.43777C4.89062 1.98475 4.58333 2.72661 4.58333 3.50016H3.41667C2.76917 3.50016 2.25 4.01933 2.25 4.66683V11.6668C2.25 11.9762 2.37292 12.273 2.59171 12.4918C2.8105 12.7106 3.10725 12.8335 3.41667 12.8335H11.5833C11.8928 12.8335 12.1895 12.7106 12.4083 12.4918C12.6271 12.273 12.75 11.9762 12.75 11.6668V4.66683C12.75 4.35741 12.6271 4.06066 12.4083 3.84187C12.1895 3.62308 11.8928 3.50016 11.5833 3.50016Z" fill="white"/>
</svg>