<svg xmlns="http://www.w3.org/2000/svg" width="15" height="14" viewBox="0 0 15 14" fill="none">
  <path d="M6.91634 10.5C5.78856 10.5 4.82606 10.1014 4.02884 9.30417C3.23162 8.50694 2.83301 7.54444 2.83301 6.41667V2.91667C2.83301 2.59583 2.94734 2.32108 3.17601 2.09242C3.40429 1.86414 3.67884 1.75 3.99967 1.75H11.2913C11.8552 1.75 12.3365 1.94931 12.7351 2.34792C13.1337 2.74653 13.333 3.22778 13.333 3.79167C13.333 4.35556 13.1337 4.83681 12.7351 5.23542C12.3365 5.63403 11.8552 5.83333 11.2913 5.83333H10.9997V6.41667C10.9997 7.54444 10.6011 8.50694 9.80384 9.30417C9.00662 10.1014 8.04412 10.5 6.91634 10.5ZM3.99967 4.66667H9.83301V2.91667H3.99967V4.66667ZM10.9997 4.66667H11.2913C11.5344 4.66667 11.7409 4.5815 11.9108 4.41117C12.0812 4.24122 12.1663 4.03472 12.1663 3.79167C12.1663 3.54861 12.0812 3.34211 11.9108 3.17217C11.7409 3.00183 11.5344 2.91667 11.2913 2.91667H10.9997V4.66667ZM3.41634 12.25C3.25106 12.25 3.11242 12.194 3.00042 12.082C2.88881 11.9704 2.83301 11.8319 2.83301 11.6667C2.83301 11.5014 2.88881 11.3629 3.00042 11.2513C3.11242 11.1393 3.25106 11.0833 3.41634 11.0833H11.583C11.7483 11.0833 11.8867 11.1393 11.9983 11.2513C12.1103 11.3629 12.1663 11.5014 12.1663 11.6667C12.1663 11.8319 12.1103 11.9704 11.9983 12.082C11.8867 12.194 11.7483 12.25 11.583 12.25H3.41634Z" fill="white"/>
</svg>