<svg xmlns="http://www.w3.org/2000/svg" width="15" height="14" viewBox="0 0 15 14" fill="none">
  <path d="M4.58301 7.58317C5.55134 7.58317 6.33301 6.8015 6.33301 5.83317C6.33301 4.86484 5.55134 4.08317 4.58301 4.08317C3.61467 4.08317 2.83301 4.86484 2.83301 5.83317C2.83301 6.8015 3.61467 7.58317 4.58301 7.58317ZM11.583 4.08317H8.08301C7.44134 4.08317 6.91634 4.60817 6.91634 5.24984V8.1665H2.24967V3.49984C2.24967 3.179 1.98717 2.9165 1.66634 2.9165C1.34551 2.9165 1.08301 3.179 1.08301 3.49984V11.0832C1.08301 11.404 1.34551 11.6665 1.66634 11.6665C1.98717 11.6665 2.24967 11.404 2.24967 11.0832V9.9165H12.7497V11.0832C12.7497 11.404 13.0122 11.6665 13.333 11.6665C13.6538 11.6665 13.9163 11.404 13.9163 11.0832V6.4165C13.9163 5.12734 12.8722 4.08317 11.583 4.08317Z" fill="white"/>
</svg>