<svg xmlns="http://www.w3.org/2000/svg" width="15" height="14" viewBox="0 0 15 14" fill="none">
  <path d="M11.0003 12.2498V3.49984H12.167C12.4878 3.49984 12.7625 3.61407 12.991 3.84255C13.2194 4.07102 13.3337 4.34567 13.3337 4.6665V11.0832C13.3337 11.404 13.2194 11.6787 12.991 11.9071C12.7625 12.1356 12.4878 12.2498 12.167 12.2498H11.0003ZM6.33366 3.49984H8.66699V2.33317H6.33366V3.49984ZM5.16699 12.2498V2.33317C5.16699 2.01234 5.28123 1.73768 5.5097 1.50921C5.73817 1.28074 6.01283 1.1665 6.33366 1.1665H8.66699C8.98783 1.1665 9.26248 1.28074 9.49095 1.50921C9.71942 1.73768 9.83366 2.01234 9.83366 2.33317V12.2498H5.16699ZM2.83366 12.2498C2.51283 12.2498 2.23817 12.1356 2.0097 11.9071C1.78123 11.6787 1.66699 11.404 1.66699 11.0832V4.6665C1.66699 4.34567 1.78123 4.07102 2.0097 3.84255C2.23817 3.61407 2.51283 3.49984 2.83366 3.49984H4.00033V12.2498H2.83366Z" fill="white"/>
</svg>