<svg xmlns="http://www.w3.org/2000/svg" width="18" height="19" viewBox="0 0 18 19" fill="none">
  <path fill-rule="evenodd" clip-rule="evenodd" d="M11.25 14.6519C11.25 15.2225 11.9904 15.446 12.3061 14.9707L16.6556 8.42159C16.91 8.03864 16.6354 7.52668 16.1757 7.52668H12.75V3.41284C12.75 2.84226 12.0096 2.61878 11.6939 3.09408L7.34435 9.64315C7.09002 10.0261 7.36459 10.5381 7.8243 10.5381H11.25V14.6519Z" fill="#FFBD12"/>
  <path opacity="0.3" fill-rule="evenodd" clip-rule="evenodd" d="M2.25293 4.76172C2.25293 4.20943 2.70064 3.76172 3.25293 3.76172H7.25293C7.80521 3.76172 8.25293 4.20943 8.25293 4.76172C8.25293 5.314 7.80521 5.76172 7.25293 5.76172H3.25293C2.70065 5.76172 2.25293 5.314 2.25293 4.76172ZM2.25293 13.7969C2.25293 13.2446 2.70064 12.7969 3.25293 12.7969H7.25293C7.80521 12.7969 8.25293 13.2446 8.25293 13.7969C8.25293 14.3492 7.80521 14.7969 7.25293 14.7969H3.25293C2.70065 14.7969 2.25293 14.3492 2.25293 13.7969ZM1.75098 8.28125C1.19869 8.28125 0.750977 8.72897 0.750977 9.28125C0.750977 9.83353 1.19869 10.2812 1.75098 10.2812H5.00098C5.55326 10.2812 6.00098 9.83353 6.00098 9.28125C6.00098 8.72897 5.55326 8.28125 5.00098 8.28125H1.75098Z" fill="#FFBD12"/>
</svg>