<svg width="19" height="19" viewBox="0 0 19 19" fill="none" xmlns="http://www.w3.org/2000/svg">
<path d="M12.5785 3.15039C13.555 3.15039 14.4108 3.80402 14.6678 4.7462L15.4179 7.49689C16.4922 7.62462 17.3252 8.5387 17.3252 9.64727V11.4191C17.3252 12.1001 17.0109 12.7077 16.5194 13.1047C16.3676 14.3732 15.2878 15.3566 13.9783 15.3566C12.8396 15.3566 11.8745 14.6129 11.5423 13.5848H7.75176C7.4196 14.6129 6.45456 15.3566 5.31582 15.3566C4.10328 15.3566 3.08769 14.5135 2.82341 13.3814C2.08598 13.036 1.5752 12.2873 1.5752 11.4191V10.0896C1.5752 9.09578 2.25162 8.22953 3.21579 7.98863L4.93425 7.55916L6.90948 4.21473C7.29905 3.55511 8.00813 3.15039 8.77421 3.15039H12.5785ZM13.5282 5.05701C13.4113 4.62875 13.0224 4.33164 12.5785 4.33164H11.4189V7.48164H14.1895L13.5282 5.05701ZM10.2377 7.48164V4.33164H8.77421C8.42597 4.33164 8.10365 4.51561 7.92662 4.81543L6.35192 7.48164H10.2377ZM13.9783 11.4191C13.2172 11.4191 12.6002 12.0361 12.6002 12.7973C12.6002 13.5584 13.2172 14.1754 13.9783 14.1754C14.7394 14.1754 15.3564 13.5584 15.3564 12.7973C15.3564 12.0361 14.7394 11.4191 13.9783 11.4191ZM6.69395 12.7973C6.69395 12.0361 6.07694 11.4191 5.31582 11.4191C4.5547 11.4191 3.9377 12.0361 3.9377 12.7973C3.9377 13.5584 4.5547 14.1754 5.31582 14.1754C6.07694 14.1754 6.69395 13.5584 6.69395 12.7973Z" fill="#ADADAD"/>
</svg>
