<svg width="30" height="30" viewBox="0 0 30 30" fill="none" xmlns="http://www.w3.org/2000/svg">
<g clip-path="url(#clip0_1610_6836)">
<path fill-rule="evenodd" clip-rule="evenodd" d="M15 27C21.6274 27 27 21.6274 27 15C27 8.37258 21.6274 3 15 3C8.37258 3 3 8.37258 3 15C3 21.6274 8.37258 27 15 27ZM19.0134 10.1337C19.7232 9.94347 20.3413 10.6529 20.0556 11.33L16.1369 20.6166C15.81 21.3913 14.6879 21.314 14.4703 20.5018L13.4262 16.6052C13.3494 16.3183 13.1455 16.0824 12.8727 15.9647L9.22017 14.3891C8.45138 14.0575 8.53268 12.942 9.34141 12.7253L19.0134 10.1337Z" fill="#ADADAD"/>
</g>
<defs>
<clipPath id="clip0_1610_6836">
<rect width="24" height="24" fill="white" transform="translate(3 3)"/>
</clipPath>
</defs>
</svg>
