<svg xmlns="http://www.w3.org/2000/svg" width="50" height="50" viewBox="0 0 50 50" fill="none">
  <path d="M25 45C13.9543 45 5 36.0456 5 25C5 13.9543 13.9543 5 25 5C36.0456 5 45 13.9543 45 25C45 36.0456 36.0456 45 25 45ZM35 28C35 26.3432 33.6568 25 32 25H18C16.3431 25 15 26.3432 15 28V29C15 32.9428 18.719 37 25 37C31.281 37 35 32.9428 35 29V28ZM30.5 17.5C30.5 14.4624 28.0376 12 25 12C21.9624 12 19.5 14.4624 19.5 17.5C19.5 20.5376 21.9624 23 25 23C28.0376 23 30.5 20.5376 30.5 17.5Z" fill="#849FFF"/>
</svg>