<svg width="19" height="19" viewBox="0 0 19 19" fill="none" xmlns="http://www.w3.org/2000/svg">
<g clip-path="url(#clip0_1820_7152)">
<path d="M13.1533 5.90605C14.1319 5.90605 14.9252 5.11276 14.9252 4.13418C14.9252 3.1556 14.1319 2.3623 13.1533 2.3623C12.1748 2.3623 11.3815 3.1556 11.3815 4.13418C11.3815 5.11276 12.1748 5.90605 13.1533 5.90605ZM11.0751 5.84199C11.2207 5.87809 11.3509 5.95741 11.4636 6.05649C11.9144 6.45305 12.5058 6.69355 13.1533 6.69355C13.3589 6.69355 13.5588 6.66932 13.7503 6.62355C13.8964 6.58866 14.0487 6.57928 14.1944 6.61541L14.2984 6.64122C14.5999 6.71596 14.8598 6.90642 15.0218 7.17138L16.0708 8.88627C16.1854 9.07362 16.373 9.20458 16.5883 9.24757L17.7153 9.47264C18.3551 9.60045 18.7702 10.2227 18.6424 10.8624C18.5146 11.5022 17.8924 11.9172 17.2527 11.7895L15.2812 11.3957C14.9581 11.3311 14.6767 11.1347 14.5048 10.8537L14.3607 10.6182C14.1761 10.3164 13.7254 10.3583 13.5996 10.689C13.4611 11.0532 13.5111 11.4623 13.7333 11.7824L14.5163 12.9106C14.6401 13.089 14.7124 13.2981 14.7252 13.5148L14.9221 16.8617C14.9603 17.5129 14.4634 18.072 13.8122 18.1103C13.1609 18.1486 12.6019 17.6517 12.5636 17.0004L12.4065 14.3296C12.3962 14.1543 12.3277 13.9876 12.2117 13.8558L11.5412 13.0934C11.4097 12.9439 11.2201 12.8581 11.021 12.8581C10.7383 12.8581 10.484 13.0299 10.3784 13.292L8.73468 17.3724C8.49092 17.9776 7.80275 18.2705 7.19762 18.0268C6.59249 17.783 6.29954 17.0948 6.54331 16.4897L8.9651 10.4778C8.97622 10.435 8.98984 10.3925 9.00605 10.3503L9.45098 9.1919C9.52589 8.99691 9.42422 8.77862 9.22673 8.7105C9.04637 8.64826 8.84832 8.73365 8.76979 8.90753L7.77175 11.1173C7.50338 11.7115 6.80432 11.9759 6.20989 11.708C5.61547 11.4401 5.35048 10.7413 5.61786 10.1467L6.8963 7.30333C7.02611 7.01462 7.26638 6.79009 7.56322 6.6801L9.98481 5.78278C10.2072 5.70036 10.4493 5.68681 10.6795 5.7439L11.0751 5.84199Z" fill="#ADADAD"/>
</g>
<defs>
<clipPath id="clip0_1820_7152">
<rect width="18.9" height="18.9" fill="white"/>
</clipPath>
</defs>
</svg>
