<svg xmlns="http://www.w3.org/2000/svg" width="20" height="20" viewBox="0 0 20 20" fill="none">
  <path d="M7.42086 13.7503H12.5804C12.0638 16.4765 11.0293 18.3322 10.0006 18.3322C9.00315 18.3322 8.00016 16.5873 7.46923 13.9958L7.42086 13.7503ZM2.55547 13.7505L6.14351 13.7503C6.44748 15.4855 6.96272 16.9618 7.637 17.9948C5.5013 17.3641 3.72325 15.9018 2.67743 13.9829L2.55547 13.7505ZM13.8577 13.7503L17.4458 13.7505C16.4197 15.7835 14.5854 17.3389 12.3651 17.9946C12.9939 17.0298 13.4845 15.6798 13.7942 14.0938L13.8577 13.7503ZM14.1101 8.33368L18.1686 8.33318C18.2779 8.87176 18.3352 9.42926 18.3352 10.0001C18.3352 10.8712 18.2016 11.7111 17.9537 12.5004H14.0349C14.1226 11.7024 14.1686 10.864 14.1686 10.0001C14.1686 9.62151 14.1597 9.24776 14.1425 8.88026L14.1101 8.33368ZM1.83273 8.33318L5.89108 8.33368C5.85255 8.87534 5.83268 9.43218 5.83268 10.0001C5.83268 10.6913 5.86211 11.366 5.9188 12.0169L5.9664 12.5004H2.04754C1.79965 11.7111 1.66602 10.8712 1.66602 10.0001C1.66602 9.42926 1.7234 8.87176 1.83273 8.33318ZM7.14688 8.33318H12.8544C12.8962 8.87126 12.9186 9.42859 12.9186 10.0001C12.9186 10.6981 12.8853 11.3751 12.8237 12.0215L12.7723 12.5004H7.22893C7.13472 11.7123 7.08267 10.8727 7.08267 10.0001C7.08267 9.57151 7.09524 9.15084 7.11918 8.74026L7.14688 8.33318ZM12.4542 2.14724L12.3643 2.00538C14.8796 2.74785 16.8996 4.64503 17.8106 7.08314L13.9848 7.08338C13.7219 5.06929 13.1877 3.33955 12.4542 2.14724ZM7.53545 2.03605L7.63693 2.00541C6.90297 3.13 6.35746 4.77968 6.06774 6.71686L6.01644 7.08338L2.1907 7.08314C3.08942 4.67793 5.06742 2.79914 7.53545 2.03605ZM10.0006 1.66797C11.0996 1.66797 12.2053 3.78609 12.679 6.82084L12.718 7.08318H7.28328C7.73279 3.90886 8.87023 1.66797 10.0006 1.66797Z" fill="#424242"/>
</svg>