<svg xmlns="http://www.w3.org/2000/svg" width="33" height="32" viewBox="0 0 33 32" fill="none">
  <path d="M17.3036 25.9825C16.8479 26.6525 16.2273 27.2125 15.5291 27.6025C14.8309 27.9925 14.0358 28.2125 13.2406 28.2325C12.4358 28.2625 11.6406 28.0925 10.9133 27.7425C10.1861 27.3925 9.54606 26.8725 9.04182 26.2325C8.54727 25.5925 8.18849 24.8225 8.02364 24.0225C7.85879 23.2125 7.86848 22.3725 8.07212 21.5725C8.27576 20.7725 8.65394 20.0225 9.17758 19.4025C9.70121 18.7825 10.3703 18.2825 11.1073 17.9725C11.7667 17.6925 12.077 16.9125 11.8055 16.2325C11.5339 15.5525 10.7776 15.2325 10.1182 15.5125C9.01273 15.9825 8.01394 16.7225 7.22849 17.6625C6.44303 18.5925 5.87091 19.7225 5.5703 20.9125C5.2697 22.1025 5.2503 23.3725 5.50242 24.5825C5.75455 25.7925 6.27818 26.9325 7.02485 27.9025C7.77152 28.8625 8.74121 29.6525 9.82727 30.1725C10.8455 30.6525 11.9703 30.9125 13.0855 30.9125C13.163 30.9125 13.2406 30.9125 13.3182 30.9125C14.5109 30.8725 15.7036 30.5425 16.7606 29.9625C17.8176 29.3825 18.7388 28.5325 19.4273 27.5225C19.8345 26.9225 19.6988 26.0925 19.117 25.6625C18.5352 25.2425 17.7303 25.3825 17.3133 25.9825H17.3036Z" fill="#A6A6A6"/>
  <path d="M15.18 20.0625C15.18 20.8025 15.7618 21.3925 16.4697 21.3925H18.5352L15.18 17.9325V20.0625Z" fill="#A6A6A6"/>
  <path d="M28.9497 25.1225L23.7812 18.4525C23.5388 18.1325 23.1606 17.9525 22.7727 17.9525H20.2903L28.8915 26.8225C29.2988 26.3425 29.357 25.6325 28.9594 25.1225H28.9497Z" fill="#A6A6A6"/>
  <path d="M18.8939 15.2925H24.0624C24.78 15.2925 25.3521 14.6925 25.3521 13.9625C25.3521 13.2325 24.7703 12.6325 24.0624 12.6325H18.8939V9.7225C19.4273 9.5225 19.9315 9.2225 20.3485 8.7925C21.0758 8.0525 21.483 7.0125 21.483 5.9625C21.483 4.9125 21.0661 3.8825 20.3485 3.1325C18.8842 1.6225 16.3242 1.6225 14.86 3.1325C14.1327 3.8725 13.7255 4.9125 13.7255 5.9625C13.7255 7.0125 14.1424 8.0425 14.86 8.7925C15.277 9.2225 15.7715 9.5225 16.3048 9.7225V13.8625L18.8939 16.5325V15.2925ZM17.8079 8.2525C17.323 8.7525 16.4697 8.7525 15.9752 8.2525C15.7327 8.0025 15.597 7.6625 15.597 7.3125C15.597 6.9625 15.7327 6.6225 15.9752 6.3725C16.0818 6.2625 16.1982 6.1925 16.3339 6.1225C16.3339 6.0625 16.3048 6.0125 16.3048 5.9625C16.3048 5.6125 16.4406 5.2725 16.683 5.0225C16.9255 4.7725 17.2552 4.6325 17.5945 4.6325C17.9339 4.6325 18.2636 4.7725 18.5061 5.0225C18.7485 5.2725 18.8842 5.6125 18.8842 5.9625C18.8842 6.3125 18.7485 6.6525 18.5061 6.9025C18.3994 7.0125 18.2733 7.0825 18.1473 7.1425C18.1473 7.2025 18.1764 7.2525 18.1764 7.3125C18.1764 7.6625 18.0406 8.0025 17.7982 8.2525H17.8079Z" fill="#A6A6A6"/>
  <path d="M16.683 6.9025C16.4794 6.6925 16.3727 6.4125 16.3339 6.1225C16.2079 6.1825 16.0818 6.2625 15.9752 6.3725C15.7327 6.6225 15.597 6.9625 15.597 7.3125C15.597 7.6625 15.7327 8.0025 15.9752 8.2525C16.46 8.7525 17.3133 8.7525 17.8079 8.2525C18.0503 8.0025 18.1861 7.6625 18.1861 7.3125C18.1861 7.2525 18.157 7.2025 18.157 7.1425C17.6721 7.3725 17.0709 7.3025 16.683 6.9025Z" fill="#A6A6A6"/>
  <path d="M5.43455 4.5825C4.98848 4.1225 4.27091 4.1225 3.83455 4.5825C3.38848 5.0425 3.38848 5.7825 3.83455 6.2325L15.18 17.9325V14.6225L5.43455 4.5825Z" fill="#A6A6A6"/>
  <path d="M19.1655 18.7325L17.7691 17.2925V18.7325H19.1655Z" fill="#A6A6A6"/>
  <path d="M28.8915 28.7625L27.7667 27.6025C27.7182 27.6625 27.6891 27.7225 27.6309 27.7725C27.3885 27.9725 27.1073 28.0625 26.8261 28.0625C26.4479 28.0625 26.0697 27.8925 25.8176 27.5625L21.037 21.3925H18.5545L27.3012 30.4125C27.7473 30.8725 28.4648 30.8725 28.9012 30.4125C29.3473 29.9525 29.3473 29.2125 28.9012 28.7625H28.8915Z" fill="#A6A6A6"/>
  <path d="M25.8079 27.5625C26.06 27.8925 26.4382 28.0625 26.8164 28.0625C27.0976 28.0625 27.3885 27.9725 27.6212 27.7725C27.6794 27.7225 27.7085 27.6625 27.757 27.6025L19.1558 18.7325H17.7594V17.2925L15.1703 14.6225V17.9325L18.5255 21.3925H21.0079L25.7885 27.5625H25.8079Z" fill="#A6A6A6"/>
</svg>