<svg xmlns="http://www.w3.org/2000/svg" width="33" height="32" viewBox="0 0 33 32" fill="none">
  <path d="M12.502 6.66667C12.502 7.37391 12.7829 8.05219 13.283 8.55229C13.7831 9.05238 14.4614 9.33333 15.1686 9.33333C15.8759 9.33333 16.5541 9.05238 17.0542 8.55229C17.5543 8.05219 17.8353 7.37391 17.8353 6.66667C17.8353 5.95942 17.5543 5.28115 17.0542 4.78105C16.5541 4.28095 15.8759 4 15.1686 4C14.4614 4 13.7831 4.28095 13.283 4.78105C12.7829 5.28115 12.502 5.95942 12.502 6.66667Z" stroke="#A6A6A6" stroke-width="2.66667" stroke-linecap="round" stroke-linejoin="round"/>
  <path d="M15.168 9.33301V19.9997H20.5013L25.8346 26.6663M15.168 14.6663H21.8346M9.83465 15.333C8.87931 15.7286 8.02909 16.3411 7.35121 17.1219C6.67333 17.9027 6.18638 18.8305 5.92884 19.832C5.6713 20.8334 5.65024 21.881 5.86732 22.892C6.0844 23.903 6.53368 24.8496 7.17963 25.657C7.82557 26.4645 8.65049 27.1106 9.58916 27.5443C10.5278 27.978 11.5545 28.1874 12.5881 28.156C13.6216 28.1245 14.6337 27.8531 15.5442 27.3632C16.4548 26.8732 17.239 26.1782 17.8346 25.333" stroke="#A6A6A6" stroke-width="2.66667" stroke-linecap="round" stroke-linejoin="round"/>
</svg>