<svg xmlns="http://www.w3.org/2000/svg" width="16" height="16" viewBox="0 0 16 16" fill="none">
  <path d="M2.8063 2.92457L2.86176 2.86176C3.10209 2.62144 3.48024 2.60296 3.74177 2.8063L3.80458 2.86176L7.99984 7.0565L12.1951 2.86176C12.4554 2.60142 12.8776 2.60142 13.1379 2.86176C13.3982 3.12212 13.3982 3.54422 13.1379 3.80458L8.94317 7.99984L13.1379 12.1951C13.3782 12.4354 13.3967 12.8136 13.1934 13.0751L13.1379 13.1379C12.8976 13.3782 12.5194 13.3967 12.2579 13.1934L12.1951 13.1379L7.99984 8.94317L3.80458 13.1379C3.54422 13.3982 3.12212 13.3982 2.86176 13.1379C2.60142 12.8776 2.60142 12.4554 2.86176 12.1951L7.0565 7.99984L2.86176 3.80458C2.62144 3.56425 2.60296 3.1861 2.8063 2.92457Z" fill="#5276FA"/>
</svg>